<svg width="1512" height="925" viewBox="0 0 1512 925" fill="none" xmlns="http://www.w3.org/2000/svg">
<rect width="1512" height="925" fill="white"/>
<line x1="638.5" y1="315.067" x2="638.5" y2="181.067" stroke="#5CB25D"/>
<line x1="294.5" y1="759" x2="294.5" y2="659" stroke="#5CB25D"/>
<line x1="639.001" y1="179.375" x2="43.0015" y2="179.375" stroke="#5CB25D"/>
<line x1="42" y1="178" x2="42" y2="759" stroke="#5CB25D" stroke-width="2"/>
<line x1="297" y1="759.5" x2="43" y2="759.5" stroke="#5CB25D"/>
<line x1="875.5" y1="313" x2="875.5" y2="179" stroke="#5CB25D"/>
<line x1="1217.5" y1="759" x2="1217.5" y2="659" stroke="#5CB25D"/>
<line x1="1472" y1="178.5" x2="876" y2="178.5" stroke="#5CB25D"/>
<line x1="1472" y1="759.5" x2="1218" y2="759.5" stroke="#5CB25D"/>
<line x1="1472.5" y1="178" x2="1472.5" y2="759" stroke="#5CB25D"/>
<g clip-path="url(#clip0_35_380)">
<rect width="324" height="925" transform="translate(594)" fill="#212121"/>
<line x1="756.5" y1="-0.00111389" x2="756.5" y2="923.999" stroke="#5CB25D"/>
</g>
<rect width="1248" height="276" transform="translate(132 317)" fill="#212121"/>
<path d="M622.861 407V379H627.981V390.64H640.541V379H645.661V407H640.541V394.8H627.981V407H622.861ZM660.503 407.48C658.583 407.48 656.849 407.04 655.303 406.16C653.783 405.28 652.569 404.067 651.663 402.52C650.783 400.947 650.343 399.133 650.343 397.08C650.343 395.027 650.796 393.227 651.703 391.68C652.609 390.107 653.823 388.88 655.343 388C656.889 387.12 658.623 386.68 660.543 386.68C662.436 386.68 664.143 387.12 665.663 388C667.209 388.88 668.423 390.107 669.303 391.68C670.209 393.227 670.663 395.027 670.663 397.08C670.663 399.133 670.209 400.947 669.303 402.52C668.423 404.067 667.209 405.28 665.663 406.16C664.116 407.04 662.396 407.48 660.503 407.48ZM660.503 403.04C661.836 403.04 662.996 402.547 663.983 401.56C664.969 400.547 665.463 399.053 665.463 397.08C665.463 395.107 664.969 393.627 663.983 392.64C662.996 391.627 661.849 391.12 660.543 391.12C659.183 391.12 658.009 391.627 657.023 392.64C656.063 393.627 655.583 395.107 655.583 397.08C655.583 399.053 656.063 400.547 657.023 401.56C658.009 402.547 659.169 403.04 660.503 403.04ZM678.418 407L672.618 387.16H677.698L681.138 401.44L685.138 387.16H690.818L694.818 401.44L698.298 387.16H703.378L697.538 407H692.218L687.978 392.16L683.738 407H678.418ZM718.899 384.08C717.966 384.08 717.192 383.8 716.579 383.24C715.992 382.68 715.699 381.973 715.699 381.12C715.699 380.267 715.992 379.573 716.579 379.04C717.192 378.48 717.966 378.2 718.899 378.2C719.832 378.2 720.592 378.48 721.179 379.04C721.792 379.573 722.099 380.267 722.099 381.12C722.099 381.973 721.792 382.68 721.179 383.24C720.592 383.8 719.832 384.08 718.899 384.08ZM716.339 407V387.16H721.459V407H716.339ZM735.643 407C733.563 407 731.896 406.493 730.643 405.48C729.39 404.467 728.763 402.667 728.763 400.08V391.44H725.363V387.16H728.763L729.363 381.84H733.883V387.16H739.243V391.44H733.883V400.12C733.883 401.08 734.083 401.747 734.483 402.12C734.91 402.467 735.63 402.64 736.643 402.64H739.123V407H735.643ZM758.97 407L751.57 379H757.05L762.09 401.28L768.01 379H773.65L779.41 401.28L784.45 379H789.97L782.37 407H776.29L770.73 386.24L765.01 407H758.97ZM800.972 407.48C799.052 407.48 797.318 407.04 795.772 406.16C794.252 405.28 793.038 404.067 792.132 402.52C791.252 400.947 790.812 399.133 790.812 397.08C790.812 395.027 791.265 393.227 792.172 391.68C793.078 390.107 794.292 388.88 795.812 388C797.358 387.12 799.092 386.68 801.012 386.68C802.905 386.68 804.612 387.12 806.132 388C807.678 388.88 808.892 390.107 809.772 391.68C810.678 393.227 811.132 395.027 811.132 397.08C811.132 399.133 810.678 400.947 809.772 402.52C808.892 404.067 807.678 405.28 806.132 406.16C804.585 407.04 802.865 407.48 800.972 407.48ZM800.972 403.04C802.305 403.04 803.465 402.547 804.452 401.56C805.438 400.547 805.932 399.053 805.932 397.08C805.932 395.107 805.438 393.627 804.452 392.64C803.465 391.627 802.318 391.12 801.012 391.12C799.652 391.12 798.478 391.627 797.492 392.64C796.532 393.627 796.052 395.107 796.052 397.08C796.052 399.053 796.532 400.547 797.492 401.56C798.478 402.547 799.638 403.04 800.972 403.04ZM815.709 407V387.16H820.269L820.749 390.88C821.469 389.6 822.443 388.587 823.669 387.84C824.923 387.067 826.389 386.68 828.069 386.68V392.08H826.629C825.509 392.08 824.509 392.253 823.629 392.6C822.749 392.947 822.056 393.547 821.549 394.4C821.069 395.253 820.829 396.44 820.829 397.96V407H815.709ZM831.569 407V378.2H836.689V395.2L843.729 387.16H849.809L841.689 396.2L851.129 407H844.729L836.689 397.04V407H831.569ZM861.527 407.48C859.767 407.48 858.22 407.2 856.887 406.64C855.553 406.053 854.487 405.253 853.687 404.24C852.887 403.227 852.407 402.053 852.247 400.72H857.407C857.567 401.493 857.993 402.16 858.687 402.72C859.407 403.253 860.327 403.52 861.447 403.52C862.567 403.52 863.38 403.293 863.887 402.84C864.42 402.387 864.687 401.867 864.687 401.28C864.687 400.427 864.313 399.853 863.567 399.56C862.82 399.24 861.78 398.933 860.447 398.64C859.593 398.453 858.727 398.227 857.847 397.96C856.967 397.693 856.153 397.36 855.407 396.96C854.687 396.533 854.1 396 853.647 395.36C853.193 394.693 852.967 393.88 852.967 392.92C852.967 391.16 853.66 389.68 855.047 388.48C856.46 387.28 858.433 386.68 860.967 386.68C863.313 386.68 865.18 387.227 866.567 388.32C867.98 389.413 868.82 390.92 869.087 392.84H864.247C863.953 391.373 862.847 390.64 860.927 390.64C859.967 390.64 859.22 390.827 858.687 391.2C858.18 391.573 857.927 392.04 857.927 392.6C857.927 393.187 858.313 393.653 859.087 394C859.86 394.347 860.887 394.667 862.167 394.96C863.553 395.28 864.82 395.64 865.967 396.04C867.14 396.413 868.073 396.987 868.767 397.76C869.46 398.507 869.807 399.587 869.807 401C869.833 402.227 869.513 403.333 868.847 404.32C868.18 405.307 867.22 406.08 865.967 406.64C864.713 407.2 863.233 407.48 861.527 407.48ZM876.246 398.28L876.086 391.68H877.926C879.286 391.68 880.526 391.56 881.646 391.32C882.766 391.08 883.659 390.613 884.326 389.92C884.992 389.227 885.326 388.213 885.326 386.88C885.326 385.6 884.939 384.6 884.166 383.88C883.392 383.133 882.366 382.76 881.086 382.76C879.752 382.76 878.712 383.133 877.966 383.88C877.219 384.6 876.846 385.587 876.846 386.84H872.006C871.979 385.24 872.326 383.813 873.046 382.56C873.766 381.307 874.806 380.32 876.166 379.6C877.552 378.88 879.206 378.52 881.126 378.52C882.912 378.52 884.486 378.853 885.846 379.52C887.232 380.187 888.312 381.147 889.086 382.4C889.886 383.627 890.286 385.133 890.286 386.92C890.286 388.76 889.872 390.28 889.046 391.48C888.246 392.68 887.139 393.573 885.726 394.16C884.339 394.747 882.726 395.053 880.886 395.08L880.766 398.28H876.246ZM878.526 407.28C877.592 407.28 876.819 406.987 876.206 406.4C875.619 405.813 875.326 405.107 875.326 404.28C875.326 403.427 875.619 402.707 876.206 402.12C876.819 401.533 877.592 401.24 878.526 401.24C879.459 401.24 880.219 401.533 880.806 402.12C881.392 402.707 881.686 403.427 881.686 404.28C881.686 405.107 881.392 405.813 880.806 406.4C880.219 406.987 879.459 407.28 878.526 407.28Z" fill="white"/>
<g filter="url(#filter0_d_35_380)">
<rect x="1037" y="478" width="375" height="180" rx="8" fill="white"/>
<path d="M1165.67 556C1164.96 556 1164.28 556.281 1163.78 556.781C1163.28 557.281 1163 557.959 1163 558.667V577.333C1163 578.041 1163.28 578.719 1163.78 579.219C1164.28 579.719 1164.96 580 1165.67 580H1184.33C1185.04 580 1185.72 579.719 1186.22 579.219C1186.72 578.719 1187 578.041 1187 577.333V574.293C1187.4 574.061 1187.74 573.727 1187.97 573.324C1188.21 572.922 1188.33 572.465 1188.33 572V564C1188.33 563.535 1188.21 563.078 1187.97 562.676C1187.74 562.273 1187.4 561.939 1187 561.707V558.667C1187 557.959 1186.72 557.281 1186.22 556.781C1185.72 556.281 1185.04 556 1184.33 556H1165.67ZM1165.67 558.667H1184.33V561.333H1176.33C1175.63 561.333 1174.95 561.614 1174.45 562.114C1173.95 562.614 1173.67 563.293 1173.67 564V572C1173.67 572.707 1173.95 573.386 1174.45 573.886C1174.95 574.386 1175.63 574.667 1176.33 574.667H1184.33V577.333H1165.67V558.667ZM1176.33 564H1185.67V572H1176.33V564ZM1180.33 566C1179.8 566 1179.29 566.211 1178.92 566.586C1178.54 566.961 1178.33 567.47 1178.33 568C1178.33 568.53 1178.54 569.039 1178.92 569.414C1179.29 569.789 1179.8 570 1180.33 570C1180.86 570 1181.37 569.789 1181.75 569.414C1182.12 569.039 1182.33 568.53 1182.33 568C1182.33 567.47 1182.12 566.961 1181.75 566.586C1181.37 566.211 1180.86 566 1180.33 566Z" fill="#1F1F1F"/>
<path d="M1233 573.192C1231.95 573.192 1231.04 572.952 1230.25 572.472C1229.46 571.981 1228.85 571.304 1228.41 570.44C1227.97 569.565 1227.75 568.557 1227.75 567.416C1227.75 566.275 1227.97 565.267 1228.41 564.392C1228.86 563.517 1229.49 562.835 1230.3 562.344C1231.12 561.853 1232.08 561.608 1233.19 561.608C1234.45 561.608 1235.5 561.912 1236.33 562.52C1237.17 563.128 1237.71 563.965 1237.96 565.032H1236.41C1236.26 564.36 1235.9 563.827 1235.34 563.432C1234.78 563.037 1234.07 562.84 1233.19 562.84C1232.37 562.84 1231.66 563.027 1231.05 563.4C1230.44 563.763 1229.97 564.285 1229.62 564.968C1229.29 565.651 1229.13 566.467 1229.13 567.416C1229.13 568.365 1229.29 569.181 1229.62 569.864C1229.95 570.547 1230.41 571.075 1231 571.448C1231.59 571.811 1232.27 571.992 1233.05 571.992C1234.24 571.992 1235.14 571.645 1235.75 570.952C1236.36 570.248 1236.71 569.288 1236.79 568.072H1233.56V567.016H1238.17V573H1236.94L1236.82 571.16C1236.42 571.811 1235.92 572.312 1235.34 572.664C1234.75 573.016 1233.97 573.192 1233 573.192ZM1243.78 573.192C1243.02 573.192 1242.35 573.021 1241.77 572.68C1241.18 572.328 1240.71 571.843 1240.37 571.224C1240.04 570.605 1239.88 569.875 1239.88 569.032C1239.88 568.2 1240.04 567.475 1240.37 566.856C1240.7 566.227 1241.16 565.741 1241.75 565.4C1242.35 565.048 1243.03 564.872 1243.81 564.872C1244.58 564.872 1245.24 565.048 1245.8 565.4C1246.36 565.741 1246.79 566.195 1247.09 566.76C1247.39 567.325 1247.54 567.933 1247.54 568.584C1247.54 568.701 1247.54 568.819 1247.53 568.936C1247.53 569.053 1247.53 569.187 1247.53 569.336H1241.21C1241.24 569.944 1241.38 570.451 1241.62 570.856C1241.88 571.251 1242.19 571.549 1242.57 571.752C1242.95 571.955 1243.35 572.056 1243.78 572.056C1244.34 572.056 1244.8 571.928 1245.17 571.672C1245.55 571.416 1245.82 571.069 1245.99 570.632H1247.32C1247.1 571.368 1246.69 571.981 1246.09 572.472C1245.49 572.952 1244.72 573.192 1243.78 573.192ZM1243.78 566.008C1243.14 566.008 1242.57 566.205 1242.07 566.6C1241.58 566.984 1241.3 567.549 1241.22 568.296H1246.21C1246.18 567.581 1245.94 567.021 1245.48 566.616C1245.02 566.211 1244.45 566.008 1243.78 566.008ZM1252.19 573C1251.47 573 1250.9 572.824 1250.48 572.472C1250.07 572.12 1249.86 571.485 1249.86 570.568V566.2H1248.48V565.064H1249.86L1250.03 563.16H1251.2V565.064H1253.54V566.2H1251.2V570.568C1251.2 571.069 1251.3 571.411 1251.51 571.592C1251.71 571.763 1252.07 571.848 1252.58 571.848H1253.41V573H1252.19ZM1259.56 573V561.8H1263.24C1264.11 561.8 1264.83 561.944 1265.4 562.232C1265.96 562.52 1266.38 562.909 1266.65 563.4C1266.92 563.891 1267.06 564.445 1267.06 565.064C1267.06 565.672 1266.93 566.221 1266.66 566.712C1266.4 567.203 1265.98 567.597 1265.42 567.896C1264.85 568.184 1264.12 568.328 1263.24 568.328H1260.9V573H1259.56ZM1260.9 567.192H1263.21C1264.1 567.192 1264.74 567.005 1265.11 566.632C1265.5 566.248 1265.69 565.725 1265.69 565.064C1265.69 564.392 1265.5 563.869 1265.11 563.496C1264.74 563.112 1264.1 562.92 1263.21 562.92H1260.9V567.192ZM1271.01 573.192C1270.35 573.192 1269.8 573.08 1269.36 572.856C1268.92 572.632 1268.6 572.333 1268.39 571.96C1268.17 571.587 1268.07 571.181 1268.07 570.744C1268.07 569.933 1268.37 569.309 1268.99 568.872C1269.61 568.435 1270.45 568.216 1271.52 568.216H1273.67V568.12C1273.67 567.427 1273.48 566.904 1273.12 566.552C1272.76 566.189 1272.27 566.008 1271.67 566.008C1271.14 566.008 1270.69 566.141 1270.31 566.408C1269.93 566.664 1269.7 567.043 1269.6 567.544H1268.23C1268.28 566.968 1268.47 566.483 1268.8 566.088C1269.14 565.693 1269.56 565.395 1270.07 565.192C1270.57 564.979 1271.1 564.872 1271.67 564.872C1272.77 564.872 1273.61 565.171 1274.16 565.768C1274.73 566.355 1275.01 567.139 1275.01 568.12V573H1273.81L1273.73 571.576C1273.51 572.024 1273.17 572.408 1272.74 572.728C1272.31 573.037 1271.73 573.192 1271.01 573.192ZM1271.22 572.056C1271.73 572.056 1272.17 571.923 1272.53 571.656C1272.9 571.389 1273.19 571.043 1273.38 570.616C1273.57 570.189 1273.67 569.741 1273.67 569.272V569.256H1271.63C1270.84 569.256 1270.28 569.395 1269.95 569.672C1269.63 569.939 1269.47 570.275 1269.47 570.68C1269.47 571.096 1269.62 571.432 1269.92 571.688C1270.23 571.933 1270.66 572.056 1271.22 572.056ZM1277.84 563.304C1277.58 563.304 1277.35 563.219 1277.17 563.048C1277 562.867 1276.91 562.643 1276.91 562.376C1276.91 562.12 1277 561.907 1277.17 561.736C1277.35 561.565 1277.58 561.48 1277.84 561.48C1278.1 561.48 1278.32 561.565 1278.5 561.736C1278.68 561.907 1278.77 562.12 1278.77 562.376C1278.77 562.643 1278.68 562.867 1278.5 563.048C1278.32 563.219 1278.1 563.304 1277.84 563.304ZM1277.17 573V565.064H1278.51V573H1277.17ZM1284.45 573.192C1283.66 573.192 1282.97 573.011 1282.37 572.648C1281.79 572.285 1281.33 571.789 1281 571.16C1280.68 570.531 1280.52 569.816 1280.52 569.016C1280.52 568.216 1280.68 567.507 1281.01 566.888C1281.34 566.259 1281.8 565.768 1282.39 565.416C1282.98 565.053 1283.67 564.872 1284.47 564.872C1285.12 564.872 1285.7 565.005 1286.2 565.272C1286.7 565.539 1287.09 565.912 1287.37 566.392V561.48H1288.71V573H1287.49L1287.37 571.688C1287.11 572.072 1286.74 572.419 1286.26 572.728C1285.78 573.037 1285.18 573.192 1284.45 573.192ZM1284.6 572.024C1285.13 572.024 1285.6 571.901 1286.01 571.656C1286.42 571.4 1286.74 571.048 1286.97 570.6C1287.2 570.152 1287.32 569.629 1287.32 569.032C1287.32 568.435 1287.2 567.912 1286.97 567.464C1286.74 567.016 1286.42 566.669 1286.01 566.424C1285.6 566.168 1285.13 566.04 1284.6 566.04C1284.08 566.04 1283.61 566.168 1283.19 566.424C1282.78 566.669 1282.46 567.016 1282.23 567.464C1282.01 567.912 1281.89 568.435 1281.89 569.032C1281.89 569.629 1282.01 570.152 1282.23 570.6C1282.46 571.048 1282.78 571.4 1283.19 571.656C1283.61 571.901 1284.08 572.024 1284.6 572.024Z" fill="#1F1F1F"/>
</g>
<g filter="url(#filter1_d_35_380)">
<rect x="568" y="453" width="375" height="180" rx="8" fill="white"/>
<path d="M668.667 544.333V534.665C668.667 534.56 668.646 534.456 668.606 534.359C668.565 534.261 668.506 534.173 668.432 534.099L664.235 529.901C664.085 529.751 663.881 529.667 663.669 529.667H648.133C647.921 529.667 647.718 529.751 647.568 529.901C647.418 530.051 647.333 530.255 647.333 530.467V555.533C647.333 555.746 647.418 555.949 647.568 556.099C647.718 556.249 647.921 556.333 648.133 556.333H660.667" stroke="#1F1F1F" stroke-width="1.5" stroke-linecap="round" stroke-linejoin="round"/>
<path d="M663.333 529.667V534.2C663.333 534.412 663.418 534.616 663.568 534.766C663.718 534.916 663.921 535 664.133 535H668.667M663.333 552.333H671.333M671.333 552.333L667.333 548.333M671.333 552.333L667.333 556.333" stroke="#1F1F1F" stroke-width="1.5" stroke-linecap="round" stroke-linejoin="round"/>
<path d="M714.752 548.192C713.931 548.192 713.216 548.043 712.608 547.744C712 547.445 711.531 547.029 711.2 546.496C710.869 545.963 710.704 545.344 710.704 544.64H712.112C712.112 545.077 712.213 545.483 712.416 545.856C712.619 546.219 712.912 546.512 713.296 546.736C713.691 546.949 714.176 547.056 714.752 547.056C715.509 547.056 716.096 546.875 716.512 546.512C716.928 546.149 717.136 545.696 717.136 545.152C717.136 544.704 717.04 544.347 716.848 544.08C716.656 543.803 716.395 543.579 716.064 543.408C715.744 543.237 715.371 543.088 714.944 542.96C714.528 542.832 714.091 542.688 713.632 542.528C712.768 542.229 712.128 541.861 711.712 541.424C711.296 540.976 711.088 540.395 711.088 539.68C711.077 539.083 711.216 538.555 711.504 538.096C711.792 537.627 712.197 537.264 712.72 537.008C713.253 536.741 713.883 536.608 714.608 536.608C715.323 536.608 715.941 536.741 716.464 537.008C716.997 537.275 717.408 537.643 717.696 538.112C717.995 538.581 718.149 539.115 718.16 539.712H716.752C716.752 539.403 716.672 539.099 716.512 538.8C716.352 538.491 716.107 538.24 715.776 538.048C715.456 537.856 715.051 537.76 714.56 537.76C713.952 537.749 713.451 537.904 713.056 538.224C712.672 538.544 712.48 538.987 712.48 539.552C712.48 540.032 712.613 540.4 712.88 540.656C713.157 540.912 713.541 541.125 714.032 541.296C714.523 541.456 715.088 541.643 715.728 541.856C716.261 542.048 716.741 542.272 717.168 542.528C717.595 542.784 717.925 543.115 718.16 543.52C718.405 543.925 718.528 544.443 718.528 545.072C718.528 545.605 718.389 546.112 718.112 546.592C717.835 547.061 717.413 547.445 716.848 547.744C716.293 548.043 715.595 548.192 714.752 548.192ZM723.25 548.192C722.311 548.192 721.565 547.909 721.01 547.344C720.455 546.768 720.178 545.888 720.178 544.704V540.064H721.522V544.56C721.522 546.213 722.199 547.04 723.554 547.04C724.247 547.04 724.818 546.795 725.266 546.304C725.725 545.803 725.954 545.093 725.954 544.176V540.064H727.298V548H726.082L725.986 546.576C725.741 547.077 725.373 547.472 724.882 547.76C724.402 548.048 723.858 548.192 723.25 548.192ZM733.75 548.192C733.1 548.192 732.518 548.059 732.006 547.792C731.505 547.525 731.121 547.152 730.854 546.672L730.726 548H729.51V536.48H730.854V541.376C731.11 540.992 731.473 540.645 731.942 540.336C732.422 540.027 733.03 539.872 733.766 539.872C734.556 539.872 735.244 540.053 735.83 540.416C736.417 540.779 736.87 541.275 737.19 541.904C737.521 542.533 737.686 543.248 737.686 544.048C737.686 544.848 737.521 545.563 737.19 546.192C736.87 546.811 736.412 547.301 735.814 547.664C735.228 548.016 734.54 548.192 733.75 548.192ZM733.606 547.024C734.14 547.024 734.609 546.901 735.014 546.656C735.42 546.4 735.74 546.048 735.974 545.6C736.209 545.152 736.326 544.629 736.326 544.032C736.326 543.435 736.209 542.912 735.974 542.464C735.74 542.016 735.42 541.669 735.014 541.424C734.609 541.168 734.14 541.04 733.606 541.04C733.073 541.04 732.604 541.168 732.198 541.424C731.793 541.669 731.473 542.016 731.238 542.464C731.004 542.912 730.886 543.435 730.886 544.032C730.886 544.629 731.004 545.152 731.238 545.6C731.473 546.048 731.793 546.4 732.198 546.656C732.604 546.901 733.073 547.024 733.606 547.024ZM739.557 548V540.064H740.773L740.869 541.216C741.125 540.789 741.466 540.459 741.893 540.224C742.32 539.989 742.8 539.872 743.333 539.872C743.962 539.872 744.501 540 744.949 540.256C745.408 540.512 745.76 540.901 746.005 541.424C746.282 540.944 746.661 540.565 747.141 540.288C747.632 540.011 748.16 539.872 748.725 539.872C749.674 539.872 750.432 540.16 750.997 540.736C751.562 541.301 751.845 542.176 751.845 543.36V548H750.517V543.504C750.517 542.683 750.352 542.064 750.021 541.648C749.69 541.232 749.216 541.024 748.597 541.024C747.957 541.024 747.424 541.275 746.997 541.776C746.581 542.267 746.373 542.971 746.373 543.888V548H745.029V543.504C745.029 542.683 744.864 542.064 744.533 541.648C744.202 541.232 743.728 541.024 743.109 541.024C742.48 541.024 741.952 541.275 741.525 541.776C741.109 542.267 740.901 542.971 740.901 543.888V548H739.557ZM754.686 538.304C754.419 538.304 754.195 538.219 754.014 538.048C753.843 537.867 753.758 537.643 753.758 537.376C753.758 537.12 753.843 536.907 754.014 536.736C754.195 536.565 754.419 536.48 754.686 536.48C754.942 536.48 755.16 536.565 755.342 536.736C755.523 536.907 755.614 537.12 755.614 537.376C755.614 537.643 755.523 537.867 755.342 538.048C755.16 538.219 754.942 538.304 754.686 538.304ZM754.014 548V540.064H755.358V548H754.014ZM760.834 548C760.108 548 759.538 547.824 759.122 547.472C758.706 547.12 758.498 546.485 758.498 545.568V541.2H757.122V540.064H758.498L758.674 538.16H759.842V540.064H762.178V541.2H759.842V545.568C759.842 546.069 759.943 546.411 760.146 546.592C760.348 546.763 760.706 546.848 761.218 546.848H762.05V548H760.834ZM773.112 548.192C772.013 548.192 771.064 547.952 770.264 547.472C769.474 546.981 768.861 546.304 768.424 545.44C767.986 544.565 767.768 543.552 767.768 542.4C767.768 541.259 767.986 540.256 768.424 539.392C768.861 538.517 769.474 537.835 770.264 537.344C771.064 536.853 772.013 536.608 773.112 536.608C774.392 536.608 775.432 536.917 776.232 537.536C777.042 538.144 777.56 538.997 777.784 540.096H776.296C776.125 539.403 775.773 538.848 775.24 538.432C774.717 538.005 774.008 537.792 773.112 537.792C772.312 537.792 771.613 537.979 771.016 538.352C770.418 538.715 769.954 539.243 769.624 539.936C769.304 540.619 769.144 541.44 769.144 542.4C769.144 543.36 769.304 544.187 769.624 544.88C769.954 545.563 770.418 546.091 771.016 546.464C771.613 546.827 772.312 547.008 773.112 547.008C774.008 547.008 774.717 546.805 775.24 546.4C775.773 545.984 776.125 545.435 776.296 544.752H777.784C777.56 545.829 777.042 546.672 776.232 547.28C775.432 547.888 774.392 548.192 773.112 548.192ZM783.251 548.192C782.505 548.192 781.833 548.021 781.235 547.68C780.638 547.339 780.163 546.859 779.811 546.24C779.47 545.611 779.299 544.875 779.299 544.032C779.299 543.189 779.475 542.459 779.827 541.84C780.179 541.211 780.654 540.725 781.251 540.384C781.859 540.043 782.537 539.872 783.283 539.872C784.03 539.872 784.702 540.043 785.299 540.384C785.897 540.725 786.366 541.211 786.707 541.84C787.059 542.459 787.235 543.189 787.235 544.032C787.235 544.875 787.059 545.611 786.707 546.24C786.355 546.859 785.875 547.339 785.267 547.68C784.67 548.021 783.998 548.192 783.251 548.192ZM783.251 547.04C783.71 547.04 784.137 546.928 784.531 546.704C784.926 546.48 785.246 546.144 785.491 545.696C785.737 545.248 785.859 544.693 785.859 544.032C785.859 543.371 785.737 542.816 785.491 542.368C785.257 541.92 784.942 541.584 784.547 541.36C784.153 541.136 783.731 541.024 783.283 541.024C782.825 541.024 782.398 541.136 782.003 541.36C781.609 541.584 781.289 541.92 781.043 542.368C780.798 542.816 780.675 543.371 780.675 544.032C780.675 544.693 780.798 545.248 781.043 545.696C781.289 546.144 781.603 546.48 781.987 546.704C782.382 546.928 782.803 547.04 783.251 547.04ZM789.104 548V540.064H790.32L790.4 541.488C790.656 540.987 791.024 540.592 791.504 540.304C791.984 540.016 792.528 539.872 793.136 539.872C794.075 539.872 794.821 540.16 795.376 540.736C795.941 541.301 796.224 542.176 796.224 543.36V548H794.88V543.504C794.88 541.851 794.197 541.024 792.832 541.024C792.149 541.024 791.579 541.275 791.12 541.776C790.672 542.267 790.448 542.971 790.448 543.888V548H789.104ZM801.396 548C800.671 548 800.1 547.824 799.684 547.472C799.268 547.12 799.06 546.485 799.06 545.568V541.2H797.684V540.064H799.06L799.236 538.16H800.404V540.064H802.74V541.2H800.404V545.568C800.404 546.069 800.506 546.411 800.708 546.592C800.911 546.763 801.268 546.848 801.78 546.848H802.612V548H801.396ZM804.448 548V540.064H805.664L805.776 541.584C806.021 541.061 806.394 540.645 806.896 540.336C807.397 540.027 808.016 539.872 808.752 539.872V541.28H808.384C807.914 541.28 807.482 541.365 807.088 541.536C806.693 541.696 806.378 541.973 806.144 542.368C805.909 542.763 805.792 543.307 805.792 544V548H804.448ZM811.076 538.304C810.81 538.304 810.586 538.219 810.404 538.048C810.234 537.867 810.148 537.643 810.148 537.376C810.148 537.12 810.234 536.907 810.404 536.736C810.586 536.565 810.81 536.48 811.076 536.48C811.332 536.48 811.551 536.565 811.732 536.736C811.914 536.907 812.004 537.12 812.004 537.376C812.004 537.643 811.914 537.867 811.732 538.048C811.551 538.219 811.332 538.304 811.076 538.304ZM810.404 548V540.064H811.748V548H810.404ZM818.328 548.192C817.678 548.192 817.096 548.059 816.584 547.792C816.083 547.525 815.699 547.152 815.432 546.672L815.304 548H814.088V536.48H815.432V541.376C815.688 540.992 816.051 540.645 816.52 540.336C817 540.027 817.608 539.872 818.344 539.872C819.134 539.872 819.822 540.053 820.408 540.416C820.995 540.779 821.448 541.275 821.768 541.904C822.099 542.533 822.264 543.248 822.264 544.048C822.264 544.848 822.099 545.563 821.768 546.192C821.448 546.811 820.99 547.301 820.392 547.664C819.806 548.016 819.118 548.192 818.328 548.192ZM818.184 547.024C818.718 547.024 819.187 546.901 819.592 546.656C819.998 546.4 820.318 546.048 820.552 545.6C820.787 545.152 820.904 544.629 820.904 544.032C820.904 543.435 820.787 542.912 820.552 542.464C820.318 542.016 819.998 541.669 819.592 541.424C819.187 541.168 818.718 541.04 818.184 541.04C817.651 541.04 817.182 541.168 816.776 541.424C816.371 541.669 816.051 542.016 815.816 542.464C815.582 542.912 815.464 543.435 815.464 544.032C815.464 544.629 815.582 545.152 815.816 545.6C816.051 546.048 816.371 546.4 816.776 546.656C817.182 546.901 817.651 547.024 818.184 547.024ZM827.031 548.192C826.093 548.192 825.346 547.909 824.791 547.344C824.237 546.768 823.959 545.888 823.959 544.704V540.064H825.303V544.56C825.303 546.213 825.981 547.04 827.335 547.04C828.029 547.04 828.599 546.795 829.047 546.304C829.506 545.803 829.735 545.093 829.735 544.176V540.064H831.079V548H829.863L829.767 546.576C829.522 547.077 829.154 547.472 828.663 547.76C828.183 548.048 827.639 548.192 827.031 548.192ZM836.428 548C835.702 548 835.132 547.824 834.716 547.472C834.3 547.12 834.092 546.485 834.092 545.568V541.2H832.715V540.064H834.092L834.268 538.16H835.436V540.064H837.772V541.2H835.436V545.568C835.436 546.069 835.537 546.411 835.74 546.592C835.942 546.763 836.3 546.848 836.812 546.848H837.644V548H836.428ZM840.295 538.304C840.028 538.304 839.804 538.219 839.623 538.048C839.452 537.867 839.367 537.643 839.367 537.376C839.367 537.12 839.452 536.907 839.623 536.736C839.804 536.565 840.028 536.48 840.295 536.48C840.551 536.48 840.77 536.565 840.951 536.736C841.132 536.907 841.223 537.12 841.223 537.376C841.223 537.643 841.132 537.867 840.951 538.048C840.77 538.219 840.551 538.304 840.295 538.304ZM839.623 548V540.064H840.967V548H839.623ZM846.923 548.192C846.176 548.192 845.504 548.021 844.907 547.68C844.31 547.339 843.835 546.859 843.483 546.24C843.142 545.611 842.971 544.875 842.971 544.032C842.971 543.189 843.147 542.459 843.499 541.84C843.851 541.211 844.326 540.725 844.923 540.384C845.531 540.043 846.208 539.872 846.955 539.872C847.702 539.872 848.374 540.043 848.971 540.384C849.568 540.725 850.038 541.211 850.379 541.84C850.731 542.459 850.907 543.189 850.907 544.032C850.907 544.875 850.731 545.611 850.379 546.24C850.027 546.859 849.547 547.339 848.939 547.68C848.342 548.021 847.67 548.192 846.923 548.192ZM846.923 547.04C847.382 547.04 847.808 546.928 848.203 546.704C848.598 546.48 848.918 546.144 849.163 545.696C849.408 545.248 849.531 544.693 849.531 544.032C849.531 543.371 849.408 542.816 849.163 542.368C848.928 541.92 848.614 541.584 848.219 541.36C847.824 541.136 847.403 541.024 846.955 541.024C846.496 541.024 846.07 541.136 845.675 541.36C845.28 541.584 844.96 541.92 844.715 542.368C844.47 542.816 844.347 543.371 844.347 544.032C844.347 544.693 844.47 545.248 844.715 545.696C844.96 546.144 845.275 546.48 845.659 546.704C846.054 546.928 846.475 547.04 846.923 547.04ZM852.776 548V540.064H853.992L854.072 541.488C854.328 540.987 854.696 540.592 855.176 540.304C855.656 540.016 856.2 539.872 856.808 539.872C857.747 539.872 858.493 540.16 859.048 540.736C859.613 541.301 859.896 542.176 859.896 543.36V548H858.552V543.504C858.552 541.851 857.869 541.024 856.504 541.024C855.821 541.024 855.251 541.275 854.792 541.776C854.344 542.267 854.12 542.971 854.12 543.888V548H852.776ZM864.972 548.192C864.023 548.192 863.233 547.952 862.604 547.472C861.975 546.992 861.607 546.341 861.5 545.52H862.876C862.961 545.936 863.18 546.299 863.532 546.608C863.895 546.907 864.38 547.056 864.988 547.056C865.553 547.056 865.969 546.939 866.236 546.704C866.503 546.459 866.636 546.171 866.636 545.84C866.636 545.36 866.46 545.04 866.108 544.88C865.767 544.72 865.281 544.576 864.652 544.448C864.225 544.363 863.799 544.24 863.372 544.08C862.945 543.92 862.588 543.696 862.3 543.408C862.012 543.109 861.868 542.72 861.868 542.24C861.868 541.547 862.124 540.981 862.636 540.544C863.159 540.096 863.863 539.872 864.748 539.872C865.591 539.872 866.279 540.085 866.812 540.512C867.356 540.928 867.671 541.525 867.756 542.304H866.428C866.375 541.899 866.199 541.584 865.9 541.36C865.612 541.125 865.223 541.008 864.732 541.008C864.252 541.008 863.879 541.109 863.612 541.312C863.356 541.515 863.228 541.781 863.228 542.112C863.228 542.432 863.393 542.683 863.724 542.864C864.065 543.045 864.524 543.2 865.1 543.328C865.591 543.435 866.055 543.568 866.492 543.728C866.94 543.877 867.303 544.107 867.58 544.416C867.868 544.715 868.012 545.152 868.012 545.728C868.023 546.443 867.751 547.035 867.196 547.504C866.652 547.963 865.911 548.192 864.972 548.192Z" fill="#1F1F1F"/>
</g>
<g filter="url(#filter2_d_35_380)">
<rect x="100" y="478" width="375" height="180" rx="8" fill="white"/>
<path d="M169.667 568C169.667 568 173.06 561.333 179 561.333C184.939 561.333 188.333 568 188.333 568C188.333 568 184.939 574.667 179 574.667C173.06 574.667 169.667 568 169.667 568Z" stroke="#1F1F1F" stroke-width="2" stroke-linecap="round" stroke-linejoin="round"/>
<path d="M191 574.667V577.333C191 578.041 190.719 578.719 190.219 579.219C189.719 579.719 189.041 580 188.333 580H169.667C168.959 580 168.281 579.719 167.781 579.219C167.281 578.719 167 578.041 167 577.333V574.667M191 561.333V558.667C191 557.959 190.719 557.281 190.219 556.781C189.719 556.281 189.041 556 188.333 556H169.667C168.959 556 168.281 556.281 167.781 556.781C167.281 557.281 167 557.959 167 558.667V561.333M179 569.333C179.354 569.333 179.693 569.193 179.943 568.943C180.193 568.693 180.333 568.354 180.333 568C180.333 567.646 180.193 567.307 179.943 567.057C179.693 566.807 179.354 566.667 179 566.667C178.646 566.667 178.307 566.807 178.057 567.057C177.807 567.307 177.667 567.646 177.667 568C177.667 568.354 177.807 568.693 178.057 568.943C178.307 569.193 178.646 569.333 179 569.333Z" stroke="#1F1F1F" stroke-width="2" stroke-linecap="round" stroke-linejoin="round"/>
<path d="M235.56 561L231.352 549.8H232.808L236.344 559.576L239.912 549.8H241.336L237.128 561H235.56ZM243.608 551.304C243.341 551.304 243.117 551.219 242.936 551.048C242.765 550.867 242.68 550.643 242.68 550.376C242.68 550.12 242.765 549.907 242.936 549.736C243.117 549.565 243.341 549.48 243.608 549.48C243.864 549.48 244.082 549.565 244.264 549.736C244.445 549.907 244.536 550.12 244.536 550.376C244.536 550.643 244.445 550.867 244.264 551.048C244.082 551.219 243.864 551.304 243.608 551.304ZM242.936 561V553.064H244.28V561H242.936ZM250.188 561.192C249.43 561.192 248.758 561.021 248.172 560.68C247.585 560.328 247.121 559.843 246.78 559.224C246.449 558.605 246.284 557.875 246.284 557.032C246.284 556.2 246.449 555.475 246.78 554.856C247.11 554.227 247.569 553.741 248.156 553.4C248.753 553.048 249.441 552.872 250.22 552.872C250.988 552.872 251.649 553.048 252.204 553.4C252.769 553.741 253.201 554.195 253.5 554.76C253.798 555.325 253.948 555.933 253.948 556.584C253.948 556.701 253.942 556.819 253.932 556.936C253.932 557.053 253.932 557.187 253.932 557.336H247.612C247.644 557.944 247.782 558.451 248.028 558.856C248.284 559.251 248.598 559.549 248.972 559.752C249.356 559.955 249.761 560.056 250.188 560.056C250.742 560.056 251.206 559.928 251.58 559.672C251.953 559.416 252.225 559.069 252.396 558.632H253.724C253.51 559.368 253.1 559.981 252.492 560.472C251.894 560.952 251.126 561.192 250.188 561.192ZM250.188 554.008C249.548 554.008 248.977 554.205 248.476 554.6C247.985 554.984 247.702 555.549 247.628 556.296H252.62C252.588 555.581 252.342 555.021 251.884 554.616C251.425 554.211 250.86 554.008 250.188 554.008ZM257.017 561L254.697 553.064H256.041L257.721 559.288L259.577 553.064H261.097L262.969 559.288L264.633 553.064H265.993L263.673 561H262.297L260.345 554.456L258.393 561H257.017ZM271.089 561L275.217 549.8H276.641L280.753 561H279.329L278.305 558.12H273.537L272.497 561H271.089ZM273.937 557.032H277.905L275.921 551.496L273.937 557.032ZM283.814 561L280.806 553.064H282.214L284.598 559.704L286.998 553.064H288.374L285.366 561H283.814ZM292.103 561.192C291.442 561.192 290.893 561.08 290.455 560.856C290.018 560.632 289.693 560.333 289.479 559.96C289.266 559.587 289.159 559.181 289.159 558.744C289.159 557.933 289.469 557.309 290.087 556.872C290.706 556.435 291.549 556.216 292.615 556.216H294.759V556.12C294.759 555.427 294.578 554.904 294.215 554.552C293.853 554.189 293.367 554.008 292.759 554.008C292.237 554.008 291.783 554.141 291.399 554.408C291.026 554.664 290.791 555.043 290.695 555.544H289.319C289.373 554.968 289.565 554.483 289.895 554.088C290.237 553.693 290.658 553.395 291.159 553.192C291.661 552.979 292.194 552.872 292.759 552.872C293.869 552.872 294.701 553.171 295.255 553.768C295.821 554.355 296.103 555.139 296.103 556.12V561H294.903L294.823 559.576C294.599 560.024 294.269 560.408 293.831 560.728C293.405 561.037 292.829 561.192 292.103 561.192ZM292.311 560.056C292.823 560.056 293.261 559.923 293.623 559.656C293.997 559.389 294.279 559.043 294.471 558.616C294.663 558.189 294.759 557.741 294.759 557.272V557.256H292.727C291.938 557.256 291.378 557.395 291.047 557.672C290.727 557.939 290.567 558.275 290.567 558.68C290.567 559.096 290.717 559.432 291.015 559.688C291.325 559.933 291.757 560.056 292.311 560.056ZM298.936 551.304C298.669 551.304 298.445 551.219 298.264 551.048C298.093 550.867 298.008 550.643 298.008 550.376C298.008 550.12 298.093 549.907 298.264 549.736C298.445 549.565 298.669 549.48 298.936 549.48C299.192 549.48 299.41 549.565 299.592 549.736C299.773 549.907 299.864 550.12 299.864 550.376C299.864 550.643 299.773 550.867 299.592 551.048C299.41 551.219 299.192 551.304 298.936 551.304ZM298.264 561V553.064H299.608V561H298.264ZM301.948 561V549.48H303.292V561H301.948ZM308.135 561.192C307.473 561.192 306.924 561.08 306.487 560.856C306.049 560.632 305.724 560.333 305.511 559.96C305.297 559.587 305.191 559.181 305.191 558.744C305.191 557.933 305.5 557.309 306.119 556.872C306.737 556.435 307.58 556.216 308.647 556.216H310.791V556.12C310.791 555.427 310.609 554.904 310.247 554.552C309.884 554.189 309.399 554.008 308.791 554.008C308.268 554.008 307.815 554.141 307.431 554.408C307.057 554.664 306.823 555.043 306.727 555.544H305.351C305.404 554.968 305.596 554.483 305.927 554.088C306.268 553.693 306.689 553.395 307.191 553.192C307.692 552.979 308.225 552.872 308.791 552.872C309.9 552.872 310.732 553.171 311.287 553.768C311.852 554.355 312.135 555.139 312.135 556.12V561H310.935L310.855 559.576C310.631 560.024 310.3 560.408 309.863 560.728C309.436 561.037 308.86 561.192 308.135 561.192ZM308.343 560.056C308.855 560.056 309.292 559.923 309.655 559.656C310.028 559.389 310.311 559.043 310.503 558.616C310.695 558.189 310.791 557.741 310.791 557.272V557.256H308.759C307.969 557.256 307.409 557.395 307.079 557.672C306.759 557.939 306.599 558.275 306.599 558.68C306.599 559.096 306.748 559.432 307.047 559.688C307.356 559.933 307.788 560.056 308.343 560.056ZM318.391 561.192C317.74 561.192 317.159 561.059 316.647 560.792C316.146 560.525 315.762 560.152 315.495 559.672L315.367 561H314.151V549.48H315.495V554.376C315.751 553.992 316.114 553.645 316.583 553.336C317.063 553.027 317.671 552.872 318.407 552.872C319.196 552.872 319.884 553.053 320.471 553.416C321.058 553.779 321.511 554.275 321.831 554.904C322.162 555.533 322.327 556.248 322.327 557.048C322.327 557.848 322.162 558.563 321.831 559.192C321.511 559.811 321.052 560.301 320.455 560.664C319.868 561.016 319.18 561.192 318.391 561.192ZM318.247 560.024C318.78 560.024 319.25 559.901 319.655 559.656C320.06 559.4 320.38 559.048 320.615 558.6C320.85 558.152 320.967 557.629 320.967 557.032C320.967 556.435 320.85 555.912 320.615 555.464C320.38 555.016 320.06 554.669 319.655 554.424C319.25 554.168 318.78 554.04 318.247 554.04C317.714 554.04 317.244 554.168 316.839 554.424C316.434 554.669 316.114 555.016 315.879 555.464C315.644 555.912 315.527 556.435 315.527 557.032C315.527 557.629 315.644 558.152 315.879 558.6C316.114 559.048 316.434 559.4 316.839 559.656C317.244 559.901 317.714 560.024 318.247 560.024ZM324.198 561V549.48H325.542V561H324.198ZM331.313 561.192C330.555 561.192 329.883 561.021 329.297 560.68C328.71 560.328 328.246 559.843 327.905 559.224C327.574 558.605 327.409 557.875 327.409 557.032C327.409 556.2 327.574 555.475 327.905 554.856C328.235 554.227 328.694 553.741 329.281 553.4C329.878 553.048 330.566 552.872 331.345 552.872C332.113 552.872 332.774 553.048 333.329 553.4C333.894 553.741 334.326 554.195 334.625 554.76C334.923 555.325 335.073 555.933 335.073 556.584C335.073 556.701 335.067 556.819 335.057 556.936C335.057 557.053 335.057 557.187 335.057 557.336H328.737C328.769 557.944 328.907 558.451 329.153 558.856C329.409 559.251 329.723 559.549 330.097 559.752C330.481 559.955 330.886 560.056 331.313 560.056C331.867 560.056 332.331 559.928 332.705 559.672C333.078 559.416 333.35 559.069 333.521 558.632H334.849C334.635 559.368 334.225 559.981 333.617 560.472C333.019 560.952 332.251 561.192 331.313 561.192ZM331.313 554.008C330.673 554.008 330.102 554.205 329.601 554.6C329.11 554.984 328.827 555.549 328.753 556.296H333.745C333.713 555.581 333.467 555.021 333.009 554.616C332.55 554.211 331.985 554.008 331.313 554.008ZM345.328 561.192C344.678 561.192 344.096 561.059 343.584 560.792C343.083 560.525 342.699 560.152 342.432 559.672L342.304 561H341.088V549.48H342.432V554.376C342.688 553.992 343.051 553.645 343.52 553.336C344 553.027 344.608 552.872 345.344 552.872C346.134 552.872 346.822 553.053 347.408 553.416C347.995 553.779 348.448 554.275 348.768 554.904C349.099 555.533 349.264 556.248 349.264 557.048C349.264 557.848 349.099 558.563 348.768 559.192C348.448 559.811 347.99 560.301 347.392 560.664C346.806 561.016 346.118 561.192 345.328 561.192ZM345.184 560.024C345.718 560.024 346.187 559.901 346.592 559.656C346.998 559.4 347.318 559.048 347.552 558.6C347.787 558.152 347.904 557.629 347.904 557.032C347.904 556.435 347.787 555.912 347.552 555.464C347.318 555.016 346.998 554.669 346.592 554.424C346.187 554.168 345.718 554.04 345.184 554.04C344.651 554.04 344.182 554.168 343.776 554.424C343.371 554.669 343.051 555.016 342.816 555.464C342.582 555.912 342.464 556.435 342.464 557.032C342.464 557.629 342.582 558.152 342.816 558.6C343.051 559.048 343.371 559.4 343.776 559.656C344.182 559.901 344.651 560.024 345.184 560.024ZM354.751 561.192C354.005 561.192 353.333 561.021 352.735 560.68C352.138 560.339 351.663 559.859 351.311 559.24C350.97 558.611 350.799 557.875 350.799 557.032C350.799 556.189 350.975 555.459 351.327 554.84C351.679 554.211 352.154 553.725 352.751 553.384C353.359 553.043 354.037 552.872 354.783 552.872C355.53 552.872 356.202 553.043 356.799 553.384C357.397 553.725 357.866 554.211 358.207 554.84C358.559 555.459 358.735 556.189 358.735 557.032C358.735 557.875 358.559 558.611 358.207 559.24C357.855 559.859 357.375 560.339 356.767 560.68C356.17 561.021 355.498 561.192 354.751 561.192ZM354.751 560.04C355.21 560.04 355.637 559.928 356.031 559.704C356.426 559.48 356.746 559.144 356.991 558.696C357.237 558.248 357.359 557.693 357.359 557.032C357.359 556.371 357.237 555.816 356.991 555.368C356.757 554.92 356.442 554.584 356.047 554.36C355.653 554.136 355.231 554.024 354.783 554.024C354.325 554.024 353.898 554.136 353.503 554.36C353.109 554.584 352.789 554.92 352.543 555.368C352.298 555.816 352.175 556.371 352.175 557.032C352.175 557.693 352.298 558.248 352.543 558.696C352.789 559.144 353.103 559.48 353.487 559.704C353.882 559.928 354.303 560.04 354.751 560.04ZM363.5 561.192C362.561 561.192 361.815 560.909 361.26 560.344C360.705 559.768 360.428 558.888 360.428 557.704V553.064H361.772V557.56C361.772 559.213 362.449 560.04 363.804 560.04C364.497 560.04 365.068 559.795 365.516 559.304C365.975 558.803 366.204 558.093 366.204 557.176V553.064H367.548V561H366.332L366.236 559.576C365.991 560.077 365.623 560.472 365.132 560.76C364.652 561.048 364.108 561.192 363.5 561.192ZM369.76 561V553.064H370.976L371.056 554.488C371.312 553.987 371.68 553.592 372.16 553.304C372.64 553.016 373.184 552.872 373.792 552.872C374.731 552.872 375.478 553.16 376.032 553.736C376.598 554.301 376.88 555.176 376.88 556.36V561H375.536V556.504C375.536 554.851 374.854 554.024 373.488 554.024C372.806 554.024 372.235 554.275 371.776 554.776C371.328 555.267 371.104 555.971 371.104 556.888V561H369.76ZM382.053 561C381.327 561 380.757 560.824 380.341 560.472C379.925 560.12 379.717 559.485 379.717 558.568V554.2H378.34V553.064H379.717L379.893 551.16H381.061V553.064H383.397V554.2H381.061V558.568C381.061 559.069 381.162 559.411 381.365 559.592C381.567 559.763 381.925 559.848 382.437 559.848H383.269V561H382.053ZM385.92 551.304C385.653 551.304 385.429 551.219 385.248 551.048C385.077 550.867 384.992 550.643 384.992 550.376C384.992 550.12 385.077 549.907 385.248 549.736C385.429 549.565 385.653 549.48 385.92 549.48C386.176 549.48 386.395 549.565 386.576 549.736C386.757 549.907 386.848 550.12 386.848 550.376C386.848 550.643 386.757 550.867 386.576 551.048C386.395 551.219 386.176 551.304 385.92 551.304ZM385.248 561V553.064H386.592V561H385.248ZM392.5 561.192C391.743 561.192 391.071 561.021 390.484 560.68C389.897 560.328 389.433 559.843 389.092 559.224C388.761 558.605 388.596 557.875 388.596 557.032C388.596 556.2 388.761 555.475 389.092 554.856C389.423 554.227 389.881 553.741 390.468 553.4C391.065 553.048 391.753 552.872 392.532 552.872C393.3 552.872 393.961 553.048 394.516 553.4C395.081 553.741 395.513 554.195 395.812 554.76C396.111 555.325 396.26 555.933 396.26 556.584C396.26 556.701 396.255 556.819 396.244 556.936C396.244 557.053 396.244 557.187 396.244 557.336H389.924C389.956 557.944 390.095 558.451 390.34 558.856C390.596 559.251 390.911 559.549 391.284 559.752C391.668 559.955 392.073 560.056 392.5 560.056C393.055 560.056 393.519 559.928 393.892 559.672C394.265 559.416 394.537 559.069 394.708 558.632H396.036C395.823 559.368 395.412 559.981 394.804 560.472C394.207 560.952 393.439 561.192 392.5 561.192ZM392.5 554.008C391.86 554.008 391.289 554.205 390.788 554.6C390.297 554.984 390.015 555.549 389.94 556.296H394.932C394.9 555.581 394.655 555.021 394.196 554.616C393.737 554.211 393.172 554.008 392.5 554.008ZM401.082 561.192C400.132 561.192 399.343 560.952 398.714 560.472C398.084 559.992 397.716 559.341 397.61 558.52H398.986C399.071 558.936 399.29 559.299 399.642 559.608C400.004 559.907 400.49 560.056 401.098 560.056C401.663 560.056 402.079 559.939 402.346 559.704C402.612 559.459 402.746 559.171 402.746 558.84C402.746 558.36 402.57 558.04 402.218 557.88C401.876 557.72 401.391 557.576 400.762 557.448C400.335 557.363 399.908 557.24 399.482 557.08C399.055 556.92 398.698 556.696 398.41 556.408C398.122 556.109 397.978 555.72 397.978 555.24C397.978 554.547 398.234 553.981 398.746 553.544C399.268 553.096 399.972 552.872 400.858 552.872C401.7 552.872 402.388 553.085 402.922 553.512C403.466 553.928 403.78 554.525 403.866 555.304H402.538C402.484 554.899 402.308 554.584 402.01 554.36C401.722 554.125 401.332 554.008 400.842 554.008C400.362 554.008 399.988 554.109 399.722 554.312C399.466 554.515 399.338 554.781 399.338 555.112C399.338 555.432 399.503 555.683 399.834 555.864C400.175 556.045 400.634 556.2 401.21 556.328C401.7 556.435 402.164 556.568 402.602 556.728C403.05 556.877 403.412 557.107 403.69 557.416C403.978 557.715 404.122 558.152 404.122 558.728C404.132 559.443 403.86 560.035 403.306 560.504C402.762 560.963 402.02 561.192 401.082 561.192ZM405.386 562.52L409.402 548.776H410.73L406.714 562.52H405.386ZM237.096 585.192C235.997 585.192 235.048 584.952 234.248 584.472C233.459 583.981 232.845 583.304 232.408 582.44C231.971 581.565 231.752 580.552 231.752 579.4C231.752 578.259 231.971 577.256 232.408 576.392C232.845 575.517 233.459 574.835 234.248 574.344C235.048 573.853 235.997 573.608 237.096 573.608C238.376 573.608 239.416 573.917 240.216 574.536C241.027 575.144 241.544 575.997 241.768 577.096H240.28C240.109 576.403 239.757 575.848 239.224 575.432C238.701 575.005 237.992 574.792 237.096 574.792C236.296 574.792 235.597 574.979 235 575.352C234.403 575.715 233.939 576.243 233.608 576.936C233.288 577.619 233.128 578.44 233.128 579.4C233.128 580.36 233.288 581.187 233.608 581.88C233.939 582.563 234.403 583.091 235 583.464C235.597 583.827 236.296 584.008 237.096 584.008C237.992 584.008 238.701 583.805 239.224 583.4C239.757 582.984 240.109 582.435 240.28 581.752H241.768C241.544 582.829 241.027 583.672 240.216 584.28C239.416 584.888 238.376 585.192 237.096 585.192ZM243.62 585V577.064H244.836L244.948 578.584C245.193 578.061 245.566 577.645 246.068 577.336C246.569 577.027 247.188 576.872 247.924 576.872V578.28H247.556C247.086 578.28 246.654 578.365 246.26 578.536C245.865 578.696 245.55 578.973 245.316 579.368C245.081 579.763 244.964 580.307 244.964 581V585H243.62ZM252.703 585.192C251.946 585.192 251.274 585.021 250.687 584.68C250.101 584.328 249.637 583.843 249.295 583.224C248.965 582.605 248.799 581.875 248.799 581.032C248.799 580.2 248.965 579.475 249.295 578.856C249.626 578.227 250.085 577.741 250.671 577.4C251.269 577.048 251.957 576.872 252.735 576.872C253.503 576.872 254.165 577.048 254.719 577.4C255.285 577.741 255.717 578.195 256.015 578.76C256.314 579.325 256.463 579.933 256.463 580.584C256.463 580.701 256.458 580.819 256.447 580.936C256.447 581.053 256.447 581.187 256.447 581.336H250.127C250.159 581.944 250.298 582.451 250.543 582.856C250.799 583.251 251.114 583.549 251.487 583.752C251.871 583.955 252.277 584.056 252.703 584.056C253.258 584.056 253.722 583.928 254.095 583.672C254.469 583.416 254.741 583.069 254.911 582.632H256.239C256.026 583.368 255.615 583.981 255.007 584.472C254.41 584.952 253.642 585.192 252.703 585.192ZM252.703 578.008C252.063 578.008 251.493 578.205 250.991 578.6C250.501 578.984 250.218 579.549 250.143 580.296H255.135C255.103 579.581 254.858 579.021 254.399 578.616C253.941 578.211 253.375 578.008 252.703 578.008ZM260.885 585.192C260.223 585.192 259.674 585.08 259.237 584.856C258.799 584.632 258.474 584.333 258.261 583.96C258.047 583.587 257.941 583.181 257.941 582.744C257.941 581.933 258.25 581.309 258.869 580.872C259.487 580.435 260.33 580.216 261.397 580.216H263.541V580.12C263.541 579.427 263.359 578.904 262.997 578.552C262.634 578.189 262.149 578.008 261.541 578.008C261.018 578.008 260.565 578.141 260.181 578.408C259.807 578.664 259.573 579.043 259.477 579.544H258.101C258.154 578.968 258.346 578.483 258.677 578.088C259.018 577.693 259.439 577.395 259.941 577.192C260.442 576.979 260.975 576.872 261.541 576.872C262.65 576.872 263.482 577.171 264.037 577.768C264.602 578.355 264.885 579.139 264.885 580.12V585H263.685L263.605 583.576C263.381 584.024 263.05 584.408 262.613 584.728C262.186 585.037 261.61 585.192 260.885 585.192ZM261.093 584.056C261.605 584.056 262.042 583.923 262.405 583.656C262.778 583.389 263.061 583.043 263.253 582.616C263.445 582.189 263.541 581.741 263.541 581.272V581.256H261.509C260.719 581.256 260.159 581.395 259.829 581.672C259.509 581.939 259.349 582.275 259.349 582.68C259.349 583.096 259.498 583.432 259.797 583.688C260.106 583.933 260.538 584.056 261.093 584.056ZM269.818 585C269.093 585 268.522 584.824 268.106 584.472C267.69 584.12 267.482 583.485 267.482 582.568V578.2H266.106V577.064H267.482L267.658 575.16H268.826V577.064H271.162V578.2H268.826V582.568C268.826 583.069 268.927 583.411 269.13 583.592C269.333 583.763 269.69 583.848 270.202 583.848H271.034V585H269.818ZM276.219 585.192C275.462 585.192 274.79 585.021 274.203 584.68C273.616 584.328 273.152 583.843 272.811 583.224C272.48 582.605 272.315 581.875 272.315 581.032C272.315 580.2 272.48 579.475 272.811 578.856C273.142 578.227 273.6 577.741 274.187 577.4C274.784 577.048 275.472 576.872 276.251 576.872C277.019 576.872 277.68 577.048 278.235 577.4C278.8 577.741 279.232 578.195 279.531 578.76C279.83 579.325 279.979 579.933 279.979 580.584C279.979 580.701 279.974 580.819 279.963 580.936C279.963 581.053 279.963 581.187 279.963 581.336H273.643C273.675 581.944 273.814 582.451 274.059 582.856C274.315 583.251 274.63 583.549 275.003 583.752C275.387 583.955 275.792 584.056 276.219 584.056C276.774 584.056 277.238 583.928 277.611 583.672C277.984 583.416 278.256 583.069 278.427 582.632H279.755C279.542 583.368 279.131 583.981 278.523 584.472C277.926 584.952 277.158 585.192 276.219 585.192ZM276.219 578.008C275.579 578.008 275.008 578.205 274.507 578.6C274.016 578.984 273.734 579.549 273.659 580.296H278.651C278.619 579.581 278.374 579.021 277.915 578.616C277.456 578.211 276.891 578.008 276.219 578.008ZM290.235 585.192C289.584 585.192 289.003 585.059 288.491 584.792C287.989 584.525 287.605 584.152 287.339 583.672L287.211 585H285.995V573.48H287.339V578.376C287.595 577.992 287.957 577.645 288.427 577.336C288.907 577.027 289.515 576.872 290.251 576.872C291.04 576.872 291.728 577.053 292.315 577.416C292.901 577.779 293.355 578.275 293.675 578.904C294.005 579.533 294.171 580.248 294.171 581.048C294.171 581.848 294.005 582.563 293.675 583.192C293.355 583.811 292.896 584.301 292.299 584.664C291.712 585.016 291.024 585.192 290.235 585.192ZM290.091 584.024C290.624 584.024 291.093 583.901 291.499 583.656C291.904 583.4 292.224 583.048 292.459 582.6C292.693 582.152 292.811 581.629 292.811 581.032C292.811 580.435 292.693 579.912 292.459 579.464C292.224 579.016 291.904 578.669 291.499 578.424C291.093 578.168 290.624 578.04 290.091 578.04C289.557 578.04 289.088 578.168 288.683 578.424C288.277 578.669 287.957 579.016 287.723 579.464C287.488 579.912 287.371 580.435 287.371 581.032C287.371 581.629 287.488 582.152 287.723 582.6C287.957 583.048 288.277 583.4 288.683 583.656C289.088 583.901 289.557 584.024 290.091 584.024ZM299.658 585.192C298.911 585.192 298.239 585.021 297.642 584.68C297.044 584.339 296.57 583.859 296.218 583.24C295.876 582.611 295.706 581.875 295.706 581.032C295.706 580.189 295.882 579.459 296.234 578.84C296.586 578.211 297.06 577.725 297.658 577.384C298.266 577.043 298.943 576.872 299.69 576.872C300.436 576.872 301.108 577.043 301.706 577.384C302.303 577.725 302.772 578.211 303.114 578.84C303.466 579.459 303.642 580.189 303.642 581.032C303.642 581.875 303.466 582.611 303.114 583.24C302.762 583.859 302.282 584.339 301.674 584.68C301.076 585.021 300.404 585.192 299.658 585.192ZM299.658 584.04C300.116 584.04 300.543 583.928 300.938 583.704C301.332 583.48 301.652 583.144 301.898 582.696C302.143 582.248 302.266 581.693 302.266 581.032C302.266 580.371 302.143 579.816 301.898 579.368C301.663 578.92 301.348 578.584 300.954 578.36C300.559 578.136 300.138 578.024 299.69 578.024C299.231 578.024 298.804 578.136 298.41 578.36C298.015 578.584 297.695 578.92 297.45 579.368C297.204 579.816 297.082 580.371 297.082 581.032C297.082 581.693 297.204 582.248 297.45 582.696C297.695 583.144 298.01 583.48 298.394 583.704C298.788 583.928 299.21 584.04 299.658 584.04ZM308.406 585.192C307.468 585.192 306.721 584.909 306.166 584.344C305.612 583.768 305.334 582.888 305.334 581.704V577.064H306.678V581.56C306.678 583.213 307.356 584.04 308.71 584.04C309.404 584.04 309.974 583.795 310.422 583.304C310.881 582.803 311.11 582.093 311.11 581.176V577.064H312.454V585H311.238L311.142 583.576C310.897 584.077 310.529 584.472 310.038 584.76C309.558 585.048 309.014 585.192 308.406 585.192ZM314.667 585V577.064H315.883L315.963 578.488C316.219 577.987 316.587 577.592 317.067 577.304C317.547 577.016 318.091 576.872 318.699 576.872C319.637 576.872 320.384 577.16 320.939 577.736C321.504 578.301 321.786 579.176 321.786 580.36V585H320.443V580.504C320.443 578.851 319.76 578.024 318.395 578.024C317.712 578.024 317.141 578.275 316.683 578.776C316.235 579.267 316.011 579.971 316.011 580.888V585H314.667ZM326.959 585C326.233 585 325.663 584.824 325.247 584.472C324.831 584.12 324.623 583.485 324.623 582.568V578.2H323.247V577.064H324.623L324.799 575.16H325.967V577.064H328.303V578.2H325.967V582.568C325.967 583.069 326.068 583.411 326.271 583.592C326.473 583.763 326.831 583.848 327.343 583.848H328.175V585H326.959ZM330.874 588.52L332.842 584.232H332.378L329.226 577.064H330.682L333.306 583.24L336.09 577.064H337.482L332.282 588.52H330.874ZM346.175 585.192C345.226 585.192 344.437 584.952 343.807 584.472C343.178 583.992 342.81 583.341 342.703 582.52H344.079C344.165 582.936 344.383 583.299 344.735 583.608C345.098 583.907 345.583 584.056 346.191 584.056C346.757 584.056 347.173 583.939 347.439 583.704C347.706 583.459 347.839 583.171 347.839 582.84C347.839 582.36 347.663 582.04 347.311 581.88C346.97 581.72 346.485 581.576 345.855 581.448C345.429 581.363 345.002 581.24 344.575 581.08C344.149 580.92 343.791 580.696 343.503 580.408C343.215 580.109 343.071 579.72 343.071 579.24C343.071 578.547 343.327 577.981 343.839 577.544C344.362 577.096 345.066 576.872 345.951 576.872C346.794 576.872 347.482 577.085 348.015 577.512C348.559 577.928 348.874 578.525 348.959 579.304H347.631C347.578 578.899 347.402 578.584 347.103 578.36C346.815 578.125 346.426 578.008 345.935 578.008C345.455 578.008 345.082 578.109 344.815 578.312C344.559 578.515 344.431 578.781 344.431 579.112C344.431 579.432 344.597 579.683 344.927 579.864C345.269 580.045 345.727 580.2 346.303 580.328C346.794 580.435 347.258 580.568 347.695 580.728C348.143 580.877 348.506 581.107 348.783 581.416C349.071 581.715 349.215 582.152 349.215 582.728C349.226 583.443 348.954 584.035 348.399 584.504C347.855 584.963 347.114 585.192 346.175 585.192ZM351.135 588.52V577.064H352.351L352.479 578.376C352.735 577.992 353.098 577.645 353.567 577.336C354.047 577.027 354.655 576.872 355.391 576.872C356.181 576.872 356.869 577.053 357.455 577.416C358.042 577.779 358.495 578.275 358.815 578.904C359.146 579.533 359.311 580.248 359.311 581.048C359.311 581.848 359.146 582.563 358.815 583.192C358.495 583.811 358.037 584.301 357.439 584.664C356.853 585.016 356.165 585.192 355.375 585.192C354.725 585.192 354.143 585.059 353.631 584.792C353.13 584.525 352.746 584.152 352.479 583.672V588.52H351.135ZM355.231 584.024C355.765 584.024 356.234 583.901 356.639 583.656C357.045 583.4 357.365 583.048 357.599 582.6C357.834 582.152 357.951 581.629 357.951 581.032C357.951 580.435 357.834 579.912 357.599 579.464C357.365 579.016 357.045 578.669 356.639 578.424C356.234 578.168 355.765 578.04 355.231 578.04C354.698 578.04 354.229 578.168 353.823 578.424C353.418 578.669 353.098 579.016 352.863 579.464C352.629 579.912 352.511 580.435 352.511 581.032C352.511 581.629 352.629 582.152 352.863 582.6C353.098 583.048 353.418 583.4 353.823 583.656C354.229 583.901 354.698 584.024 355.231 584.024ZM363.822 585.192C363.161 585.192 362.611 585.08 362.174 584.856C361.737 584.632 361.411 584.333 361.198 583.96C360.985 583.587 360.878 583.181 360.878 582.744C360.878 581.933 361.187 581.309 361.806 580.872C362.425 580.435 363.267 580.216 364.334 580.216H366.478V580.12C366.478 579.427 366.297 578.904 365.934 578.552C365.571 578.189 365.086 578.008 364.478 578.008C363.955 578.008 363.502 578.141 363.118 578.408C362.745 578.664 362.51 579.043 362.414 579.544H361.038C361.091 578.968 361.283 578.483 361.614 578.088C361.955 577.693 362.377 577.395 362.878 577.192C363.379 576.979 363.913 576.872 364.478 576.872C365.587 576.872 366.419 577.171 366.974 577.768C367.539 578.355 367.822 579.139 367.822 580.12V585H366.622L366.542 583.576C366.318 584.024 365.987 584.408 365.55 584.728C365.123 585.037 364.547 585.192 363.822 585.192ZM364.03 584.056C364.542 584.056 364.979 583.923 365.342 583.656C365.715 583.389 365.998 583.043 366.19 582.616C366.382 582.189 366.478 581.741 366.478 581.272V581.256H364.446C363.657 581.256 363.097 581.395 362.766 581.672C362.446 581.939 362.286 582.275 362.286 582.68C362.286 583.096 362.435 583.432 362.734 583.688C363.043 583.933 363.475 584.056 364.03 584.056ZM373.486 585.192C372.729 585.192 372.046 585.021 371.438 584.68C370.841 584.328 370.366 583.843 370.014 583.224C369.673 582.595 369.502 581.864 369.502 581.032C369.502 580.2 369.673 579.475 370.014 578.856C370.366 578.227 370.841 577.741 371.438 577.4C372.046 577.048 372.729 576.872 373.486 576.872C374.425 576.872 375.214 577.117 375.854 577.608C376.505 578.099 376.916 578.755 377.086 579.576H375.71C375.604 579.085 375.342 578.707 374.926 578.44C374.51 578.163 374.025 578.024 373.47 578.024C373.022 578.024 372.601 578.136 372.206 578.36C371.812 578.584 371.492 578.92 371.246 579.368C371.001 579.816 370.878 580.371 370.878 581.032C370.878 581.693 371.001 582.248 371.246 582.696C371.492 583.144 371.812 583.485 372.206 583.72C372.601 583.944 373.022 584.056 373.47 584.056C374.025 584.056 374.51 583.923 374.926 583.656C375.342 583.379 375.604 582.989 375.71 582.488H377.086C376.926 583.288 376.521 583.939 375.87 584.44C375.22 584.941 374.425 585.192 373.486 585.192ZM382.531 585.192C381.774 585.192 381.102 585.021 380.515 584.68C379.929 584.328 379.465 583.843 379.123 583.224C378.793 582.605 378.627 581.875 378.627 581.032C378.627 580.2 378.793 579.475 379.123 578.856C379.454 578.227 379.913 577.741 380.499 577.4C381.097 577.048 381.785 576.872 382.563 576.872C383.331 576.872 383.993 577.048 384.547 577.4C385.113 577.741 385.545 578.195 385.843 578.76C386.142 579.325 386.291 579.933 386.291 580.584C386.291 580.701 386.286 580.819 386.275 580.936C386.275 581.053 386.275 581.187 386.275 581.336H379.955C379.987 581.944 380.126 582.451 380.371 582.856C380.627 583.251 380.942 583.549 381.315 583.752C381.699 583.955 382.105 584.056 382.531 584.056C383.086 584.056 383.55 583.928 383.923 583.672C384.297 583.416 384.569 583.069 384.739 582.632H386.067C385.854 583.368 385.443 583.981 384.835 584.472C384.238 584.952 383.47 585.192 382.531 585.192ZM382.531 578.008C381.891 578.008 381.321 578.205 380.819 578.6C380.329 578.984 380.046 579.549 379.971 580.296H384.963C384.931 579.581 384.686 579.021 384.227 578.616C383.769 578.211 383.203 578.008 382.531 578.008Z" fill="#1F1F1F"/>
</g>
<defs>
<filter id="filter0_d_35_380" x="1033" y="478" width="383" height="188" filterUnits="userSpaceOnUse" color-interpolation-filters="sRGB">
<feFlood flood-opacity="0" result="BackgroundImageFix"/>
<feColorMatrix in="SourceAlpha" type="matrix" values="0 0 0 0 0 0 0 0 0 0 0 0 0 0 0 0 0 0 127 0" result="hardAlpha"/>
<feOffset dy="4"/>
<feGaussianBlur stdDeviation="2"/>
<feComposite in2="hardAlpha" operator="out"/>
<feColorMatrix type="matrix" values="0 0 0 0 0 0 0 0 0 0 0 0 0 0 0 0 0 0 0.2 0"/>
<feBlend mode="normal" in2="BackgroundImageFix" result="effect1_dropShadow_35_380"/>
<feBlend mode="normal" in="SourceGraphic" in2="effect1_dropShadow_35_380" result="shape"/>
</filter>
<filter id="filter1_d_35_380" x="564" y="453" width="383" height="188" filterUnits="userSpaceOnUse" color-interpolation-filters="sRGB">
<feFlood flood-opacity="0" result="BackgroundImageFix"/>
<feColorMatrix in="SourceAlpha" type="matrix" values="0 0 0 0 0 0 0 0 0 0 0 0 0 0 0 0 0 0 127 0" result="hardAlpha"/>
<feOffset dy="4"/>
<feGaussianBlur stdDeviation="2"/>
<feComposite in2="hardAlpha" operator="out"/>
<feColorMatrix type="matrix" values="0 0 0 0 0 0 0 0 0 0 0 0 0 0 0 0 0 0 0.2 0"/>
<feBlend mode="normal" in2="BackgroundImageFix" result="effect1_dropShadow_35_380"/>
<feBlend mode="normal" in="SourceGraphic" in2="effect1_dropShadow_35_380" result="shape"/>
</filter>
<filter id="filter2_d_35_380" x="96" y="478" width="383" height="188" filterUnits="userSpaceOnUse" color-interpolation-filters="sRGB">
<feFlood flood-opacity="0" result="BackgroundImageFix"/>
<feColorMatrix in="SourceAlpha" type="matrix" values="0 0 0 0 0 0 0 0 0 0 0 0 0 0 0 0 0 0 127 0" result="hardAlpha"/>
<feOffset dy="4"/>
<feGaussianBlur stdDeviation="2"/>
<feComposite in2="hardAlpha" operator="out"/>
<feColorMatrix type="matrix" values="0 0 0 0 0 0 0 0 0 0 0 0 0 0 0 0 0 0 0.2 0"/>
<feBlend mode="normal" in2="BackgroundImageFix" result="effect1_dropShadow_35_380"/>
<feBlend mode="normal" in="SourceGraphic" in2="effect1_dropShadow_35_380" result="shape"/>
</filter>
<clipPath id="clip0_35_380">
<rect width="324" height="925" fill="white" transform="translate(594)"/>
</clipPath>
</defs>
</svg>
