<svg width="1512" height="995" viewBox="0 0 1512 995" fill="none" xmlns="http://www.w3.org/2000/svg">
<rect width="1512" height="925" fill="#141414"/>
<g clip-path="url(#clip0_35_163)">
<rect width="324" height="925" transform="translate(594 70)" fill="#1F1F1F"/>
<line x1="756.5" y1="69.9989" x2="756.5" y2="993.999" stroke="url(#paint0_linear_35_163)"/>
</g>
<line x1="638.5" y1="385.067" x2="638.5" y2="251.067" stroke="url(#paint1_linear_35_163)"/>
<line x1="294.5" y1="829" x2="294.5" y2="729" stroke="url(#paint2_linear_35_163)"/>
<line x1="639.002" y1="249.375" x2="43.002" y2="249.375" stroke="url(#paint3_linear_35_163)"/>
<line x1="42" y1="248" x2="42" y2="829" stroke="url(#paint4_linear_35_163)" stroke-width="2"/>
<line x1="297" y1="829.5" x2="43" y2="829.5" stroke="url(#paint5_linear_35_163)"/>
<line x1="875.5" y1="383" x2="875.5" y2="249" stroke="url(#paint6_linear_35_163)"/>
<line x1="1217.5" y1="829" x2="1217.5" y2="729" stroke="url(#paint7_linear_35_163)"/>
<line x1="1472" y1="248.5" x2="876" y2="248.5" stroke="url(#paint8_linear_35_163)"/>
<line x1="1472" y1="829.5" x2="1218" y2="829.5" stroke="url(#paint9_linear_35_163)"/>
<line x1="1472.5" y1="248" x2="1472.5" y2="829" stroke="url(#paint10_linear_35_163)"/>
<path d="M608.264 479V445.4H614.408V459.368H629.48V445.4H635.624V479H629.48V464.36H614.408V479H608.264ZM653.435 479.576C651.131 479.576 649.051 479.048 647.195 477.992C645.371 476.936 643.915 475.48 642.827 473.624C641.771 471.736 641.243 469.56 641.243 467.096C641.243 464.632 641.787 462.472 642.875 460.616C643.963 458.728 645.419 457.256 647.243 456.2C649.099 455.144 651.179 454.616 653.483 454.616C655.755 454.616 657.803 455.144 659.627 456.2C661.483 457.256 662.939 458.728 663.995 460.616C665.083 462.472 665.627 464.632 665.627 467.096C665.627 469.56 665.083 471.736 663.995 473.624C662.939 475.48 661.483 476.936 659.627 477.992C657.771 479.048 655.707 479.576 653.435 479.576ZM653.435 474.248C655.035 474.248 656.427 473.656 657.611 472.472C658.795 471.256 659.387 469.464 659.387 467.096C659.387 464.728 658.795 462.952 657.611 461.768C656.427 460.552 655.051 459.944 653.483 459.944C651.851 459.944 650.443 460.552 649.259 461.768C648.107 462.952 647.531 464.728 647.531 467.096C647.531 469.464 648.107 471.256 649.259 472.472C650.443 473.656 651.835 474.248 653.435 474.248ZM674.932 479L667.972 455.192H674.068L678.196 472.328L682.996 455.192H689.812L694.612 472.328L698.788 455.192H704.884L697.876 479H691.492L686.404 461.192L681.316 479H674.932ZM720.342 479V445.4H726.486V479H720.342ZM743.462 479C740.966 479 738.966 478.392 737.462 477.176C735.958 475.96 735.206 473.8 735.206 470.696V460.328H731.126V455.192H735.206L735.926 448.808H741.35V455.192H747.782V460.328H741.35V470.744C741.35 471.896 741.59 472.696 742.07 473.144C742.582 473.56 743.446 473.768 744.662 473.768H747.638V479H743.462ZM771.455 479L762.575 445.4H769.151L775.199 472.136L782.303 445.4H789.071L795.983 472.136L802.031 445.4H808.655L799.535 479H792.239L785.567 454.088L778.703 479H771.455ZM821.857 479.576C819.553 479.576 817.473 479.048 815.617 477.992C813.793 476.936 812.337 475.48 811.249 473.624C810.193 471.736 809.665 469.56 809.665 467.096C809.665 464.632 810.209 462.472 811.297 460.616C812.385 458.728 813.841 457.256 815.665 456.2C817.521 455.144 819.601 454.616 821.905 454.616C824.177 454.616 826.225 455.144 828.049 456.2C829.905 457.256 831.361 458.728 832.417 460.616C833.505 462.472 834.049 464.632 834.049 467.096C834.049 469.56 833.505 471.736 832.417 473.624C831.361 475.48 829.905 476.936 828.049 477.992C826.193 479.048 824.129 479.576 821.857 479.576ZM821.857 474.248C823.457 474.248 824.849 473.656 826.033 472.472C827.217 471.256 827.809 469.464 827.809 467.096C827.809 464.728 827.217 462.952 826.033 461.768C824.849 460.552 823.473 459.944 821.905 459.944C820.273 459.944 818.865 460.552 817.681 461.768C816.529 462.952 815.953 464.728 815.953 467.096C815.953 469.464 816.529 471.256 817.681 472.472C818.865 473.656 820.257 474.248 821.857 474.248ZM839.542 479V455.192H845.014L845.59 459.656C846.454 458.12 847.622 456.904 849.094 456.008C850.598 455.08 852.358 454.616 854.374 454.616V461.096H852.646C851.302 461.096 850.102 461.304 849.046 461.72C847.99 462.136 847.158 462.856 846.55 463.88C845.974 464.904 845.686 466.328 845.686 468.152V479H839.542ZM858.573 479V444.44H864.717V464.84L873.165 455.192H880.461L870.717 466.04L882.045 479H874.365L864.717 467.048V479H858.573ZM894.523 479.576C892.411 479.576 890.555 479.24 888.955 478.568C887.355 477.864 886.075 476.904 885.115 475.688C884.155 474.472 883.579 473.064 883.387 471.464H889.579C889.771 472.392 890.283 473.192 891.115 473.864C891.979 474.504 893.083 474.824 894.427 474.824C895.771 474.824 896.747 474.552 897.355 474.008C897.995 473.464 898.315 472.84 898.315 472.136C898.315 471.112 897.867 470.424 896.971 470.072C896.075 469.688 894.827 469.32 893.227 468.968C892.203 468.744 891.163 468.472 890.107 468.152C889.051 467.832 888.075 467.432 887.179 466.952C886.315 466.44 885.611 465.8 885.067 465.032C884.523 464.232 884.251 463.256 884.251 462.104C884.251 459.992 885.083 458.216 886.747 456.776C888.443 455.336 890.811 454.616 893.851 454.616C896.667 454.616 898.907 455.272 900.571 456.584C902.267 457.896 903.275 459.704 903.595 462.008H897.787C897.435 460.248 896.107 459.368 893.803 459.368C892.651 459.368 891.755 459.592 891.115 460.04C890.507 460.488 890.203 461.048 890.203 461.72C890.203 462.424 890.667 462.984 891.595 463.4C892.523 463.816 893.755 464.2 895.291 464.552C896.955 464.936 898.475 465.368 899.851 465.848C901.259 466.296 902.379 466.984 903.211 467.912C904.043 468.808 904.459 470.104 904.459 471.8C904.491 473.272 904.107 474.6 903.307 475.784C902.507 476.968 901.355 477.896 899.851 478.568C898.347 479.24 896.571 479.576 894.523 479.576Z" fill="white"/>
<rect x="568" y="523" width="375" height="180" rx="8" fill="#1F1F1F"/>
<path d="M668.667 614.333V604.665C668.667 604.56 668.646 604.456 668.606 604.359C668.566 604.261 668.507 604.173 668.432 604.099L664.235 599.901C664.085 599.751 663.881 599.667 663.669 599.667H648.133C647.921 599.667 647.718 599.751 647.568 599.901C647.418 600.051 647.333 600.254 647.333 600.467V625.533C647.333 625.746 647.418 625.949 647.568 626.099C647.718 626.249 647.921 626.333 648.133 626.333H660.667" stroke="#02EC88" stroke-width="1.5" stroke-linecap="round" stroke-linejoin="round"/>
<path d="M663.333 599.667V604.2C663.333 604.412 663.418 604.616 663.568 604.766C663.718 604.916 663.921 605 664.133 605H668.667M663.333 622.333H671.333M671.333 622.333L667.333 618.333M671.333 622.333L667.333 626.333" stroke="#02EC88" stroke-width="1.5" stroke-linecap="round" stroke-linejoin="round"/>
<path d="M714.752 618.192C713.931 618.192 713.216 618.043 712.608 617.744C712 617.445 711.531 617.029 711.2 616.496C710.869 615.963 710.704 615.344 710.704 614.64H712.112C712.112 615.077 712.213 615.483 712.416 615.856C712.619 616.219 712.912 616.512 713.296 616.736C713.691 616.949 714.176 617.056 714.752 617.056C715.509 617.056 716.096 616.875 716.512 616.512C716.928 616.149 717.136 615.696 717.136 615.152C717.136 614.704 717.04 614.347 716.848 614.08C716.656 613.803 716.395 613.579 716.064 613.408C715.744 613.237 715.371 613.088 714.944 612.96C714.528 612.832 714.091 612.688 713.632 612.528C712.768 612.229 712.128 611.861 711.712 611.424C711.296 610.976 711.088 610.395 711.088 609.68C711.077 609.083 711.216 608.555 711.504 608.096C711.792 607.627 712.197 607.264 712.72 607.008C713.253 606.741 713.883 606.608 714.608 606.608C715.323 606.608 715.941 606.741 716.464 607.008C716.997 607.275 717.408 607.643 717.696 608.112C717.995 608.581 718.149 609.115 718.16 609.712H716.752C716.752 609.403 716.672 609.099 716.512 608.8C716.352 608.491 716.107 608.24 715.776 608.048C715.456 607.856 715.051 607.76 714.56 607.76C713.952 607.749 713.451 607.904 713.056 608.224C712.672 608.544 712.48 608.987 712.48 609.552C712.48 610.032 712.613 610.4 712.88 610.656C713.157 610.912 713.541 611.125 714.032 611.296C714.523 611.456 715.088 611.643 715.728 611.856C716.261 612.048 716.741 612.272 717.168 612.528C717.595 612.784 717.925 613.115 718.16 613.52C718.405 613.925 718.528 614.443 718.528 615.072C718.528 615.605 718.389 616.112 718.112 616.592C717.835 617.061 717.413 617.445 716.848 617.744C716.293 618.043 715.595 618.192 714.752 618.192ZM723.25 618.192C722.311 618.192 721.565 617.909 721.01 617.344C720.455 616.768 720.178 615.888 720.178 614.704V610.064H721.522V614.56C721.522 616.213 722.199 617.04 723.554 617.04C724.247 617.04 724.818 616.795 725.266 616.304C725.725 615.803 725.954 615.093 725.954 614.176V610.064H727.298V618H726.082L725.986 616.576C725.741 617.077 725.373 617.472 724.882 617.76C724.402 618.048 723.858 618.192 723.25 618.192ZM733.75 618.192C733.1 618.192 732.518 618.059 732.006 617.792C731.505 617.525 731.121 617.152 730.854 616.672L730.726 618H729.51V606.48H730.854V611.376C731.11 610.992 731.473 610.645 731.942 610.336C732.422 610.027 733.03 609.872 733.766 609.872C734.556 609.872 735.244 610.053 735.83 610.416C736.417 610.779 736.87 611.275 737.19 611.904C737.521 612.533 737.686 613.248 737.686 614.048C737.686 614.848 737.521 615.563 737.19 616.192C736.87 616.811 736.412 617.301 735.814 617.664C735.228 618.016 734.54 618.192 733.75 618.192ZM733.606 617.024C734.14 617.024 734.609 616.901 735.014 616.656C735.42 616.4 735.74 616.048 735.974 615.6C736.209 615.152 736.326 614.629 736.326 614.032C736.326 613.435 736.209 612.912 735.974 612.464C735.74 612.016 735.42 611.669 735.014 611.424C734.609 611.168 734.14 611.04 733.606 611.04C733.073 611.04 732.604 611.168 732.198 611.424C731.793 611.669 731.473 612.016 731.238 612.464C731.004 612.912 730.886 613.435 730.886 614.032C730.886 614.629 731.004 615.152 731.238 615.6C731.473 616.048 731.793 616.4 732.198 616.656C732.604 616.901 733.073 617.024 733.606 617.024ZM739.557 618V610.064H740.773L740.869 611.216C741.125 610.789 741.466 610.459 741.893 610.224C742.32 609.989 742.8 609.872 743.333 609.872C743.962 609.872 744.501 610 744.949 610.256C745.408 610.512 745.76 610.901 746.005 611.424C746.282 610.944 746.661 610.565 747.141 610.288C747.632 610.011 748.16 609.872 748.725 609.872C749.674 609.872 750.432 610.16 750.997 610.736C751.562 611.301 751.845 612.176 751.845 613.36V618H750.517V613.504C750.517 612.683 750.352 612.064 750.021 611.648C749.69 611.232 749.216 611.024 748.597 611.024C747.957 611.024 747.424 611.275 746.997 611.776C746.581 612.267 746.373 612.971 746.373 613.888V618H745.029V613.504C745.029 612.683 744.864 612.064 744.533 611.648C744.202 611.232 743.728 611.024 743.109 611.024C742.48 611.024 741.952 611.275 741.525 611.776C741.109 612.267 740.901 612.971 740.901 613.888V618H739.557ZM754.686 608.304C754.419 608.304 754.195 608.219 754.014 608.048C753.843 607.867 753.758 607.643 753.758 607.376C753.758 607.12 753.843 606.907 754.014 606.736C754.195 606.565 754.419 606.48 754.686 606.48C754.942 606.48 755.16 606.565 755.342 606.736C755.523 606.907 755.614 607.12 755.614 607.376C755.614 607.643 755.523 607.867 755.342 608.048C755.16 608.219 754.942 608.304 754.686 608.304ZM754.014 618V610.064H755.358V618H754.014ZM760.834 618C760.108 618 759.538 617.824 759.122 617.472C758.706 617.12 758.498 616.485 758.498 615.568V611.2H757.122V610.064H758.498L758.674 608.16H759.842V610.064H762.178V611.2H759.842V615.568C759.842 616.069 759.943 616.411 760.146 616.592C760.348 616.763 760.706 616.848 761.218 616.848H762.05V618H760.834ZM773.112 618.192C772.013 618.192 771.064 617.952 770.264 617.472C769.474 616.981 768.861 616.304 768.424 615.44C767.986 614.565 767.768 613.552 767.768 612.4C767.768 611.259 767.986 610.256 768.424 609.392C768.861 608.517 769.474 607.835 770.264 607.344C771.064 606.853 772.013 606.608 773.112 606.608C774.392 606.608 775.432 606.917 776.232 607.536C777.042 608.144 777.56 608.997 777.784 610.096H776.296C776.125 609.403 775.773 608.848 775.24 608.432C774.717 608.005 774.008 607.792 773.112 607.792C772.312 607.792 771.613 607.979 771.016 608.352C770.418 608.715 769.954 609.243 769.624 609.936C769.304 610.619 769.144 611.44 769.144 612.4C769.144 613.36 769.304 614.187 769.624 614.88C769.954 615.563 770.418 616.091 771.016 616.464C771.613 616.827 772.312 617.008 773.112 617.008C774.008 617.008 774.717 616.805 775.24 616.4C775.773 615.984 776.125 615.435 776.296 614.752H777.784C777.56 615.829 777.042 616.672 776.232 617.28C775.432 617.888 774.392 618.192 773.112 618.192ZM783.251 618.192C782.505 618.192 781.833 618.021 781.235 617.68C780.638 617.339 780.163 616.859 779.811 616.24C779.47 615.611 779.299 614.875 779.299 614.032C779.299 613.189 779.475 612.459 779.827 611.84C780.179 611.211 780.654 610.725 781.251 610.384C781.859 610.043 782.537 609.872 783.283 609.872C784.03 609.872 784.702 610.043 785.299 610.384C785.897 610.725 786.366 611.211 786.707 611.84C787.059 612.459 787.235 613.189 787.235 614.032C787.235 614.875 787.059 615.611 786.707 616.24C786.355 616.859 785.875 617.339 785.267 617.68C784.67 618.021 783.998 618.192 783.251 618.192ZM783.251 617.04C783.71 617.04 784.137 616.928 784.531 616.704C784.926 616.48 785.246 616.144 785.491 615.696C785.737 615.248 785.859 614.693 785.859 614.032C785.859 613.371 785.737 612.816 785.491 612.368C785.257 611.92 784.942 611.584 784.547 611.36C784.153 611.136 783.731 611.024 783.283 611.024C782.825 611.024 782.398 611.136 782.003 611.36C781.609 611.584 781.289 611.92 781.043 612.368C780.798 612.816 780.675 613.371 780.675 614.032C780.675 614.693 780.798 615.248 781.043 615.696C781.289 616.144 781.603 616.48 781.987 616.704C782.382 616.928 782.803 617.04 783.251 617.04ZM789.104 618V610.064H790.32L790.4 611.488C790.656 610.987 791.024 610.592 791.504 610.304C791.984 610.016 792.528 609.872 793.136 609.872C794.075 609.872 794.821 610.16 795.376 610.736C795.941 611.301 796.224 612.176 796.224 613.36V618H794.88V613.504C794.88 611.851 794.197 611.024 792.832 611.024C792.149 611.024 791.579 611.275 791.12 611.776C790.672 612.267 790.448 612.971 790.448 613.888V618H789.104ZM801.396 618C800.671 618 800.1 617.824 799.684 617.472C799.268 617.12 799.06 616.485 799.06 615.568V611.2H797.684V610.064H799.06L799.236 608.16H800.404V610.064H802.74V611.2H800.404V615.568C800.404 616.069 800.506 616.411 800.708 616.592C800.911 616.763 801.268 616.848 801.78 616.848H802.612V618H801.396ZM804.448 618V610.064H805.664L805.776 611.584C806.021 611.061 806.394 610.645 806.896 610.336C807.397 610.027 808.016 609.872 808.752 609.872V611.28H808.384C807.914 611.28 807.482 611.365 807.088 611.536C806.693 611.696 806.378 611.973 806.144 612.368C805.909 612.763 805.792 613.307 805.792 614V618H804.448ZM811.076 608.304C810.81 608.304 810.586 608.219 810.404 608.048C810.234 607.867 810.148 607.643 810.148 607.376C810.148 607.12 810.234 606.907 810.404 606.736C810.586 606.565 810.81 606.48 811.076 606.48C811.332 606.48 811.551 606.565 811.732 606.736C811.914 606.907 812.004 607.12 812.004 607.376C812.004 607.643 811.914 607.867 811.732 608.048C811.551 608.219 811.332 608.304 811.076 608.304ZM810.404 618V610.064H811.748V618H810.404ZM818.328 618.192C817.678 618.192 817.096 618.059 816.584 617.792C816.083 617.525 815.699 617.152 815.432 616.672L815.304 618H814.088V606.48H815.432V611.376C815.688 610.992 816.051 610.645 816.52 610.336C817 610.027 817.608 609.872 818.344 609.872C819.134 609.872 819.822 610.053 820.408 610.416C820.995 610.779 821.448 611.275 821.768 611.904C822.099 612.533 822.264 613.248 822.264 614.048C822.264 614.848 822.099 615.563 821.768 616.192C821.448 616.811 820.99 617.301 820.392 617.664C819.806 618.016 819.118 618.192 818.328 618.192ZM818.184 617.024C818.718 617.024 819.187 616.901 819.592 616.656C819.998 616.4 820.318 616.048 820.552 615.6C820.787 615.152 820.904 614.629 820.904 614.032C820.904 613.435 820.787 612.912 820.552 612.464C820.318 612.016 819.998 611.669 819.592 611.424C819.187 611.168 818.718 611.04 818.184 611.04C817.651 611.04 817.182 611.168 816.776 611.424C816.371 611.669 816.051 612.016 815.816 612.464C815.582 612.912 815.464 613.435 815.464 614.032C815.464 614.629 815.582 615.152 815.816 615.6C816.051 616.048 816.371 616.4 816.776 616.656C817.182 616.901 817.651 617.024 818.184 617.024ZM827.031 618.192C826.093 618.192 825.346 617.909 824.791 617.344C824.237 616.768 823.959 615.888 823.959 614.704V610.064H825.303V614.56C825.303 616.213 825.981 617.04 827.335 617.04C828.029 617.04 828.599 616.795 829.047 616.304C829.506 615.803 829.735 615.093 829.735 614.176V610.064H831.079V618H829.863L829.767 616.576C829.522 617.077 829.154 617.472 828.663 617.76C828.183 618.048 827.639 618.192 827.031 618.192ZM836.428 618C835.702 618 835.132 617.824 834.716 617.472C834.3 617.12 834.092 616.485 834.092 615.568V611.2H832.715V610.064H834.092L834.268 608.16H835.436V610.064H837.772V611.2H835.436V615.568C835.436 616.069 835.537 616.411 835.74 616.592C835.942 616.763 836.3 616.848 836.812 616.848H837.644V618H836.428ZM840.295 608.304C840.028 608.304 839.804 608.219 839.623 608.048C839.452 607.867 839.367 607.643 839.367 607.376C839.367 607.12 839.452 606.907 839.623 606.736C839.804 606.565 840.028 606.48 840.295 606.48C840.551 606.48 840.77 606.565 840.951 606.736C841.132 606.907 841.223 607.12 841.223 607.376C841.223 607.643 841.132 607.867 840.951 608.048C840.77 608.219 840.551 608.304 840.295 608.304ZM839.623 618V610.064H840.967V618H839.623ZM846.923 618.192C846.176 618.192 845.504 618.021 844.907 617.68C844.31 617.339 843.835 616.859 843.483 616.24C843.142 615.611 842.971 614.875 842.971 614.032C842.971 613.189 843.147 612.459 843.499 611.84C843.851 611.211 844.326 610.725 844.923 610.384C845.531 610.043 846.208 609.872 846.955 609.872C847.702 609.872 848.374 610.043 848.971 610.384C849.568 610.725 850.038 611.211 850.379 611.84C850.731 612.459 850.907 613.189 850.907 614.032C850.907 614.875 850.731 615.611 850.379 616.24C850.027 616.859 849.547 617.339 848.939 617.68C848.342 618.021 847.67 618.192 846.923 618.192ZM846.923 617.04C847.382 617.04 847.808 616.928 848.203 616.704C848.598 616.48 848.918 616.144 849.163 615.696C849.408 615.248 849.531 614.693 849.531 614.032C849.531 613.371 849.408 612.816 849.163 612.368C848.928 611.92 848.614 611.584 848.219 611.36C847.824 611.136 847.403 611.024 846.955 611.024C846.496 611.024 846.07 611.136 845.675 611.36C845.28 611.584 844.96 611.92 844.715 612.368C844.47 612.816 844.347 613.371 844.347 614.032C844.347 614.693 844.47 615.248 844.715 615.696C844.96 616.144 845.275 616.48 845.659 616.704C846.054 616.928 846.475 617.04 846.923 617.04ZM852.776 618V610.064H853.992L854.072 611.488C854.328 610.987 854.696 610.592 855.176 610.304C855.656 610.016 856.2 609.872 856.808 609.872C857.747 609.872 858.493 610.16 859.048 610.736C859.613 611.301 859.896 612.176 859.896 613.36V618H858.552V613.504C858.552 611.851 857.869 611.024 856.504 611.024C855.821 611.024 855.251 611.275 854.792 611.776C854.344 612.267 854.12 612.971 854.12 613.888V618H852.776ZM864.972 618.192C864.023 618.192 863.233 617.952 862.604 617.472C861.975 616.992 861.607 616.341 861.5 615.52H862.876C862.961 615.936 863.18 616.299 863.532 616.608C863.895 616.907 864.38 617.056 864.988 617.056C865.553 617.056 865.969 616.939 866.236 616.704C866.503 616.459 866.636 616.171 866.636 615.84C866.636 615.36 866.46 615.04 866.108 614.88C865.767 614.72 865.281 614.576 864.652 614.448C864.225 614.363 863.799 614.24 863.372 614.08C862.945 613.92 862.588 613.696 862.3 613.408C862.012 613.109 861.868 612.72 861.868 612.24C861.868 611.547 862.124 610.981 862.636 610.544C863.159 610.096 863.863 609.872 864.748 609.872C865.591 609.872 866.279 610.085 866.812 610.512C867.356 610.928 867.671 611.525 867.756 612.304H866.428C866.375 611.899 866.199 611.584 865.9 611.36C865.612 611.125 865.223 611.008 864.732 611.008C864.252 611.008 863.879 611.109 863.612 611.312C863.356 611.515 863.228 611.781 863.228 612.112C863.228 612.432 863.393 612.683 863.724 612.864C864.065 613.045 864.524 613.2 865.1 613.328C865.591 613.435 866.055 613.568 866.492 613.728C866.94 613.877 867.303 614.107 867.58 614.416C867.868 614.715 868.012 615.152 868.012 615.728C868.023 616.443 867.751 617.035 867.196 617.504C866.652 617.963 865.911 618.192 864.972 618.192Z" fill="white"/>
<rect x="1037" y="548" width="375" height="180" rx="8" fill="#1F1F1F"/>
<path d="M1165.67 626C1164.96 626 1164.28 626.281 1163.78 626.781C1163.28 627.281 1163 627.959 1163 628.667V647.333C1163 648.041 1163.28 648.719 1163.78 649.219C1164.28 649.719 1164.96 650 1165.67 650H1184.33C1185.04 650 1185.72 649.719 1186.22 649.219C1186.72 648.719 1187 648.041 1187 647.333V644.293C1187.4 644.061 1187.74 643.727 1187.97 643.324C1188.21 642.922 1188.33 642.465 1188.33 642V634C1188.33 633.535 1188.21 633.078 1187.97 632.676C1187.74 632.273 1187.4 631.939 1187 631.707V628.667C1187 627.959 1186.72 627.281 1186.22 626.781C1185.72 626.281 1185.04 626 1184.33 626H1165.67ZM1165.67 628.667H1184.33V631.333H1176.33C1175.63 631.333 1174.95 631.614 1174.45 632.114C1173.95 632.614 1173.67 633.293 1173.67 634V642C1173.67 642.707 1173.95 643.386 1174.45 643.886C1174.95 644.386 1175.63 644.667 1176.33 644.667H1184.33V647.333H1165.67V628.667ZM1176.33 634H1185.67V642H1176.33V634ZM1180.33 636C1179.8 636 1179.29 636.211 1178.92 636.586C1178.54 636.961 1178.33 637.47 1178.33 638C1178.33 638.53 1178.54 639.039 1178.92 639.414C1179.29 639.789 1179.8 640 1180.33 640C1180.86 640 1181.37 639.789 1181.75 639.414C1182.12 639.039 1182.33 638.53 1182.33 638C1182.33 637.47 1182.12 636.961 1181.75 636.586C1181.37 636.211 1180.86 636 1180.33 636Z" fill="#02EC88"/>
<path d="M1233 643.192C1231.95 643.192 1231.04 642.952 1230.25 642.472C1229.46 641.981 1228.85 641.304 1228.41 640.44C1227.97 639.565 1227.75 638.557 1227.75 637.416C1227.75 636.275 1227.97 635.267 1228.41 634.392C1228.86 633.517 1229.49 632.835 1230.3 632.344C1231.12 631.853 1232.08 631.608 1233.19 631.608C1234.45 631.608 1235.5 631.912 1236.33 632.52C1237.17 633.128 1237.71 633.965 1237.96 635.032H1236.41C1236.26 634.36 1235.9 633.827 1235.34 633.432C1234.78 633.037 1234.07 632.84 1233.19 632.84C1232.37 632.84 1231.66 633.027 1231.05 633.4C1230.44 633.763 1229.97 634.285 1229.62 634.968C1229.29 635.651 1229.13 636.467 1229.13 637.416C1229.13 638.365 1229.29 639.181 1229.62 639.864C1229.95 640.547 1230.41 641.075 1231 641.448C1231.59 641.811 1232.27 641.992 1233.05 641.992C1234.24 641.992 1235.14 641.645 1235.75 640.952C1236.36 640.248 1236.71 639.288 1236.79 638.072H1233.56V637.016H1238.17V643H1236.94L1236.82 641.16C1236.42 641.811 1235.92 642.312 1235.34 642.664C1234.75 643.016 1233.97 643.192 1233 643.192ZM1243.78 643.192C1243.02 643.192 1242.35 643.021 1241.77 642.68C1241.18 642.328 1240.71 641.843 1240.37 641.224C1240.04 640.605 1239.88 639.875 1239.88 639.032C1239.88 638.2 1240.04 637.475 1240.37 636.856C1240.7 636.227 1241.16 635.741 1241.75 635.4C1242.35 635.048 1243.03 634.872 1243.81 634.872C1244.58 634.872 1245.24 635.048 1245.8 635.4C1246.36 635.741 1246.79 636.195 1247.09 636.76C1247.39 637.325 1247.54 637.933 1247.54 638.584C1247.54 638.701 1247.54 638.819 1247.53 638.936C1247.53 639.053 1247.53 639.187 1247.53 639.336H1241.21C1241.24 639.944 1241.38 640.451 1241.62 640.856C1241.88 641.251 1242.19 641.549 1242.57 641.752C1242.95 641.955 1243.35 642.056 1243.78 642.056C1244.34 642.056 1244.8 641.928 1245.17 641.672C1245.55 641.416 1245.82 641.069 1245.99 640.632H1247.32C1247.1 641.368 1246.69 641.981 1246.09 642.472C1245.49 642.952 1244.72 643.192 1243.78 643.192ZM1243.78 636.008C1243.14 636.008 1242.57 636.205 1242.07 636.6C1241.58 636.984 1241.3 637.549 1241.22 638.296H1246.21C1246.18 637.581 1245.94 637.021 1245.48 636.616C1245.02 636.211 1244.45 636.008 1243.78 636.008ZM1252.19 643C1251.47 643 1250.9 642.824 1250.48 642.472C1250.07 642.12 1249.86 641.485 1249.86 640.568V636.2H1248.48V635.064H1249.86L1250.03 633.16H1251.2V635.064H1253.54V636.2H1251.2V640.568C1251.2 641.069 1251.3 641.411 1251.51 641.592C1251.71 641.763 1252.07 641.848 1252.58 641.848H1253.41V643H1252.19ZM1259.56 643V631.8H1263.24C1264.11 631.8 1264.83 631.944 1265.4 632.232C1265.96 632.52 1266.38 632.909 1266.65 633.4C1266.92 633.891 1267.06 634.445 1267.06 635.064C1267.06 635.672 1266.93 636.221 1266.66 636.712C1266.4 637.203 1265.98 637.597 1265.42 637.896C1264.85 638.184 1264.12 638.328 1263.24 638.328H1260.9V643H1259.56ZM1260.9 637.192H1263.21C1264.1 637.192 1264.74 637.005 1265.11 636.632C1265.5 636.248 1265.69 635.725 1265.69 635.064C1265.69 634.392 1265.5 633.869 1265.11 633.496C1264.74 633.112 1264.1 632.92 1263.21 632.92H1260.9V637.192ZM1271.01 643.192C1270.35 643.192 1269.8 643.08 1269.36 642.856C1268.92 642.632 1268.6 642.333 1268.39 641.96C1268.17 641.587 1268.07 641.181 1268.07 640.744C1268.07 639.933 1268.37 639.309 1268.99 638.872C1269.61 638.435 1270.45 638.216 1271.52 638.216H1273.67V638.12C1273.67 637.427 1273.48 636.904 1273.12 636.552C1272.76 636.189 1272.27 636.008 1271.67 636.008C1271.14 636.008 1270.69 636.141 1270.31 636.408C1269.93 636.664 1269.7 637.043 1269.6 637.544H1268.23C1268.28 636.968 1268.47 636.483 1268.8 636.088C1269.14 635.693 1269.56 635.395 1270.07 635.192C1270.57 634.979 1271.1 634.872 1271.67 634.872C1272.77 634.872 1273.61 635.171 1274.16 635.768C1274.73 636.355 1275.01 637.139 1275.01 638.12V643H1273.81L1273.73 641.576C1273.51 642.024 1273.17 642.408 1272.74 642.728C1272.31 643.037 1271.73 643.192 1271.01 643.192ZM1271.22 642.056C1271.73 642.056 1272.17 641.923 1272.53 641.656C1272.9 641.389 1273.19 641.043 1273.38 640.616C1273.57 640.189 1273.67 639.741 1273.67 639.272V639.256H1271.63C1270.84 639.256 1270.28 639.395 1269.95 639.672C1269.63 639.939 1269.47 640.275 1269.47 640.68C1269.47 641.096 1269.62 641.432 1269.92 641.688C1270.23 641.933 1270.66 642.056 1271.22 642.056ZM1277.84 633.304C1277.58 633.304 1277.35 633.219 1277.17 633.048C1277 632.867 1276.91 632.643 1276.91 632.376C1276.91 632.12 1277 631.907 1277.17 631.736C1277.35 631.565 1277.58 631.48 1277.84 631.48C1278.1 631.48 1278.32 631.565 1278.5 631.736C1278.68 631.907 1278.77 632.12 1278.77 632.376C1278.77 632.643 1278.68 632.867 1278.5 633.048C1278.32 633.219 1278.1 633.304 1277.84 633.304ZM1277.17 643V635.064H1278.51V643H1277.17ZM1284.45 643.192C1283.66 643.192 1282.97 643.011 1282.37 642.648C1281.79 642.285 1281.33 641.789 1281 641.16C1280.68 640.531 1280.52 639.816 1280.52 639.016C1280.52 638.216 1280.68 637.507 1281.01 636.888C1281.34 636.259 1281.8 635.768 1282.39 635.416C1282.98 635.053 1283.67 634.872 1284.47 634.872C1285.12 634.872 1285.7 635.005 1286.2 635.272C1286.7 635.539 1287.09 635.912 1287.37 636.392V631.48H1288.71V643H1287.49L1287.37 641.688C1287.11 642.072 1286.74 642.419 1286.26 642.728C1285.78 643.037 1285.18 643.192 1284.45 643.192ZM1284.6 642.024C1285.13 642.024 1285.6 641.901 1286.01 641.656C1286.42 641.4 1286.74 641.048 1286.97 640.6C1287.2 640.152 1287.32 639.629 1287.32 639.032C1287.32 638.435 1287.2 637.912 1286.97 637.464C1286.74 637.016 1286.42 636.669 1286.01 636.424C1285.6 636.168 1285.13 636.04 1284.6 636.04C1284.08 636.04 1283.61 636.168 1283.19 636.424C1282.78 636.669 1282.46 637.016 1282.23 637.464C1282.01 637.912 1281.89 638.435 1281.89 639.032C1281.89 639.629 1282.01 640.152 1282.23 640.6C1282.46 641.048 1282.78 641.4 1283.19 641.656C1283.61 641.901 1284.08 642.024 1284.6 642.024Z" fill="white"/>
<rect x="100" y="548" width="375" height="180" rx="8" fill="#1F1F1F"/>
<path d="M169.667 638C169.667 638 173.06 631.333 179 631.333C184.939 631.333 188.333 638 188.333 638C188.333 638 184.939 644.667 179 644.667C173.06 644.667 169.667 638 169.667 638Z" stroke="#02EC88" stroke-width="2" stroke-linecap="round" stroke-linejoin="round"/>
<path d="M191 644.667V647.333C191 648.041 190.719 648.719 190.219 649.219C189.719 649.719 189.041 650 188.333 650H169.667C168.959 650 168.281 649.719 167.781 649.219C167.281 648.719 167 648.041 167 647.333V644.667M191 631.333V628.667C191 627.959 190.719 627.281 190.219 626.781C189.719 626.281 189.041 626 188.333 626H169.667C168.959 626 168.281 626.281 167.781 626.781C167.281 627.281 167 627.959 167 628.667V631.333M179 639.333C179.354 639.333 179.693 639.193 179.943 638.943C180.193 638.693 180.333 638.354 180.333 638C180.333 637.646 180.193 637.307 179.943 637.057C179.693 636.807 179.354 636.667 179 636.667C178.646 636.667 178.307 636.807 178.057 637.057C177.807 637.307 177.667 637.646 177.667 638C177.667 638.354 177.807 638.693 178.057 638.943C178.307 639.193 178.646 639.333 179 639.333Z" stroke="#02EC88" stroke-width="2" stroke-linecap="round" stroke-linejoin="round"/>
<path d="M235.56 631L231.352 619.8H232.808L236.344 629.576L239.912 619.8H241.336L237.128 631H235.56ZM243.608 621.304C243.341 621.304 243.117 621.219 242.936 621.048C242.765 620.867 242.68 620.643 242.68 620.376C242.68 620.12 242.765 619.907 242.936 619.736C243.117 619.565 243.341 619.48 243.608 619.48C243.864 619.48 244.082 619.565 244.264 619.736C244.445 619.907 244.536 620.12 244.536 620.376C244.536 620.643 244.445 620.867 244.264 621.048C244.082 621.219 243.864 621.304 243.608 621.304ZM242.936 631V623.064H244.28V631H242.936ZM250.188 631.192C249.43 631.192 248.758 631.021 248.172 630.68C247.585 630.328 247.121 629.843 246.78 629.224C246.449 628.605 246.284 627.875 246.284 627.032C246.284 626.2 246.449 625.475 246.78 624.856C247.11 624.227 247.569 623.741 248.156 623.4C248.753 623.048 249.441 622.872 250.22 622.872C250.988 622.872 251.649 623.048 252.204 623.4C252.769 623.741 253.201 624.195 253.5 624.76C253.798 625.325 253.948 625.933 253.948 626.584C253.948 626.701 253.942 626.819 253.932 626.936C253.932 627.053 253.932 627.187 253.932 627.336H247.612C247.644 627.944 247.782 628.451 248.028 628.856C248.284 629.251 248.598 629.549 248.972 629.752C249.356 629.955 249.761 630.056 250.188 630.056C250.742 630.056 251.206 629.928 251.58 629.672C251.953 629.416 252.225 629.069 252.396 628.632H253.724C253.51 629.368 253.1 629.981 252.492 630.472C251.894 630.952 251.126 631.192 250.188 631.192ZM250.188 624.008C249.548 624.008 248.977 624.205 248.476 624.6C247.985 624.984 247.702 625.549 247.628 626.296H252.62C252.588 625.581 252.342 625.021 251.884 624.616C251.425 624.211 250.86 624.008 250.188 624.008ZM257.017 631L254.697 623.064H256.041L257.721 629.288L259.577 623.064H261.097L262.969 629.288L264.633 623.064H265.993L263.673 631H262.297L260.345 624.456L258.393 631H257.017ZM271.089 631L275.217 619.8H276.641L280.753 631H279.329L278.305 628.12H273.537L272.497 631H271.089ZM273.937 627.032H277.905L275.921 621.496L273.937 627.032ZM283.814 631L280.806 623.064H282.214L284.598 629.704L286.998 623.064H288.374L285.366 631H283.814ZM292.103 631.192C291.442 631.192 290.893 631.08 290.455 630.856C290.018 630.632 289.693 630.333 289.479 629.96C289.266 629.587 289.159 629.181 289.159 628.744C289.159 627.933 289.469 627.309 290.087 626.872C290.706 626.435 291.549 626.216 292.615 626.216H294.759V626.12C294.759 625.427 294.578 624.904 294.215 624.552C293.853 624.189 293.367 624.008 292.759 624.008C292.237 624.008 291.783 624.141 291.399 624.408C291.026 624.664 290.791 625.043 290.695 625.544H289.319C289.373 624.968 289.565 624.483 289.895 624.088C290.237 623.693 290.658 623.395 291.159 623.192C291.661 622.979 292.194 622.872 292.759 622.872C293.869 622.872 294.701 623.171 295.255 623.768C295.821 624.355 296.103 625.139 296.103 626.12V631H294.903L294.823 629.576C294.599 630.024 294.269 630.408 293.831 630.728C293.405 631.037 292.829 631.192 292.103 631.192ZM292.311 630.056C292.823 630.056 293.261 629.923 293.623 629.656C293.997 629.389 294.279 629.043 294.471 628.616C294.663 628.189 294.759 627.741 294.759 627.272V627.256H292.727C291.938 627.256 291.378 627.395 291.047 627.672C290.727 627.939 290.567 628.275 290.567 628.68C290.567 629.096 290.717 629.432 291.015 629.688C291.325 629.933 291.757 630.056 292.311 630.056ZM298.936 621.304C298.669 621.304 298.445 621.219 298.264 621.048C298.093 620.867 298.008 620.643 298.008 620.376C298.008 620.12 298.093 619.907 298.264 619.736C298.445 619.565 298.669 619.48 298.936 619.48C299.192 619.48 299.41 619.565 299.592 619.736C299.773 619.907 299.864 620.12 299.864 620.376C299.864 620.643 299.773 620.867 299.592 621.048C299.41 621.219 299.192 621.304 298.936 621.304ZM298.264 631V623.064H299.608V631H298.264ZM301.948 631V619.48H303.292V631H301.948ZM308.135 631.192C307.473 631.192 306.924 631.08 306.487 630.856C306.049 630.632 305.724 630.333 305.511 629.96C305.297 629.587 305.191 629.181 305.191 628.744C305.191 627.933 305.5 627.309 306.119 626.872C306.737 626.435 307.58 626.216 308.647 626.216H310.791V626.12C310.791 625.427 310.609 624.904 310.247 624.552C309.884 624.189 309.399 624.008 308.791 624.008C308.268 624.008 307.815 624.141 307.431 624.408C307.057 624.664 306.823 625.043 306.727 625.544H305.351C305.404 624.968 305.596 624.483 305.927 624.088C306.268 623.693 306.689 623.395 307.191 623.192C307.692 622.979 308.225 622.872 308.791 622.872C309.9 622.872 310.732 623.171 311.287 623.768C311.852 624.355 312.135 625.139 312.135 626.12V631H310.935L310.855 629.576C310.631 630.024 310.3 630.408 309.863 630.728C309.436 631.037 308.86 631.192 308.135 631.192ZM308.343 630.056C308.855 630.056 309.292 629.923 309.655 629.656C310.028 629.389 310.311 629.043 310.503 628.616C310.695 628.189 310.791 627.741 310.791 627.272V627.256H308.759C307.969 627.256 307.409 627.395 307.079 627.672C306.759 627.939 306.599 628.275 306.599 628.68C306.599 629.096 306.748 629.432 307.047 629.688C307.356 629.933 307.788 630.056 308.343 630.056ZM318.391 631.192C317.74 631.192 317.159 631.059 316.647 630.792C316.146 630.525 315.762 630.152 315.495 629.672L315.367 631H314.151V619.48H315.495V624.376C315.751 623.992 316.114 623.645 316.583 623.336C317.063 623.027 317.671 622.872 318.407 622.872C319.196 622.872 319.884 623.053 320.471 623.416C321.058 623.779 321.511 624.275 321.831 624.904C322.162 625.533 322.327 626.248 322.327 627.048C322.327 627.848 322.162 628.563 321.831 629.192C321.511 629.811 321.052 630.301 320.455 630.664C319.868 631.016 319.18 631.192 318.391 631.192ZM318.247 630.024C318.78 630.024 319.25 629.901 319.655 629.656C320.06 629.4 320.38 629.048 320.615 628.6C320.85 628.152 320.967 627.629 320.967 627.032C320.967 626.435 320.85 625.912 320.615 625.464C320.38 625.016 320.06 624.669 319.655 624.424C319.25 624.168 318.78 624.04 318.247 624.04C317.714 624.04 317.244 624.168 316.839 624.424C316.434 624.669 316.114 625.016 315.879 625.464C315.644 625.912 315.527 626.435 315.527 627.032C315.527 627.629 315.644 628.152 315.879 628.6C316.114 629.048 316.434 629.4 316.839 629.656C317.244 629.901 317.714 630.024 318.247 630.024ZM324.198 631V619.48H325.542V631H324.198ZM331.313 631.192C330.555 631.192 329.883 631.021 329.297 630.68C328.71 630.328 328.246 629.843 327.905 629.224C327.574 628.605 327.409 627.875 327.409 627.032C327.409 626.2 327.574 625.475 327.905 624.856C328.235 624.227 328.694 623.741 329.281 623.4C329.878 623.048 330.566 622.872 331.345 622.872C332.113 622.872 332.774 623.048 333.329 623.4C333.894 623.741 334.326 624.195 334.625 624.76C334.923 625.325 335.073 625.933 335.073 626.584C335.073 626.701 335.067 626.819 335.057 626.936C335.057 627.053 335.057 627.187 335.057 627.336H328.737C328.769 627.944 328.907 628.451 329.153 628.856C329.409 629.251 329.723 629.549 330.097 629.752C330.481 629.955 330.886 630.056 331.313 630.056C331.867 630.056 332.331 629.928 332.705 629.672C333.078 629.416 333.35 629.069 333.521 628.632H334.849C334.635 629.368 334.225 629.981 333.617 630.472C333.019 630.952 332.251 631.192 331.313 631.192ZM331.313 624.008C330.673 624.008 330.102 624.205 329.601 624.6C329.11 624.984 328.827 625.549 328.753 626.296H333.745C333.713 625.581 333.467 625.021 333.009 624.616C332.55 624.211 331.985 624.008 331.313 624.008ZM345.328 631.192C344.678 631.192 344.096 631.059 343.584 630.792C343.083 630.525 342.699 630.152 342.432 629.672L342.304 631H341.088V619.48H342.432V624.376C342.688 623.992 343.051 623.645 343.52 623.336C344 623.027 344.608 622.872 345.344 622.872C346.134 622.872 346.822 623.053 347.408 623.416C347.995 623.779 348.448 624.275 348.768 624.904C349.099 625.533 349.264 626.248 349.264 627.048C349.264 627.848 349.099 628.563 348.768 629.192C348.448 629.811 347.99 630.301 347.392 630.664C346.806 631.016 346.118 631.192 345.328 631.192ZM345.184 630.024C345.718 630.024 346.187 629.901 346.592 629.656C346.998 629.4 347.318 629.048 347.552 628.6C347.787 628.152 347.904 627.629 347.904 627.032C347.904 626.435 347.787 625.912 347.552 625.464C347.318 625.016 346.998 624.669 346.592 624.424C346.187 624.168 345.718 624.04 345.184 624.04C344.651 624.04 344.182 624.168 343.776 624.424C343.371 624.669 343.051 625.016 342.816 625.464C342.582 625.912 342.464 626.435 342.464 627.032C342.464 627.629 342.582 628.152 342.816 628.6C343.051 629.048 343.371 629.4 343.776 629.656C344.182 629.901 344.651 630.024 345.184 630.024ZM354.751 631.192C354.005 631.192 353.333 631.021 352.735 630.68C352.138 630.339 351.663 629.859 351.311 629.24C350.97 628.611 350.799 627.875 350.799 627.032C350.799 626.189 350.975 625.459 351.327 624.84C351.679 624.211 352.154 623.725 352.751 623.384C353.359 623.043 354.037 622.872 354.783 622.872C355.53 622.872 356.202 623.043 356.799 623.384C357.397 623.725 357.866 624.211 358.207 624.84C358.559 625.459 358.735 626.189 358.735 627.032C358.735 627.875 358.559 628.611 358.207 629.24C357.855 629.859 357.375 630.339 356.767 630.68C356.17 631.021 355.498 631.192 354.751 631.192ZM354.751 630.04C355.21 630.04 355.637 629.928 356.031 629.704C356.426 629.48 356.746 629.144 356.991 628.696C357.237 628.248 357.359 627.693 357.359 627.032C357.359 626.371 357.237 625.816 356.991 625.368C356.757 624.92 356.442 624.584 356.047 624.36C355.653 624.136 355.231 624.024 354.783 624.024C354.325 624.024 353.898 624.136 353.503 624.36C353.109 624.584 352.789 624.92 352.543 625.368C352.298 625.816 352.175 626.371 352.175 627.032C352.175 627.693 352.298 628.248 352.543 628.696C352.789 629.144 353.103 629.48 353.487 629.704C353.882 629.928 354.303 630.04 354.751 630.04ZM363.5 631.192C362.561 631.192 361.815 630.909 361.26 630.344C360.705 629.768 360.428 628.888 360.428 627.704V623.064H361.772V627.56C361.772 629.213 362.449 630.04 363.804 630.04C364.497 630.04 365.068 629.795 365.516 629.304C365.975 628.803 366.204 628.093 366.204 627.176V623.064H367.548V631H366.332L366.236 629.576C365.991 630.077 365.623 630.472 365.132 630.76C364.652 631.048 364.108 631.192 363.5 631.192ZM369.76 631V623.064H370.976L371.056 624.488C371.312 623.987 371.68 623.592 372.16 623.304C372.64 623.016 373.184 622.872 373.792 622.872C374.731 622.872 375.478 623.16 376.032 623.736C376.598 624.301 376.88 625.176 376.88 626.36V631H375.536V626.504C375.536 624.851 374.854 624.024 373.488 624.024C372.806 624.024 372.235 624.275 371.776 624.776C371.328 625.267 371.104 625.971 371.104 626.888V631H369.76ZM382.053 631C381.327 631 380.757 630.824 380.341 630.472C379.925 630.12 379.717 629.485 379.717 628.568V624.2H378.34V623.064H379.717L379.893 621.16H381.061V623.064H383.397V624.2H381.061V628.568C381.061 629.069 381.162 629.411 381.365 629.592C381.567 629.763 381.925 629.848 382.437 629.848H383.269V631H382.053ZM385.92 621.304C385.653 621.304 385.429 621.219 385.248 621.048C385.077 620.867 384.992 620.643 384.992 620.376C384.992 620.12 385.077 619.907 385.248 619.736C385.429 619.565 385.653 619.48 385.92 619.48C386.176 619.48 386.395 619.565 386.576 619.736C386.757 619.907 386.848 620.12 386.848 620.376C386.848 620.643 386.757 620.867 386.576 621.048C386.395 621.219 386.176 621.304 385.92 621.304ZM385.248 631V623.064H386.592V631H385.248ZM392.5 631.192C391.743 631.192 391.071 631.021 390.484 630.68C389.897 630.328 389.433 629.843 389.092 629.224C388.761 628.605 388.596 627.875 388.596 627.032C388.596 626.2 388.761 625.475 389.092 624.856C389.423 624.227 389.881 623.741 390.468 623.4C391.065 623.048 391.753 622.872 392.532 622.872C393.3 622.872 393.961 623.048 394.516 623.4C395.081 623.741 395.513 624.195 395.812 624.76C396.111 625.325 396.26 625.933 396.26 626.584C396.26 626.701 396.255 626.819 396.244 626.936C396.244 627.053 396.244 627.187 396.244 627.336H389.924C389.956 627.944 390.095 628.451 390.34 628.856C390.596 629.251 390.911 629.549 391.284 629.752C391.668 629.955 392.073 630.056 392.5 630.056C393.055 630.056 393.519 629.928 393.892 629.672C394.265 629.416 394.537 629.069 394.708 628.632H396.036C395.823 629.368 395.412 629.981 394.804 630.472C394.207 630.952 393.439 631.192 392.5 631.192ZM392.5 624.008C391.86 624.008 391.289 624.205 390.788 624.6C390.297 624.984 390.015 625.549 389.94 626.296H394.932C394.9 625.581 394.655 625.021 394.196 624.616C393.737 624.211 393.172 624.008 392.5 624.008ZM401.082 631.192C400.132 631.192 399.343 630.952 398.714 630.472C398.084 629.992 397.716 629.341 397.61 628.52H398.986C399.071 628.936 399.29 629.299 399.642 629.608C400.004 629.907 400.49 630.056 401.098 630.056C401.663 630.056 402.079 629.939 402.346 629.704C402.612 629.459 402.746 629.171 402.746 628.84C402.746 628.36 402.57 628.04 402.218 627.88C401.876 627.72 401.391 627.576 400.762 627.448C400.335 627.363 399.908 627.24 399.482 627.08C399.055 626.92 398.698 626.696 398.41 626.408C398.122 626.109 397.978 625.72 397.978 625.24C397.978 624.547 398.234 623.981 398.746 623.544C399.268 623.096 399.972 622.872 400.858 622.872C401.7 622.872 402.388 623.085 402.922 623.512C403.466 623.928 403.78 624.525 403.866 625.304H402.538C402.484 624.899 402.308 624.584 402.01 624.36C401.722 624.125 401.332 624.008 400.842 624.008C400.362 624.008 399.988 624.109 399.722 624.312C399.466 624.515 399.338 624.781 399.338 625.112C399.338 625.432 399.503 625.683 399.834 625.864C400.175 626.045 400.634 626.2 401.21 626.328C401.7 626.435 402.164 626.568 402.602 626.728C403.05 626.877 403.412 627.107 403.69 627.416C403.978 627.715 404.122 628.152 404.122 628.728C404.132 629.443 403.86 630.035 403.306 630.504C402.762 630.963 402.02 631.192 401.082 631.192ZM405.386 632.52L409.402 618.776H410.73L406.714 632.52H405.386ZM237.096 655.192C235.997 655.192 235.048 654.952 234.248 654.472C233.459 653.981 232.845 653.304 232.408 652.44C231.971 651.565 231.752 650.552 231.752 649.4C231.752 648.259 231.971 647.256 232.408 646.392C232.845 645.517 233.459 644.835 234.248 644.344C235.048 643.853 235.997 643.608 237.096 643.608C238.376 643.608 239.416 643.917 240.216 644.536C241.027 645.144 241.544 645.997 241.768 647.096H240.28C240.109 646.403 239.757 645.848 239.224 645.432C238.701 645.005 237.992 644.792 237.096 644.792C236.296 644.792 235.597 644.979 235 645.352C234.403 645.715 233.939 646.243 233.608 646.936C233.288 647.619 233.128 648.44 233.128 649.4C233.128 650.36 233.288 651.187 233.608 651.88C233.939 652.563 234.403 653.091 235 653.464C235.597 653.827 236.296 654.008 237.096 654.008C237.992 654.008 238.701 653.805 239.224 653.4C239.757 652.984 240.109 652.435 240.28 651.752H241.768C241.544 652.829 241.027 653.672 240.216 654.28C239.416 654.888 238.376 655.192 237.096 655.192ZM243.62 655V647.064H244.836L244.948 648.584C245.193 648.061 245.566 647.645 246.068 647.336C246.569 647.027 247.188 646.872 247.924 646.872V648.28H247.556C247.086 648.28 246.654 648.365 246.26 648.536C245.865 648.696 245.55 648.973 245.316 649.368C245.081 649.763 244.964 650.307 244.964 651V655H243.62ZM252.703 655.192C251.946 655.192 251.274 655.021 250.687 654.68C250.101 654.328 249.637 653.843 249.295 653.224C248.965 652.605 248.799 651.875 248.799 651.032C248.799 650.2 248.965 649.475 249.295 648.856C249.626 648.227 250.085 647.741 250.671 647.4C251.269 647.048 251.957 646.872 252.735 646.872C253.503 646.872 254.165 647.048 254.719 647.4C255.285 647.741 255.717 648.195 256.015 648.76C256.314 649.325 256.463 649.933 256.463 650.584C256.463 650.701 256.458 650.819 256.447 650.936C256.447 651.053 256.447 651.187 256.447 651.336H250.127C250.159 651.944 250.298 652.451 250.543 652.856C250.799 653.251 251.114 653.549 251.487 653.752C251.871 653.955 252.277 654.056 252.703 654.056C253.258 654.056 253.722 653.928 254.095 653.672C254.469 653.416 254.741 653.069 254.911 652.632H256.239C256.026 653.368 255.615 653.981 255.007 654.472C254.41 654.952 253.642 655.192 252.703 655.192ZM252.703 648.008C252.063 648.008 251.493 648.205 250.991 648.6C250.501 648.984 250.218 649.549 250.143 650.296H255.135C255.103 649.581 254.858 649.021 254.399 648.616C253.941 648.211 253.375 648.008 252.703 648.008ZM260.885 655.192C260.223 655.192 259.674 655.08 259.237 654.856C258.799 654.632 258.474 654.333 258.261 653.96C258.047 653.587 257.941 653.181 257.941 652.744C257.941 651.933 258.25 651.309 258.869 650.872C259.487 650.435 260.33 650.216 261.397 650.216H263.541V650.12C263.541 649.427 263.359 648.904 262.997 648.552C262.634 648.189 262.149 648.008 261.541 648.008C261.018 648.008 260.565 648.141 260.181 648.408C259.807 648.664 259.573 649.043 259.477 649.544H258.101C258.154 648.968 258.346 648.483 258.677 648.088C259.018 647.693 259.439 647.395 259.941 647.192C260.442 646.979 260.975 646.872 261.541 646.872C262.65 646.872 263.482 647.171 264.037 647.768C264.602 648.355 264.885 649.139 264.885 650.12V655H263.685L263.605 653.576C263.381 654.024 263.05 654.408 262.613 654.728C262.186 655.037 261.61 655.192 260.885 655.192ZM261.093 654.056C261.605 654.056 262.042 653.923 262.405 653.656C262.778 653.389 263.061 653.043 263.253 652.616C263.445 652.189 263.541 651.741 263.541 651.272V651.256H261.509C260.719 651.256 260.159 651.395 259.829 651.672C259.509 651.939 259.349 652.275 259.349 652.68C259.349 653.096 259.498 653.432 259.797 653.688C260.106 653.933 260.538 654.056 261.093 654.056ZM269.818 655C269.093 655 268.522 654.824 268.106 654.472C267.69 654.12 267.482 653.485 267.482 652.568V648.2H266.106V647.064H267.482L267.658 645.16H268.826V647.064H271.162V648.2H268.826V652.568C268.826 653.069 268.927 653.411 269.13 653.592C269.333 653.763 269.69 653.848 270.202 653.848H271.034V655H269.818ZM276.219 655.192C275.462 655.192 274.79 655.021 274.203 654.68C273.616 654.328 273.152 653.843 272.811 653.224C272.48 652.605 272.315 651.875 272.315 651.032C272.315 650.2 272.48 649.475 272.811 648.856C273.142 648.227 273.6 647.741 274.187 647.4C274.784 647.048 275.472 646.872 276.251 646.872C277.019 646.872 277.68 647.048 278.235 647.4C278.8 647.741 279.232 648.195 279.531 648.76C279.83 649.325 279.979 649.933 279.979 650.584C279.979 650.701 279.974 650.819 279.963 650.936C279.963 651.053 279.963 651.187 279.963 651.336H273.643C273.675 651.944 273.814 652.451 274.059 652.856C274.315 653.251 274.63 653.549 275.003 653.752C275.387 653.955 275.792 654.056 276.219 654.056C276.774 654.056 277.238 653.928 277.611 653.672C277.984 653.416 278.256 653.069 278.427 652.632H279.755C279.542 653.368 279.131 653.981 278.523 654.472C277.926 654.952 277.158 655.192 276.219 655.192ZM276.219 648.008C275.579 648.008 275.008 648.205 274.507 648.6C274.016 648.984 273.734 649.549 273.659 650.296H278.651C278.619 649.581 278.374 649.021 277.915 648.616C277.456 648.211 276.891 648.008 276.219 648.008ZM290.235 655.192C289.584 655.192 289.003 655.059 288.491 654.792C287.989 654.525 287.605 654.152 287.339 653.672L287.211 655H285.995V643.48H287.339V648.376C287.595 647.992 287.957 647.645 288.427 647.336C288.907 647.027 289.515 646.872 290.251 646.872C291.04 646.872 291.728 647.053 292.315 647.416C292.901 647.779 293.355 648.275 293.675 648.904C294.005 649.533 294.171 650.248 294.171 651.048C294.171 651.848 294.005 652.563 293.675 653.192C293.355 653.811 292.896 654.301 292.299 654.664C291.712 655.016 291.024 655.192 290.235 655.192ZM290.091 654.024C290.624 654.024 291.093 653.901 291.499 653.656C291.904 653.4 292.224 653.048 292.459 652.6C292.693 652.152 292.811 651.629 292.811 651.032C292.811 650.435 292.693 649.912 292.459 649.464C292.224 649.016 291.904 648.669 291.499 648.424C291.093 648.168 290.624 648.04 290.091 648.04C289.557 648.04 289.088 648.168 288.683 648.424C288.277 648.669 287.957 649.016 287.723 649.464C287.488 649.912 287.371 650.435 287.371 651.032C287.371 651.629 287.488 652.152 287.723 652.6C287.957 653.048 288.277 653.4 288.683 653.656C289.088 653.901 289.557 654.024 290.091 654.024ZM299.658 655.192C298.911 655.192 298.239 655.021 297.642 654.68C297.044 654.339 296.57 653.859 296.218 653.24C295.876 652.611 295.706 651.875 295.706 651.032C295.706 650.189 295.882 649.459 296.234 648.84C296.586 648.211 297.06 647.725 297.658 647.384C298.266 647.043 298.943 646.872 299.69 646.872C300.436 646.872 301.108 647.043 301.706 647.384C302.303 647.725 302.772 648.211 303.114 648.84C303.466 649.459 303.642 650.189 303.642 651.032C303.642 651.875 303.466 652.611 303.114 653.24C302.762 653.859 302.282 654.339 301.674 654.68C301.076 655.021 300.404 655.192 299.658 655.192ZM299.658 654.04C300.116 654.04 300.543 653.928 300.938 653.704C301.332 653.48 301.652 653.144 301.898 652.696C302.143 652.248 302.266 651.693 302.266 651.032C302.266 650.371 302.143 649.816 301.898 649.368C301.663 648.92 301.348 648.584 300.954 648.36C300.559 648.136 300.138 648.024 299.69 648.024C299.231 648.024 298.804 648.136 298.41 648.36C298.015 648.584 297.695 648.92 297.45 649.368C297.204 649.816 297.082 650.371 297.082 651.032C297.082 651.693 297.204 652.248 297.45 652.696C297.695 653.144 298.01 653.48 298.394 653.704C298.788 653.928 299.21 654.04 299.658 654.04ZM308.406 655.192C307.468 655.192 306.721 654.909 306.166 654.344C305.612 653.768 305.334 652.888 305.334 651.704V647.064H306.678V651.56C306.678 653.213 307.356 654.04 308.71 654.04C309.404 654.04 309.974 653.795 310.422 653.304C310.881 652.803 311.11 652.093 311.11 651.176V647.064H312.454V655H311.238L311.142 653.576C310.897 654.077 310.529 654.472 310.038 654.76C309.558 655.048 309.014 655.192 308.406 655.192ZM314.667 655V647.064H315.883L315.963 648.488C316.219 647.987 316.587 647.592 317.067 647.304C317.547 647.016 318.091 646.872 318.699 646.872C319.637 646.872 320.384 647.16 320.939 647.736C321.504 648.301 321.786 649.176 321.786 650.36V655H320.443V650.504C320.443 648.851 319.76 648.024 318.395 648.024C317.712 648.024 317.141 648.275 316.683 648.776C316.235 649.267 316.011 649.971 316.011 650.888V655H314.667ZM326.959 655C326.233 655 325.663 654.824 325.247 654.472C324.831 654.12 324.623 653.485 324.623 652.568V648.2H323.247V647.064H324.623L324.799 645.16H325.967V647.064H328.303V648.2H325.967V652.568C325.967 653.069 326.068 653.411 326.271 653.592C326.473 653.763 326.831 653.848 327.343 653.848H328.175V655H326.959ZM330.874 658.52L332.842 654.232H332.378L329.226 647.064H330.682L333.306 653.24L336.09 647.064H337.482L332.282 658.52H330.874ZM346.175 655.192C345.226 655.192 344.437 654.952 343.807 654.472C343.178 653.992 342.81 653.341 342.703 652.52H344.079C344.165 652.936 344.383 653.299 344.735 653.608C345.098 653.907 345.583 654.056 346.191 654.056C346.757 654.056 347.173 653.939 347.439 653.704C347.706 653.459 347.839 653.171 347.839 652.84C347.839 652.36 347.663 652.04 347.311 651.88C346.97 651.72 346.485 651.576 345.855 651.448C345.429 651.363 345.002 651.24 344.575 651.08C344.149 650.92 343.791 650.696 343.503 650.408C343.215 650.109 343.071 649.72 343.071 649.24C343.071 648.547 343.327 647.981 343.839 647.544C344.362 647.096 345.066 646.872 345.951 646.872C346.794 646.872 347.482 647.085 348.015 647.512C348.559 647.928 348.874 648.525 348.959 649.304H347.631C347.578 648.899 347.402 648.584 347.103 648.36C346.815 648.125 346.426 648.008 345.935 648.008C345.455 648.008 345.082 648.109 344.815 648.312C344.559 648.515 344.431 648.781 344.431 649.112C344.431 649.432 344.597 649.683 344.927 649.864C345.269 650.045 345.727 650.2 346.303 650.328C346.794 650.435 347.258 650.568 347.695 650.728C348.143 650.877 348.506 651.107 348.783 651.416C349.071 651.715 349.215 652.152 349.215 652.728C349.226 653.443 348.954 654.035 348.399 654.504C347.855 654.963 347.114 655.192 346.175 655.192ZM351.135 658.52V647.064H352.351L352.479 648.376C352.735 647.992 353.098 647.645 353.567 647.336C354.047 647.027 354.655 646.872 355.391 646.872C356.181 646.872 356.869 647.053 357.455 647.416C358.042 647.779 358.495 648.275 358.815 648.904C359.146 649.533 359.311 650.248 359.311 651.048C359.311 651.848 359.146 652.563 358.815 653.192C358.495 653.811 358.037 654.301 357.439 654.664C356.853 655.016 356.165 655.192 355.375 655.192C354.725 655.192 354.143 655.059 353.631 654.792C353.13 654.525 352.746 654.152 352.479 653.672V658.52H351.135ZM355.231 654.024C355.765 654.024 356.234 653.901 356.639 653.656C357.045 653.4 357.365 653.048 357.599 652.6C357.834 652.152 357.951 651.629 357.951 651.032C357.951 650.435 357.834 649.912 357.599 649.464C357.365 649.016 357.045 648.669 356.639 648.424C356.234 648.168 355.765 648.04 355.231 648.04C354.698 648.04 354.229 648.168 353.823 648.424C353.418 648.669 353.098 649.016 352.863 649.464C352.629 649.912 352.511 650.435 352.511 651.032C352.511 651.629 352.629 652.152 352.863 652.6C353.098 653.048 353.418 653.4 353.823 653.656C354.229 653.901 354.698 654.024 355.231 654.024ZM363.822 655.192C363.161 655.192 362.611 655.08 362.174 654.856C361.737 654.632 361.411 654.333 361.198 653.96C360.985 653.587 360.878 653.181 360.878 652.744C360.878 651.933 361.187 651.309 361.806 650.872C362.425 650.435 363.267 650.216 364.334 650.216H366.478V650.12C366.478 649.427 366.297 648.904 365.934 648.552C365.571 648.189 365.086 648.008 364.478 648.008C363.955 648.008 363.502 648.141 363.118 648.408C362.745 648.664 362.51 649.043 362.414 649.544H361.038C361.091 648.968 361.283 648.483 361.614 648.088C361.955 647.693 362.377 647.395 362.878 647.192C363.379 646.979 363.913 646.872 364.478 646.872C365.587 646.872 366.419 647.171 366.974 647.768C367.539 648.355 367.822 649.139 367.822 650.12V655H366.622L366.542 653.576C366.318 654.024 365.987 654.408 365.55 654.728C365.123 655.037 364.547 655.192 363.822 655.192ZM364.03 654.056C364.542 654.056 364.979 653.923 365.342 653.656C365.715 653.389 365.998 653.043 366.19 652.616C366.382 652.189 366.478 651.741 366.478 651.272V651.256H364.446C363.657 651.256 363.097 651.395 362.766 651.672C362.446 651.939 362.286 652.275 362.286 652.68C362.286 653.096 362.435 653.432 362.734 653.688C363.043 653.933 363.475 654.056 364.03 654.056ZM373.486 655.192C372.729 655.192 372.046 655.021 371.438 654.68C370.841 654.328 370.366 653.843 370.014 653.224C369.673 652.595 369.502 651.864 369.502 651.032C369.502 650.2 369.673 649.475 370.014 648.856C370.366 648.227 370.841 647.741 371.438 647.4C372.046 647.048 372.729 646.872 373.486 646.872C374.425 646.872 375.214 647.117 375.854 647.608C376.505 648.099 376.916 648.755 377.086 649.576H375.71C375.604 649.085 375.342 648.707 374.926 648.44C374.51 648.163 374.025 648.024 373.47 648.024C373.022 648.024 372.601 648.136 372.206 648.36C371.812 648.584 371.492 648.92 371.246 649.368C371.001 649.816 370.878 650.371 370.878 651.032C370.878 651.693 371.001 652.248 371.246 652.696C371.492 653.144 371.812 653.485 372.206 653.72C372.601 653.944 373.022 654.056 373.47 654.056C374.025 654.056 374.51 653.923 374.926 653.656C375.342 653.379 375.604 652.989 375.71 652.488H377.086C376.926 653.288 376.521 653.939 375.87 654.44C375.22 654.941 374.425 655.192 373.486 655.192ZM382.531 655.192C381.774 655.192 381.102 655.021 380.515 654.68C379.929 654.328 379.465 653.843 379.123 653.224C378.793 652.605 378.627 651.875 378.627 651.032C378.627 650.2 378.793 649.475 379.123 648.856C379.454 648.227 379.913 647.741 380.499 647.4C381.097 647.048 381.785 646.872 382.563 646.872C383.331 646.872 383.993 647.048 384.547 647.4C385.113 647.741 385.545 648.195 385.843 648.76C386.142 649.325 386.291 649.933 386.291 650.584C386.291 650.701 386.286 650.819 386.275 650.936C386.275 651.053 386.275 651.187 386.275 651.336H379.955C379.987 651.944 380.126 652.451 380.371 652.856C380.627 653.251 380.942 653.549 381.315 653.752C381.699 653.955 382.105 654.056 382.531 654.056C383.086 654.056 383.55 653.928 383.923 653.672C384.297 653.416 384.569 653.069 384.739 652.632H386.067C385.854 653.368 385.443 653.981 384.835 654.472C384.238 654.952 383.47 655.192 382.531 655.192ZM382.531 648.008C381.891 648.008 381.321 648.205 380.819 648.6C380.329 648.984 380.046 649.549 379.971 650.296H384.963C384.931 649.581 384.686 649.021 384.227 648.616C383.769 648.211 383.203 648.008 382.531 648.008Z" fill="white"/>
<defs>
<linearGradient id="paint0_linear_35_163" x1="755" y1="-327.552" x2="962.584" y2="-298.014" gradientUnits="userSpaceOnUse">
<stop stop-color="#02EC88"/>
<stop offset="1" stop-color="#5CB25D"/>
</linearGradient>
<linearGradient id="paint1_linear_35_163" x1="640" y1="442.721" x2="532.097" y2="336.846" gradientUnits="userSpaceOnUse">
<stop stop-color="#02EC88"/>
<stop offset="1" stop-color="#5CB25D"/>
</linearGradient>
<linearGradient id="paint2_linear_35_163" x1="296" y1="872.025" x2="218.386" y2="769.977" gradientUnits="userSpaceOnUse">
<stop stop-color="#02EC88"/>
<stop offset="1" stop-color="#5CB25D"/>
</linearGradient>
<linearGradient id="paint3_linear_35_163" x1="895.431" y1="247.875" x2="850.878" y2="449.833" gradientUnits="userSpaceOnUse">
<stop stop-color="#02EC88"/>
<stop offset="1" stop-color="#5CB25D"/>
</linearGradient>
<linearGradient id="paint4_linear_35_163" x1="40" y1="-1.97518" x2="241.469" y2="43.6173" gradientUnits="userSpaceOnUse">
<stop stop-color="#02EC88"/>
<stop offset="1" stop-color="#5CB25D"/>
</linearGradient>
<linearGradient id="paint5_linear_35_163" x1="406.283" y1="828" x2="319.822" y2="995.031" gradientUnits="userSpaceOnUse">
<stop stop-color="#02EC88"/>
<stop offset="1" stop-color="#5CB25D"/>
</linearGradient>
<linearGradient id="paint6_linear_35_163" x1="877" y1="440.653" x2="769.097" y2="334.779" gradientUnits="userSpaceOnUse">
<stop stop-color="#02EC88"/>
<stop offset="1" stop-color="#5CB25D"/>
</linearGradient>
<linearGradient id="paint7_linear_35_163" x1="1219" y1="872.025" x2="1141.39" y2="769.977" gradientUnits="userSpaceOnUse">
<stop stop-color="#02EC88"/>
<stop offset="1" stop-color="#5CB25D"/>
</linearGradient>
<linearGradient id="paint8_linear_35_163" x1="1728.43" y1="247" x2="1683.88" y2="448.958" gradientUnits="userSpaceOnUse">
<stop stop-color="#02EC88"/>
<stop offset="1" stop-color="#5CB25D"/>
</linearGradient>
<linearGradient id="paint9_linear_35_163" x1="1581.28" y1="828" x2="1494.82" y2="995.031" gradientUnits="userSpaceOnUse">
<stop stop-color="#02EC88"/>
<stop offset="1" stop-color="#5CB25D"/>
</linearGradient>
<linearGradient id="paint10_linear_35_163" x1="1471" y1="-1.97518" x2="1672.47" y2="43.6173" gradientUnits="userSpaceOnUse">
<stop stop-color="#02EC88"/>
<stop offset="1" stop-color="#5CB25D"/>
</linearGradient>
<clipPath id="clip0_35_163">
<rect width="324" height="925" fill="white" transform="translate(594 70)"/>
</clipPath>
</defs>
</svg>
