<svg width="1512" height="925" viewBox="0 0 1512 925" fill="none" xmlns="http://www.w3.org/2000/svg">
<rect width="1512" height="925" fill="white"/>
<line x1="638.5" y1="315.067" x2="638.5" y2="181.067" stroke="#5CB25D"/>
<line x1="294.5" y1="759" x2="294.5" y2="659" stroke="#5CB25D"/>
<line x1="639.001" y1="179.375" x2="43.0015" y2="179.375" stroke="#5CB25D"/>
<line x1="42" y1="178" x2="42" y2="759" stroke="#5CB25D" stroke-width="2"/>
<line x1="297" y1="759.5" x2="43" y2="759.5" stroke="#5CB25D"/>
<line x1="875.5" y1="313" x2="875.5" y2="179" stroke="#5CB25D"/>
<line x1="1217.5" y1="759" x2="1217.5" y2="659" stroke="#5CB25D"/>
<line x1="1472" y1="178.5" x2="876" y2="178.5" stroke="#5CB25D"/>
<line x1="1472" y1="759.5" x2="1218" y2="759.5" stroke="#5CB25D"/>
<line x1="1472.5" y1="178" x2="1472.5" y2="759" stroke="#5CB25D"/>
<g clip-path="url(#clip0_35_380)">
<rect width="324" height="925" transform="translate(594)" fill="#212121"/>
<line x1="756.5" y1="-0.00111389" x2="756.5" y2="923.999" stroke="#5CB25D"/>
</g>
<rect width="1248" height="276" transform="translate(132 317)" fill="#212121"/>
<path d="M622.861 407V379H627.981V390.64H640.541V379H645.661V407H640.541V394.8H627.981V407H622.861ZM660.503 407.48C658.583 407.48 656.849 407.04 655.303 406.16C653.783 405.28 652.569 404.067 651.663 402.52C650.783 400.947 650.343 399.133 650.343 397.08C650.343 395.027 650.796 393.227 651.703 391.68C652.609 390.107 653.823 388.88 655.343 388C656.889 387.12 658.623 386.68 660.543 386.68C662.436 386.68 664.143 387.12 665.663 388C667.209 388.88 668.423 390.107 669.303 391.68C670.209 393.227 670.663 395.027 670.663 397.08C670.663 399.133 670.209 400.947 669.303 402.52C668.423 404.067 667.209 405.28 665.663 406.16C664.116 407.04 662.396 407.48 660.503 407.48ZM660.503 403.04C661.836 403.04 662.996 402.547 663.983 401.56C664.969 400.547 665.463 399.053 665.463 397.08C665.463 395.107 664.969 393.627 663.983 392.64C662.996 391.627 661.849 391.12 660.543 391.12C659.183 391.12 658.009 391.627 657.023 392.64C656.063 393.627 655.583 395.107 655.583 397.08C655.583 399.053 656.063 400.547 657.023 401.56C658.009 402.547 659.169 403.04 660.503 403.04ZM678.418 407L672.618 387.16H677.698L681.138 401.44L685.138 387.16H690.818L694.818 401.44L698.298 387.16H703.378L697.538 407H692.218L687.978 392.16L683.738 407H678.418ZM718.899 384.08C717.966 384.08 717.192 383.8 716.579 383.24C715.992 382.68 715.699 381.973 715.699 381.12C715.699 380.267 715.992 379.573 716.579 379.04C717.192 378.48 717.966 378.2 718.899 378.2C719.832 378.2 720.592 378.48 721.179 379.04C721.792 379.573 722.099 380.267 722.099 381.12C722.099 381.973 721.792 382.68 721.179 383.24C720.592 383.8 719.832 384.08 718.899 384.08ZM716.339 407V387.16H721.459V407H716.339ZM735.643 407C733.563 407 731.896 406.493 730.643 405.48C729.39 404.467 728.763 402.667 728.763 400.08V391.44H725.363V387.16H728.763L729.363 381.84H733.883V387.16H739.243V391.44H733.883V400.12C733.883 401.08 734.083 401.747 734.483 402.12C734.91 402.467 735.63 402.64 736.643 402.64H739.123V407H735.643ZM758.97 407L751.57 379H757.05L762.09 401.28L768.01 379H773.65L779.41 401.28L784.45 379H789.97L782.37 407H776.29L770.73 386.24L765.01 407H758.97ZM800.972 407.48C799.052 407.48 797.318 407.04 795.772 406.16C794.252 405.28 793.038 404.067 792.132 402.52C791.252 400.947 790.812 399.133 790.812 397.08C790.812 395.027 791.265 393.227 792.172 391.68C793.078 390.107 794.292 388.88 795.812 388C797.358 387.12 799.092 386.68 801.012 386.68C802.905 386.68 804.612 387.12 806.132 388C807.678 388.88 808.892 390.107 809.772 391.68C810.678 393.227 811.132 395.027 811.132 397.08C811.132 399.133 810.678 400.947 809.772 402.52C808.892 404.067 807.678 405.28 806.132 406.16C804.585 407.04 802.865 407.48 800.972 407.48ZM800.972 403.04C802.305 403.04 803.465 402.547 804.452 401.56C805.438 400.547 805.932 399.053 805.932 397.08C805.932 395.107 805.438 393.627 804.452 392.64C803.465 391.627 802.318 391.12 801.012 391.12C799.652 391.12 798.478 391.627 797.492 392.64C796.532 393.627 796.052 395.107 796.052 397.08C796.052 399.053 796.532 400.547 797.492 401.56C798.478 402.547 799.638 403.04 800.972 403.04ZM815.709 407V387.16H820.269L820.749 390.88C821.469 389.6 822.443 388.587 823.669 387.84C824.923 387.067 826.389 386.68 828.069 386.68V392.08H826.629C825.509 392.08 824.509 392.253 823.629 392.6C822.749 392.947 822.056 393.547 821.549 394.4C821.069 395.253 820.829 396.44 820.829 397.96V407H815.709ZM831.569 407V378.2H836.689V395.2L843.729 387.16H849.809L841.689 396.2L851.129 407H844.729L836.689 397.04V407H831.569ZM861.527 407.48C859.767 407.48 858.22 407.2 856.887 406.64C855.553 406.053 854.487 405.253 853.687 404.24C852.887 403.227 852.407 402.053 852.247 400.72H857.407C857.567 401.493 857.993 402.16 858.687 402.72C859.407 403.253 860.327 403.52 861.447 403.52C862.567 403.52 863.38 403.293 863.887 402.84C864.42 402.387 864.687 401.867 864.687 401.28C864.687 400.427 864.313 399.853 863.567 399.56C862.82 399.24 861.78 398.933 860.447 398.64C859.593 398.453 858.727 398.227 857.847 397.96C856.967 397.693 856.153 397.36 855.407 396.96C854.687 396.533 854.1 396 853.647 395.36C853.193 394.693 852.967 393.88 852.967 392.92C852.967 391.16 853.66 389.68 855.047 388.48C856.46 387.28 858.433 386.68 860.967 386.68C863.313 386.68 865.18 387.227 866.567 388.32C867.98 389.413 868.82 390.92 869.087 392.84H864.247C863.953 391.373 862.847 390.64 860.927 390.64C859.967 390.64 859.22 390.827 858.687 391.2C858.18 391.573 857.927 392.04 857.927 392.6C857.927 393.187 858.313 393.653 859.087 394C859.86 394.347 860.887 394.667 862.167 394.96C863.553 395.28 864.82 395.64 865.967 396.04C867.14 396.413 868.073 396.987 868.767 397.76C869.46 398.507 869.807 399.587 869.807 401C869.833 402.227 869.513 403.333 868.847 404.32C868.18 405.307 867.22 406.08 865.967 406.64C864.713 407.2 863.233 407.48 861.527 407.48ZM876.246 398.28L876.086 391.68H877.926C879.286 391.68 880.526 391.56 881.646 391.32C882.766 391.08 883.659 390.613 884.326 389.92C884.992 389.227 885.326 388.213 885.326 386.88C885.326 385.6 884.939 384.6 884.166 383.88C883.392 383.133 882.366 382.76 881.086 382.76C879.752 382.76 878.712 383.133 877.966 383.88C877.219 384.6 876.846 385.587 876.846 386.84H872.006C871.979 385.24 872.326 383.813 873.046 382.56C873.766 381.307 874.806 380.32 876.166 379.6C877.552 378.88 879.206 378.52 881.126 378.52C882.912 378.52 884.486 378.853 885.846 379.52C887.232 380.187 888.312 381.147 889.086 382.4C889.886 383.627 890.286 385.133 890.286 386.92C890.286 388.76 889.872 390.28 889.046 391.48C888.246 392.68 887.139 393.573 885.726 394.16C884.339 394.747 882.726 395.053 880.886 395.08L880.766 398.28H876.246ZM878.526 407.28C877.592 407.28 876.819 406.987 876.206 406.4C875.619 405.813 875.326 405.107 875.326 404.28C875.326 403.427 875.619 402.707 876.206 402.12C876.819 401.533 877.592 401.24 878.526 401.24C879.459 401.24 880.219 401.533 880.806 402.12C881.392 402.707 881.686 403.427 881.686 404.28C881.686 405.107 881.392 405.813 880.806 406.4C880.219 406.987 879.459 407.28 878.526 407.28Z" fill="white"/>
<g filter="url(#filter0_d_35_380)">
<rect x="1037" y="478" width="375" height="180" rx="8" fill="white"/>
<path d="M1165.67 556C1164.96 556 1164.28 556.281 1163.78 556.781C1163.28 557.281 1163 557.959 1163 558.667V577.333C1163 578.041 1163.28 578.719 1163.78 579.219C1164.28 579.719 1164.96 580 1165.67 580H1184.33C1185.04 580 1185.72 579.719 1186.22 579.219C1186.72 578.719 1187 578.041 1187 577.333V574.293C1187.4 574.061 1187.74 573.727 1187.97 573.324C1188.21 572.922 1188.33 572.465 1188.33 572V564C1188.33 563.535 1188.21 563.078 1187.97 562.676C1187.74 562.273 1187.4 561.939 1187 561.707V558.667C1187 557.959 1186.72 557.281 1186.22 556.781C1185.72 556.281 1185.04 556 1184.33 556H1165.67ZM1165.67 558.667H1184.33V561.333H1176.33C1175.63 561.333 1174.95 561.614 1174.45 562.114C1173.95 562.614 1173.67 563.293 1173.67 564V572C1173.67 572.707 1173.95 573.386 1174.45 573.886C1174.95 574.386 1175.63 574.667 1176.33 574.667H1184.33V577.333H1165.67V558.667ZM1176.33 564H1185.67V572H1176.33V564ZM1180.33 566C1179.8 566 1179.29 566.211 1178.92 566.586C1178.54 566.961 1178.33 567.47 1178.33 568C1178.33 568.53 1178.54 569.039 1178.92 569.414C1179.29 569.789 1179.8 570 1180.33 570C1180.86 570 1181.37 569.789 1181.75 569.414C1182.12 569.039 1182.33 568.53 1182.33 568C1182.33 567.47 1182.12 566.961 1181.75 566.586C1181.37 566.211 1180.86 566 1180.33 566Z" fill="#1F1F1F"/>
<path d="M1228.18 573V561.8H1232.12C1232.91 561.8 1233.56 561.928 1234.07 562.184C1234.59 562.429 1234.98 562.771 1235.24 563.208C1235.5 563.635 1235.62 564.115 1235.62 564.648C1235.62 565.373 1235.43 565.944 1235.03 566.36C1234.65 566.776 1234.18 567.064 1233.64 567.224C1234.06 567.299 1234.43 567.464 1234.78 567.72C1235.12 567.976 1235.38 568.296 1235.58 568.68C1235.78 569.064 1235.88 569.485 1235.88 569.944C1235.88 570.509 1235.74 571.027 1235.46 571.496C1235.19 571.955 1234.78 572.323 1234.23 572.6C1233.69 572.867 1233.03 573 1232.25 573H1228.18ZM1229.53 566.696H1232.02C1232.74 566.696 1233.29 566.531 1233.67 566.2C1234.06 565.859 1234.25 565.389 1234.25 564.792C1234.25 564.227 1234.06 563.773 1233.67 563.432C1233.3 563.091 1232.73 562.92 1231.98 562.92H1229.53V566.696ZM1229.53 571.88H1232.1C1232.87 571.88 1233.46 571.704 1233.88 571.352C1234.3 570.989 1234.5 570.488 1234.5 569.848C1234.5 569.219 1234.29 568.717 1233.85 568.344C1233.41 567.96 1232.82 567.768 1232.07 567.768H1229.53V571.88ZM1240.62 573.192C1239.69 573.192 1238.94 572.909 1238.39 572.344C1237.83 571.768 1237.55 570.888 1237.55 569.704V565.064H1238.9V569.56C1238.9 571.213 1239.57 572.04 1240.93 572.04C1241.62 572.04 1242.19 571.795 1242.64 571.304C1243.1 570.803 1243.33 570.093 1243.33 569.176V565.064H1244.67V573H1243.46L1243.36 571.576C1243.12 572.077 1242.75 572.472 1242.26 572.76C1241.78 573.048 1241.23 573.192 1240.62 573.192ZM1247.7 563.304C1247.43 563.304 1247.21 563.219 1247.03 563.048C1246.86 562.867 1246.77 562.643 1246.77 562.376C1246.77 562.12 1246.86 561.907 1247.03 561.736C1247.21 561.565 1247.43 561.48 1247.7 561.48C1247.96 561.48 1248.18 561.565 1248.36 561.736C1248.54 561.907 1248.63 562.12 1248.63 562.376C1248.63 562.643 1248.54 562.867 1248.36 563.048C1248.18 563.219 1247.96 563.304 1247.7 563.304ZM1247.03 573V565.064H1248.37V573H1247.03ZM1250.71 573V561.48H1252.06V573H1250.71ZM1257.86 573.192C1257.07 573.192 1256.38 573.011 1255.78 572.648C1255.19 572.285 1254.73 571.789 1254.4 571.16C1254.08 570.531 1253.92 569.816 1253.92 569.016C1253.92 568.216 1254.09 567.507 1254.42 566.888C1254.75 566.259 1255.21 565.768 1255.8 565.416C1256.38 565.053 1257.08 564.872 1257.88 564.872C1258.53 564.872 1259.1 565.005 1259.6 565.272C1260.11 565.539 1260.49 565.912 1260.77 566.392V561.48H1262.12V573H1260.9L1260.77 571.688C1260.52 572.072 1260.15 572.419 1259.67 572.728C1259.19 573.037 1258.59 573.192 1257.86 573.192ZM1258 572.024C1258.54 572.024 1259.01 571.901 1259.41 571.656C1259.83 571.4 1260.15 571.048 1260.37 570.6C1260.61 570.152 1260.72 569.629 1260.72 569.032C1260.72 568.435 1260.61 567.912 1260.37 567.464C1260.15 567.016 1259.83 566.669 1259.41 566.424C1259.01 566.168 1258.54 566.04 1258 566.04C1257.48 566.04 1257.01 566.168 1256.6 566.424C1256.19 566.669 1255.87 567.016 1255.64 567.464C1255.41 567.912 1255.3 568.435 1255.3 569.032C1255.3 569.629 1255.41 570.152 1255.64 570.6C1255.87 571.048 1256.19 571.4 1256.6 571.656C1257.01 571.901 1257.48 572.024 1258 572.024ZM1268.62 573V561.8H1269.97V573H1268.62ZM1275.86 573.192C1275.07 573.192 1274.38 573.011 1273.78 572.648C1273.19 572.285 1272.73 571.789 1272.4 571.16C1272.08 570.531 1271.92 569.816 1271.92 569.016C1271.92 568.216 1272.09 567.507 1272.42 566.888C1272.75 566.259 1273.21 565.768 1273.8 565.416C1274.38 565.053 1275.08 564.872 1275.88 564.872C1276.53 564.872 1277.1 565.005 1277.6 565.272C1278.11 565.539 1278.49 565.912 1278.77 566.392V561.48H1280.12V573H1278.9L1278.77 571.688C1278.52 572.072 1278.15 572.419 1277.67 572.728C1277.19 573.037 1276.59 573.192 1275.86 573.192ZM1276 572.024C1276.54 572.024 1277.01 571.901 1277.41 571.656C1277.83 571.4 1278.15 571.048 1278.37 570.6C1278.61 570.152 1278.72 569.629 1278.72 569.032C1278.72 568.435 1278.61 567.912 1278.37 567.464C1278.15 567.016 1277.83 566.669 1277.41 566.424C1277.01 566.168 1276.54 566.04 1276 566.04C1275.48 566.04 1275.01 566.168 1274.6 566.424C1274.19 566.669 1273.87 567.016 1273.64 567.464C1273.41 567.912 1273.3 568.435 1273.3 569.032C1273.3 569.629 1273.41 570.152 1273.64 570.6C1273.87 571.048 1274.19 571.4 1274.6 571.656C1275.01 571.901 1275.48 572.024 1276 572.024ZM1285.88 573.192C1285.12 573.192 1284.45 573.021 1283.86 572.68C1283.27 572.328 1282.81 571.843 1282.47 571.224C1282.14 570.605 1281.97 569.875 1281.97 569.032C1281.97 568.2 1282.14 567.475 1282.47 566.856C1282.8 566.227 1283.26 565.741 1283.84 565.4C1284.44 565.048 1285.13 564.872 1285.91 564.872C1286.68 564.872 1287.34 565.048 1287.89 565.4C1288.46 565.741 1288.89 566.195 1289.19 566.76C1289.49 567.325 1289.64 567.933 1289.64 568.584C1289.64 568.701 1289.63 568.819 1289.62 568.936C1289.62 569.053 1289.62 569.187 1289.62 569.336H1283.3C1283.33 569.944 1283.47 570.451 1283.72 570.856C1283.97 571.251 1284.29 571.549 1284.66 571.752C1285.04 571.955 1285.45 572.056 1285.88 572.056C1286.43 572.056 1286.89 571.928 1287.27 571.672C1287.64 571.416 1287.91 571.069 1288.08 570.632H1289.41C1289.2 571.368 1288.79 571.981 1288.18 572.472C1287.58 572.952 1286.81 573.192 1285.88 573.192ZM1285.88 566.008C1285.24 566.008 1284.66 566.205 1284.16 566.6C1283.67 566.984 1283.39 567.549 1283.32 568.296H1288.31C1288.28 567.581 1288.03 567.021 1287.57 566.616C1287.11 566.211 1286.55 566.008 1285.88 566.008ZM1294.06 573.192C1293.4 573.192 1292.85 573.08 1292.41 572.856C1291.97 572.632 1291.65 572.333 1291.43 571.96C1291.22 571.587 1291.11 571.181 1291.11 570.744C1291.11 569.933 1291.42 569.309 1292.04 568.872C1292.66 568.435 1293.5 568.216 1294.57 568.216H1296.71V568.12C1296.71 567.427 1296.53 566.904 1296.17 566.552C1295.81 566.189 1295.32 566.008 1294.71 566.008C1294.19 566.008 1293.74 566.141 1293.35 566.408C1292.98 566.664 1292.74 567.043 1292.65 567.544H1291.27C1291.33 566.968 1291.52 566.483 1291.85 566.088C1292.19 565.693 1292.61 565.395 1293.11 565.192C1293.61 564.979 1294.15 564.872 1294.71 564.872C1295.82 564.872 1296.65 565.171 1297.21 565.768C1297.77 566.355 1298.06 567.139 1298.06 568.12V573H1296.86L1296.78 571.576C1296.55 572.024 1296.22 572.408 1295.78 572.728C1295.36 573.037 1294.78 573.192 1294.06 573.192ZM1294.26 572.056C1294.78 572.056 1295.21 571.923 1295.58 571.656C1295.95 571.389 1296.23 571.043 1296.42 570.616C1296.62 570.189 1296.71 569.741 1296.71 569.272V569.256H1294.68C1293.89 569.256 1293.33 569.395 1293 569.672C1292.68 569.939 1292.52 570.275 1292.52 570.68C1292.52 571.096 1292.67 571.432 1292.97 571.688C1293.28 571.933 1293.71 572.056 1294.26 572.056ZM1303.11 573.192C1302.16 573.192 1301.37 572.952 1300.74 572.472C1300.12 571.992 1299.75 571.341 1299.64 570.52H1301.02C1301.1 570.936 1301.32 571.299 1301.67 571.608C1302.04 571.907 1302.52 572.056 1303.13 572.056C1303.69 572.056 1304.11 571.939 1304.38 571.704C1304.64 571.459 1304.78 571.171 1304.78 570.84C1304.78 570.36 1304.6 570.04 1304.25 569.88C1303.91 569.72 1303.42 569.576 1302.79 569.448C1302.37 569.363 1301.94 569.24 1301.51 569.08C1301.09 568.92 1300.73 568.696 1300.44 568.408C1300.15 568.109 1300.01 567.72 1300.01 567.24C1300.01 566.547 1300.26 565.981 1300.78 565.544C1301.3 565.096 1302 564.872 1302.89 564.872C1303.73 564.872 1304.42 565.085 1304.95 565.512C1305.5 565.928 1305.81 566.525 1305.9 567.304H1304.57C1304.52 566.899 1304.34 566.584 1304.04 566.36C1303.75 566.125 1303.36 566.008 1302.87 566.008C1302.39 566.008 1302.02 566.109 1301.75 566.312C1301.5 566.515 1301.37 566.781 1301.37 567.112C1301.37 567.432 1301.53 567.683 1301.86 567.864C1302.21 568.045 1302.66 568.2 1303.24 568.328C1303.73 568.435 1304.2 568.568 1304.63 568.728C1305.08 568.877 1305.44 569.107 1305.72 569.416C1306.01 569.715 1306.15 570.152 1306.15 570.728C1306.16 571.443 1305.89 572.035 1305.34 572.504C1304.79 572.963 1304.05 573.192 1303.11 573.192ZM1308.36 569.896L1308.2 561.8H1309.66L1309.5 569.896H1308.36ZM1308.97 573.08C1308.7 573.08 1308.48 572.995 1308.3 572.824C1308.13 572.643 1308.04 572.424 1308.04 572.168C1308.04 571.912 1308.13 571.699 1308.3 571.528C1308.48 571.347 1308.7 571.256 1308.97 571.256C1309.22 571.256 1309.44 571.347 1309.61 571.528C1309.79 571.699 1309.88 571.912 1309.88 572.168C1309.88 572.424 1309.79 572.643 1309.61 572.824C1309.44 572.995 1309.22 573.08 1308.97 573.08Z" fill="#1F1F1F"/>
</g>
<g filter="url(#filter1_d_35_380)">
<rect x="568" y="453" width="375" height="180" rx="8" fill="white"/>
<path d="M674.167 544.333V534.665C674.167 534.56 674.146 534.456 674.106 534.359C674.065 534.261 674.006 534.173 673.932 534.099L669.735 529.901C669.585 529.751 669.381 529.667 669.169 529.667H653.633C653.421 529.667 653.218 529.751 653.068 529.901C652.918 530.051 652.833 530.255 652.833 530.467V555.533C652.833 555.746 652.918 555.949 653.068 556.099C653.218 556.249 653.421 556.333 653.633 556.333H666.167" stroke="#1F1F1F" stroke-width="1.5" stroke-linecap="round" stroke-linejoin="round"/>
<path d="M668.833 529.667V534.2C668.833 534.412 668.918 534.616 669.068 534.766C669.218 534.916 669.421 535 669.633 535H674.167M668.833 552.333H676.833M676.833 552.333L672.833 548.333M676.833 552.333L672.833 556.333" stroke="#1F1F1F" stroke-width="1.5" stroke-linecap="round" stroke-linejoin="round"/>
<path d="M715.98 548L720.108 536.8H721.532L725.644 548H724.22L723.196 545.12H718.428L717.388 548H715.98ZM718.828 544.032H722.796L720.812 538.496L718.828 544.032ZM730.391 548.192C729.602 548.192 728.909 548.011 728.312 547.648C727.725 547.285 727.266 546.789 726.936 546.16C726.616 545.531 726.456 544.816 726.456 544.016C726.456 543.216 726.621 542.507 726.952 541.888C727.282 541.259 727.741 540.768 728.328 540.416C728.914 540.053 729.608 539.872 730.408 539.872C731.058 539.872 731.634 540.005 732.136 540.272C732.637 540.539 733.026 540.912 733.304 541.392V536.48H734.648V548H733.432L733.304 546.688C733.048 547.072 732.68 547.419 732.2 547.728C731.72 548.037 731.117 548.192 730.391 548.192ZM730.536 547.024C731.069 547.024 731.538 546.901 731.944 546.656C732.36 546.4 732.68 546.048 732.904 545.6C733.138 545.152 733.256 544.629 733.256 544.032C733.256 543.435 733.138 542.912 732.904 542.464C732.68 542.016 732.36 541.669 731.944 541.424C731.538 541.168 731.069 541.04 730.536 541.04C730.013 541.04 729.544 541.168 729.128 541.424C728.722 541.669 728.402 542.016 728.168 542.464C727.944 542.912 727.832 543.435 727.832 544.032C727.832 544.629 727.944 545.152 728.168 545.6C728.402 546.048 728.722 546.4 729.128 546.656C729.544 546.901 730.013 547.024 730.536 547.024ZM740.438 548.192C739.649 548.192 738.956 548.011 738.358 547.648C737.772 547.285 737.313 546.789 736.982 546.16C736.662 545.531 736.502 544.816 736.502 544.016C736.502 543.216 736.668 542.507 736.998 541.888C737.329 541.259 737.788 540.768 738.374 540.416C738.961 540.053 739.654 539.872 740.454 539.872C741.105 539.872 741.681 540.005 742.182 540.272C742.684 540.539 743.073 540.912 743.35 541.392V536.48H744.694V548H743.478L743.35 546.688C743.094 547.072 742.726 547.419 742.246 547.728C741.766 548.037 741.164 548.192 740.438 548.192ZM740.582 547.024C741.116 547.024 741.585 546.901 741.99 546.656C742.406 546.4 742.726 546.048 742.95 545.6C743.185 545.152 743.302 544.629 743.302 544.032C743.302 543.435 743.185 542.912 742.95 542.464C742.726 542.016 742.406 541.669 741.99 541.424C741.585 541.168 741.116 541.04 740.582 541.04C740.06 541.04 739.59 541.168 739.174 541.424C738.769 541.669 738.449 542.016 738.214 542.464C737.99 542.912 737.878 543.435 737.878 544.032C737.878 544.629 737.99 545.152 738.214 545.6C738.449 546.048 738.769 546.4 739.174 546.656C739.59 546.901 740.06 547.024 740.582 547.024ZM754.256 548C753.53 548 752.96 547.824 752.544 547.472C752.128 547.12 751.92 546.485 751.92 545.568V541.2H750.544V540.064H751.92L752.096 538.16H753.264V540.064H755.6V541.2H753.264V545.568C753.264 546.069 753.365 546.411 753.568 546.592C753.77 546.763 754.128 546.848 754.64 546.848H755.472V548H754.256ZM760.656 548.192C759.899 548.192 759.227 548.021 758.64 547.68C758.054 547.328 757.59 546.843 757.248 546.224C756.918 545.605 756.752 544.875 756.752 544.032C756.752 543.2 756.918 542.475 757.248 541.856C757.579 541.227 758.038 540.741 758.624 540.4C759.222 540.048 759.91 539.872 760.688 539.872C761.456 539.872 762.118 540.048 762.672 540.4C763.238 540.741 763.67 541.195 763.968 541.76C764.267 542.325 764.416 542.933 764.416 543.584C764.416 543.701 764.411 543.819 764.4 543.936C764.4 544.053 764.4 544.187 764.4 544.336H758.08C758.112 544.944 758.251 545.451 758.496 545.856C758.752 546.251 759.067 546.549 759.44 546.752C759.824 546.955 760.23 547.056 760.656 547.056C761.211 547.056 761.675 546.928 762.048 546.672C762.422 546.416 762.694 546.069 762.864 545.632H764.192C763.979 546.368 763.568 546.981 762.96 547.472C762.363 547.952 761.595 548.192 760.656 548.192ZM760.656 541.008C760.016 541.008 759.446 541.205 758.944 541.6C758.454 541.984 758.171 542.549 758.096 543.296H763.088C763.056 542.581 762.811 542.021 762.352 541.616C761.894 541.211 761.328 541.008 760.656 541.008ZM768.838 548.192C768.176 548.192 767.627 548.08 767.19 547.856C766.752 547.632 766.427 547.333 766.214 546.96C766 546.587 765.894 546.181 765.894 545.744C765.894 544.933 766.203 544.309 766.822 543.872C767.44 543.435 768.283 543.216 769.35 543.216H771.494V543.12C771.494 542.427 771.312 541.904 770.95 541.552C770.587 541.189 770.102 541.008 769.494 541.008C768.971 541.008 768.518 541.141 768.134 541.408C767.76 541.664 767.526 542.043 767.43 542.544H766.054C766.107 541.968 766.299 541.483 766.63 541.088C766.971 540.693 767.392 540.395 767.894 540.192C768.395 539.979 768.928 539.872 769.494 539.872C770.603 539.872 771.435 540.171 771.99 540.768C772.555 541.355 772.838 542.139 772.838 543.12V548H771.638L771.558 546.576C771.334 547.024 771.003 547.408 770.566 547.728C770.139 548.037 769.563 548.192 768.838 548.192ZM769.046 547.056C769.558 547.056 769.995 546.923 770.358 546.656C770.731 546.389 771.014 546.043 771.206 545.616C771.398 545.189 771.494 544.741 771.494 544.272V544.256H769.462C768.672 544.256 768.112 544.395 767.782 544.672C767.462 544.939 767.302 545.275 767.302 545.68C767.302 546.096 767.451 546.432 767.75 546.688C768.059 546.933 768.491 547.056 769.046 547.056ZM774.854 548V540.064H776.07L776.166 541.216C776.422 540.789 776.763 540.459 777.19 540.224C777.617 539.989 778.097 539.872 778.63 539.872C779.259 539.872 779.798 540 780.246 540.256C780.705 540.512 781.057 540.901 781.302 541.424C781.579 540.944 781.958 540.565 782.438 540.288C782.929 540.011 783.457 539.872 784.022 539.872C784.971 539.872 785.729 540.16 786.294 540.736C786.859 541.301 787.142 542.176 787.142 543.36V548H785.814V543.504C785.814 542.683 785.649 542.064 785.318 541.648C784.987 541.232 784.513 541.024 783.894 541.024C783.254 541.024 782.721 541.275 782.294 541.776C781.878 542.267 781.67 542.971 781.67 543.888V548H780.326V543.504C780.326 542.683 780.161 542.064 779.83 541.648C779.499 541.232 779.025 541.024 778.406 541.024C777.777 541.024 777.249 541.275 776.822 541.776C776.406 542.267 776.198 542.971 776.198 543.888V548H774.854ZM793.401 548V540.064H794.617L794.713 541.216C794.969 540.789 795.31 540.459 795.737 540.224C796.164 539.989 796.644 539.872 797.177 539.872C797.806 539.872 798.345 540 798.793 540.256C799.252 540.512 799.604 540.901 799.849 541.424C800.126 540.944 800.505 540.565 800.985 540.288C801.476 540.011 802.004 539.872 802.569 539.872C803.518 539.872 804.276 540.16 804.841 540.736C805.406 541.301 805.689 542.176 805.689 543.36V548H804.361V543.504C804.361 542.683 804.196 542.064 803.865 541.648C803.534 541.232 803.06 541.024 802.441 541.024C801.801 541.024 801.268 541.275 800.841 541.776C800.425 542.267 800.217 542.971 800.217 543.888V548H798.873V543.504C798.873 542.683 798.708 542.064 798.377 541.648C798.046 541.232 797.572 541.024 796.953 541.024C796.324 541.024 795.796 541.275 795.369 541.776C794.953 542.267 794.745 542.971 794.745 543.888V548H793.401ZM811.281 548.192C810.524 548.192 809.852 548.021 809.265 547.68C808.679 547.328 808.215 546.843 807.873 546.224C807.543 545.605 807.377 544.875 807.377 544.032C807.377 543.2 807.543 542.475 807.873 541.856C808.204 541.227 808.663 540.741 809.249 540.4C809.847 540.048 810.535 539.872 811.313 539.872C812.081 539.872 812.743 540.048 813.297 540.4C813.863 540.741 814.295 541.195 814.593 541.76C814.892 542.325 815.041 542.933 815.041 543.584C815.041 543.701 815.036 543.819 815.025 543.936C815.025 544.053 815.025 544.187 815.025 544.336H808.705C808.737 544.944 808.876 545.451 809.121 545.856C809.377 546.251 809.692 546.549 810.065 546.752C810.449 546.955 810.855 547.056 811.281 547.056C811.836 547.056 812.3 546.928 812.673 546.672C813.047 546.416 813.319 546.069 813.489 545.632H814.817C814.604 546.368 814.193 546.981 813.585 547.472C812.988 547.952 812.22 548.192 811.281 548.192ZM811.281 541.008C810.641 541.008 810.071 541.205 809.569 541.6C809.079 541.984 808.796 542.549 808.721 543.296H813.713C813.681 542.581 813.436 542.021 812.977 541.616C812.519 541.211 811.953 541.008 811.281 541.008ZM816.823 548V540.064H818.039L818.135 541.216C818.391 540.789 818.732 540.459 819.159 540.224C819.585 539.989 820.065 539.872 820.599 539.872C821.228 539.872 821.767 540 822.215 540.256C822.673 540.512 823.025 540.901 823.271 541.424C823.548 540.944 823.927 540.565 824.407 540.288C824.897 540.011 825.425 539.872 825.991 539.872C826.94 539.872 827.697 540.16 828.263 540.736C828.828 541.301 829.111 542.176 829.111 543.36V548H827.783V543.504C827.783 542.683 827.617 542.064 827.287 541.648C826.956 541.232 826.481 541.024 825.863 541.024C825.223 541.024 824.689 541.275 824.263 541.776C823.847 542.267 823.639 542.971 823.639 543.888V548H822.295V543.504C822.295 542.683 822.129 542.064 821.799 541.648C821.468 541.232 820.993 541.024 820.375 541.024C819.745 541.024 819.217 541.275 818.791 541.776C818.375 542.267 818.167 542.971 818.167 543.888V548H816.823ZM835.375 548.192C834.725 548.192 834.143 548.059 833.631 547.792C833.13 547.525 832.746 547.152 832.479 546.672L832.351 548H831.135V536.48H832.479V541.376C832.735 540.992 833.098 540.645 833.567 540.336C834.047 540.027 834.655 539.872 835.391 539.872C836.181 539.872 836.869 540.053 837.455 540.416C838.042 540.779 838.495 541.275 838.815 541.904C839.146 542.533 839.311 543.248 839.311 544.048C839.311 544.848 839.146 545.563 838.815 546.192C838.495 546.811 838.037 547.301 837.439 547.664C836.853 548.016 836.165 548.192 835.375 548.192ZM835.231 547.024C835.765 547.024 836.234 546.901 836.639 546.656C837.045 546.4 837.365 546.048 837.599 545.6C837.834 545.152 837.951 544.629 837.951 544.032C837.951 543.435 837.834 542.912 837.599 542.464C837.365 542.016 837.045 541.669 836.639 541.424C836.234 541.168 835.765 541.04 835.231 541.04C834.698 541.04 834.229 541.168 833.823 541.424C833.418 541.669 833.098 542.016 832.863 542.464C832.629 542.912 832.511 543.435 832.511 544.032C832.511 544.629 832.629 545.152 832.863 545.6C833.098 546.048 833.418 546.4 833.823 546.656C834.229 546.901 834.698 547.024 835.231 547.024ZM844.75 548.192C843.993 548.192 843.321 548.021 842.734 547.68C842.147 547.328 841.683 546.843 841.342 546.224C841.011 545.605 840.846 544.875 840.846 544.032C840.846 543.2 841.011 542.475 841.342 541.856C841.673 541.227 842.131 540.741 842.718 540.4C843.315 540.048 844.003 539.872 844.782 539.872C845.55 539.872 846.211 540.048 846.766 540.4C847.331 540.741 847.763 541.195 848.062 541.76C848.361 542.325 848.51 542.933 848.51 543.584C848.51 543.701 848.505 543.819 848.494 543.936C848.494 544.053 848.494 544.187 848.494 544.336H842.174C842.206 544.944 842.345 545.451 842.59 545.856C842.846 546.251 843.161 546.549 843.534 546.752C843.918 546.955 844.323 547.056 844.75 547.056C845.305 547.056 845.769 546.928 846.142 546.672C846.515 546.416 846.787 546.069 846.958 545.632H848.286C848.073 546.368 847.662 546.981 847.054 547.472C846.457 547.952 845.689 548.192 844.75 548.192ZM844.75 541.008C844.11 541.008 843.539 541.205 843.038 541.6C842.547 541.984 842.265 542.549 842.19 543.296H847.182C847.15 542.581 846.905 542.021 846.446 541.616C845.987 541.211 845.422 541.008 844.75 541.008ZM850.292 548V540.064H851.508L851.62 541.584C851.865 541.061 852.238 540.645 852.74 540.336C853.241 540.027 853.86 539.872 854.596 539.872V541.28H854.228C853.758 541.28 853.326 541.365 852.932 541.536C852.537 541.696 852.222 541.973 851.988 542.368C851.753 542.763 851.636 543.307 851.636 544V548H850.292ZM859.144 548.192C858.195 548.192 857.405 547.952 856.776 547.472C856.147 546.992 855.779 546.341 855.672 545.52H857.048C857.133 545.936 857.352 546.299 857.704 546.608C858.067 546.907 858.552 547.056 859.16 547.056C859.725 547.056 860.141 546.939 860.408 546.704C860.675 546.459 860.808 546.171 860.808 545.84C860.808 545.36 860.632 545.04 860.28 544.88C859.939 544.72 859.453 544.576 858.824 544.448C858.397 544.363 857.971 544.24 857.544 544.08C857.117 543.92 856.76 543.696 856.472 543.408C856.184 543.109 856.04 542.72 856.04 542.24C856.04 541.547 856.296 540.981 856.808 540.544C857.331 540.096 858.035 539.872 858.92 539.872C859.763 539.872 860.451 540.085 860.984 540.512C861.528 540.928 861.843 541.525 861.928 542.304H860.6C860.547 541.899 860.371 541.584 860.072 541.36C859.784 541.125 859.395 541.008 858.904 541.008C858.424 541.008 858.051 541.109 857.784 541.312C857.528 541.515 857.4 541.781 857.4 542.112C857.4 542.432 857.565 542.683 857.896 542.864C858.237 543.045 858.696 543.2 859.272 543.328C859.763 543.435 860.227 543.568 860.664 543.728C861.112 543.877 861.475 544.107 861.752 544.416C862.04 544.715 862.184 545.152 862.184 545.728C862.195 546.443 861.923 547.035 861.368 547.504C860.824 547.963 860.083 548.192 859.144 548.192Z" fill="#1F1F1F"/>
</g>
<g filter="url(#filter2_d_35_380)">
<rect x="100" y="478" width="375" height="180" rx="8" fill="white"/>
<path d="M169.667 560C169.667 560 173.06 553.333 179 553.333C184.939 553.333 188.333 560 188.333 560C188.333 560 184.939 566.667 179 566.667C173.06 566.667 169.667 560 169.667 560Z" stroke="#1F1F1F" stroke-width="2" stroke-linecap="round" stroke-linejoin="round"/>
<path d="M191 566.667V569.333C191 570.041 190.719 570.719 190.219 571.219C189.719 571.719 189.041 572 188.333 572H169.667C168.959 572 168.281 571.719 167.781 571.219C167.281 570.719 167 570.041 167 569.333V566.667M191 553.333V550.667C191 549.959 190.719 549.281 190.219 548.781C189.719 548.281 189.041 548 188.333 548H169.667C168.959 548 168.281 548.281 167.781 548.781C167.281 549.281 167 549.959 167 550.667V553.333M179 561.333C179.354 561.333 179.693 561.193 179.943 560.943C180.193 560.693 180.333 560.354 180.333 560C180.333 559.646 180.193 559.307 179.943 559.057C179.693 558.807 179.354 558.667 179 558.667C178.646 558.667 178.307 558.807 178.057 559.057C177.807 559.307 177.667 559.646 177.667 560C177.667 560.354 177.807 560.693 178.057 560.943C178.307 561.193 178.646 561.333 179 561.333Z" stroke="#1F1F1F" stroke-width="2" stroke-linecap="round" stroke-linejoin="round"/>
<path d="M237.096 565.192C235.997 565.192 235.048 564.952 234.248 564.472C233.459 563.981 232.845 563.304 232.408 562.44C231.971 561.565 231.752 560.552 231.752 559.4C231.752 558.259 231.971 557.256 232.408 556.392C232.845 555.517 233.459 554.835 234.248 554.344C235.048 553.853 235.997 553.608 237.096 553.608C238.376 553.608 239.416 553.917 240.216 554.536C241.027 555.144 241.544 555.997 241.768 557.096H240.28C240.109 556.403 239.757 555.848 239.224 555.432C238.701 555.005 237.992 554.792 237.096 554.792C236.296 554.792 235.597 554.979 235 555.352C234.403 555.715 233.939 556.243 233.608 556.936C233.288 557.619 233.128 558.44 233.128 559.4C233.128 560.36 233.288 561.187 233.608 561.88C233.939 562.563 234.403 563.091 235 563.464C235.597 563.827 236.296 564.008 237.096 564.008C237.992 564.008 238.701 563.805 239.224 563.4C239.757 562.984 240.109 562.435 240.28 561.752H241.768C241.544 562.829 241.027 563.672 240.216 564.28C239.416 564.888 238.376 565.192 237.096 565.192ZM243.62 565V557.064H244.836L244.948 558.584C245.193 558.061 245.566 557.645 246.068 557.336C246.569 557.027 247.188 556.872 247.924 556.872V558.28H247.556C247.086 558.28 246.654 558.365 246.26 558.536C245.865 558.696 245.55 558.973 245.316 559.368C245.081 559.763 244.964 560.307 244.964 561V565H243.62ZM252.703 565.192C251.946 565.192 251.274 565.021 250.687 564.68C250.101 564.328 249.637 563.843 249.295 563.224C248.965 562.605 248.799 561.875 248.799 561.032C248.799 560.2 248.965 559.475 249.295 558.856C249.626 558.227 250.085 557.741 250.671 557.4C251.269 557.048 251.957 556.872 252.735 556.872C253.503 556.872 254.165 557.048 254.719 557.4C255.285 557.741 255.717 558.195 256.015 558.76C256.314 559.325 256.463 559.933 256.463 560.584C256.463 560.701 256.458 560.819 256.447 560.936C256.447 561.053 256.447 561.187 256.447 561.336H250.127C250.159 561.944 250.298 562.451 250.543 562.856C250.799 563.251 251.114 563.549 251.487 563.752C251.871 563.955 252.277 564.056 252.703 564.056C253.258 564.056 253.722 563.928 254.095 563.672C254.469 563.416 254.741 563.069 254.911 562.632H256.239C256.026 563.368 255.615 563.981 255.007 564.472C254.41 564.952 253.642 565.192 252.703 565.192ZM252.703 558.008C252.063 558.008 251.493 558.205 250.991 558.6C250.501 558.984 250.218 559.549 250.143 560.296H255.135C255.103 559.581 254.858 559.021 254.399 558.616C253.941 558.211 253.375 558.008 252.703 558.008ZM260.885 565.192C260.223 565.192 259.674 565.08 259.237 564.856C258.799 564.632 258.474 564.333 258.261 563.96C258.047 563.587 257.941 563.181 257.941 562.744C257.941 561.933 258.25 561.309 258.869 560.872C259.487 560.435 260.33 560.216 261.397 560.216H263.541V560.12C263.541 559.427 263.359 558.904 262.997 558.552C262.634 558.189 262.149 558.008 261.541 558.008C261.018 558.008 260.565 558.141 260.181 558.408C259.807 558.664 259.573 559.043 259.477 559.544H258.101C258.154 558.968 258.346 558.483 258.677 558.088C259.018 557.693 259.439 557.395 259.941 557.192C260.442 556.979 260.975 556.872 261.541 556.872C262.65 556.872 263.482 557.171 264.037 557.768C264.602 558.355 264.885 559.139 264.885 560.12V565H263.685L263.605 563.576C263.381 564.024 263.05 564.408 262.613 564.728C262.186 565.037 261.61 565.192 260.885 565.192ZM261.093 564.056C261.605 564.056 262.042 563.923 262.405 563.656C262.778 563.389 263.061 563.043 263.253 562.616C263.445 562.189 263.541 561.741 263.541 561.272V561.256H261.509C260.719 561.256 260.159 561.395 259.829 561.672C259.509 561.939 259.349 562.275 259.349 562.68C259.349 563.096 259.498 563.432 259.797 563.688C260.106 563.933 260.538 564.056 261.093 564.056ZM269.818 565C269.093 565 268.522 564.824 268.106 564.472C267.69 564.12 267.482 563.485 267.482 562.568V558.2H266.106V557.064H267.482L267.658 555.16H268.826V557.064H271.162V558.2H268.826V562.568C268.826 563.069 268.927 563.411 269.13 563.592C269.333 563.763 269.69 563.848 270.202 563.848H271.034V565H269.818ZM276.219 565.192C275.462 565.192 274.79 565.021 274.203 564.68C273.616 564.328 273.152 563.843 272.811 563.224C272.48 562.605 272.315 561.875 272.315 561.032C272.315 560.2 272.48 559.475 272.811 558.856C273.142 558.227 273.6 557.741 274.187 557.4C274.784 557.048 275.472 556.872 276.251 556.872C277.019 556.872 277.68 557.048 278.235 557.4C278.8 557.741 279.232 558.195 279.531 558.76C279.83 559.325 279.979 559.933 279.979 560.584C279.979 560.701 279.974 560.819 279.963 560.936C279.963 561.053 279.963 561.187 279.963 561.336H273.643C273.675 561.944 273.814 562.451 274.059 562.856C274.315 563.251 274.63 563.549 275.003 563.752C275.387 563.955 275.792 564.056 276.219 564.056C276.774 564.056 277.238 563.928 277.611 563.672C277.984 563.416 278.256 563.069 278.427 562.632H279.755C279.542 563.368 279.131 563.981 278.523 564.472C277.926 564.952 277.158 565.192 276.219 565.192ZM276.219 558.008C275.579 558.008 275.008 558.205 274.507 558.6C274.016 558.984 273.734 559.549 273.659 560.296H278.651C278.619 559.581 278.374 559.021 277.915 558.616C277.456 558.211 276.891 558.008 276.219 558.008ZM288.379 565.016L285.307 553.8H286.747L289.163 563.416L291.915 553.8H293.403L296.075 563.416L298.523 553.8H299.963L296.827 565H295.291L292.619 555.752L289.883 565L288.379 565.016ZM304.267 565.192C303.52 565.192 302.848 565.021 302.251 564.68C301.654 564.339 301.179 563.859 300.827 563.24C300.486 562.611 300.315 561.875 300.315 561.032C300.315 560.189 300.491 559.459 300.843 558.84C301.195 558.211 301.67 557.725 302.267 557.384C302.875 557.043 303.552 556.872 304.299 556.872C305.046 556.872 305.718 557.043 306.315 557.384C306.912 557.725 307.382 558.211 307.723 558.84C308.075 559.459 308.251 560.189 308.251 561.032C308.251 561.875 308.075 562.611 307.723 563.24C307.371 563.859 306.891 564.339 306.283 564.68C305.686 565.021 305.014 565.192 304.267 565.192ZM304.267 564.04C304.726 564.04 305.152 563.928 305.547 563.704C305.942 563.48 306.262 563.144 306.507 562.696C306.752 562.248 306.875 561.693 306.875 561.032C306.875 560.371 306.752 559.816 306.507 559.368C306.272 558.92 305.958 558.584 305.563 558.36C305.168 558.136 304.747 558.024 304.299 558.024C303.84 558.024 303.414 558.136 303.019 558.36C302.624 558.584 302.304 558.92 302.059 559.368C301.814 559.816 301.691 560.371 301.691 561.032C301.691 561.693 301.814 562.248 302.059 562.696C302.304 563.144 302.619 563.48 303.003 563.704C303.398 563.928 303.819 564.04 304.267 564.04ZM310.12 565V557.064H311.336L311.448 558.584C311.693 558.061 312.066 557.645 312.568 557.336C313.069 557.027 313.688 556.872 314.424 556.872V558.28H314.056C313.586 558.28 313.154 558.365 312.76 558.536C312.365 558.696 312.05 558.973 311.816 559.368C311.581 559.763 311.464 560.307 311.464 561V565H310.12ZM315.932 565V553.48H317.276V560.408L320.524 557.064H322.172L318.652 560.648L322.62 565H320.908L317.276 560.888V565H315.932ZM326.566 565.192C325.617 565.192 324.827 564.952 324.198 564.472C323.569 563.992 323.201 563.341 323.094 562.52H324.47C324.555 562.936 324.774 563.299 325.126 563.608C325.489 563.907 325.974 564.056 326.582 564.056C327.147 564.056 327.563 563.939 327.83 563.704C328.097 563.459 328.23 563.171 328.23 562.84C328.23 562.36 328.054 562.04 327.702 561.88C327.361 561.72 326.875 561.576 326.246 561.448C325.819 561.363 325.393 561.24 324.966 561.08C324.539 560.92 324.182 560.696 323.894 560.408C323.606 560.109 323.462 559.72 323.462 559.24C323.462 558.547 323.718 557.981 324.23 557.544C324.753 557.096 325.457 556.872 326.342 556.872C327.185 556.872 327.873 557.085 328.406 557.512C328.95 557.928 329.265 558.525 329.35 559.304H328.022C327.969 558.899 327.793 558.584 327.494 558.36C327.206 558.125 326.817 558.008 326.326 558.008C325.846 558.008 325.473 558.109 325.206 558.312C324.95 558.515 324.822 558.781 324.822 559.112C324.822 559.432 324.987 559.683 325.318 559.864C325.659 560.045 326.118 560.2 326.694 560.328C327.185 560.435 327.649 560.568 328.086 560.728C328.534 560.877 328.897 561.107 329.174 561.416C329.462 561.715 329.606 562.152 329.606 562.728C329.617 563.443 329.345 564.035 328.79 564.504C328.246 564.963 327.505 565.192 326.566 565.192ZM331.526 568.52V557.064H332.742L332.87 558.376C333.126 557.992 333.489 557.645 333.958 557.336C334.438 557.027 335.046 556.872 335.782 556.872C336.571 556.872 337.259 557.053 337.846 557.416C338.433 557.779 338.886 558.275 339.206 558.904C339.537 559.533 339.702 560.248 339.702 561.048C339.702 561.848 339.537 562.563 339.206 563.192C338.886 563.811 338.427 564.301 337.83 564.664C337.243 565.016 336.555 565.192 335.766 565.192C335.115 565.192 334.534 565.059 334.022 564.792C333.521 564.525 333.137 564.152 332.87 563.672V568.52H331.526ZM335.622 564.024C336.155 564.024 336.625 563.901 337.03 563.656C337.435 563.4 337.755 563.048 337.99 562.6C338.225 562.152 338.342 561.629 338.342 561.032C338.342 560.435 338.225 559.912 337.99 559.464C337.755 559.016 337.435 558.669 337.03 558.424C336.625 558.168 336.155 558.04 335.622 558.04C335.089 558.04 334.619 558.168 334.214 558.424C333.809 558.669 333.489 559.016 333.254 559.464C333.019 559.912 332.902 560.435 332.902 561.032C332.902 561.629 333.019 562.152 333.254 562.6C333.489 563.048 333.809 563.4 334.214 563.656C334.619 563.901 335.089 564.024 335.622 564.024ZM344.213 565.192C343.551 565.192 343.002 565.08 342.565 564.856C342.127 564.632 341.802 564.333 341.589 563.96C341.375 563.587 341.269 563.181 341.269 562.744C341.269 561.933 341.578 561.309 342.197 560.872C342.815 560.435 343.658 560.216 344.725 560.216H346.869V560.12C346.869 559.427 346.687 558.904 346.325 558.552C345.962 558.189 345.477 558.008 344.869 558.008C344.346 558.008 343.893 558.141 343.509 558.408C343.135 558.664 342.901 559.043 342.805 559.544H341.429C341.482 558.968 341.674 558.483 342.005 558.088C342.346 557.693 342.767 557.395 343.269 557.192C343.77 556.979 344.303 556.872 344.869 556.872C345.978 556.872 346.81 557.171 347.365 557.768C347.93 558.355 348.213 559.139 348.213 560.12V565H347.013L346.933 563.576C346.709 564.024 346.378 564.408 345.941 564.728C345.514 565.037 344.938 565.192 344.213 565.192ZM344.421 564.056C344.933 564.056 345.37 563.923 345.733 563.656C346.106 563.389 346.389 563.043 346.581 562.616C346.773 562.189 346.869 561.741 346.869 561.272V561.256H344.837C344.047 561.256 343.487 561.395 343.157 561.672C342.837 561.939 342.677 562.275 342.677 562.68C342.677 563.096 342.826 563.432 343.125 563.688C343.434 563.933 343.866 564.056 344.421 564.056ZM353.877 565.192C353.12 565.192 352.437 565.021 351.829 564.68C351.232 564.328 350.757 563.843 350.405 563.224C350.064 562.595 349.893 561.864 349.893 561.032C349.893 560.2 350.064 559.475 350.405 558.856C350.757 558.227 351.232 557.741 351.829 557.4C352.437 557.048 353.12 556.872 353.877 556.872C354.816 556.872 355.605 557.117 356.245 557.608C356.896 558.099 357.306 558.755 357.477 559.576H356.101C355.994 559.085 355.733 558.707 355.317 558.44C354.901 558.163 354.416 558.024 353.861 558.024C353.413 558.024 352.992 558.136 352.597 558.36C352.202 558.584 351.882 558.92 351.637 559.368C351.392 559.816 351.269 560.371 351.269 561.032C351.269 561.693 351.392 562.248 351.637 562.696C351.882 563.144 352.202 563.485 352.597 563.72C352.992 563.944 353.413 564.056 353.861 564.056C354.416 564.056 354.901 563.923 355.317 563.656C355.733 563.379 355.994 562.989 356.101 562.488H357.477C357.317 563.288 356.912 563.939 356.261 564.44C355.61 564.941 354.816 565.192 353.877 565.192ZM362.922 565.192C362.165 565.192 361.493 565.021 360.906 564.68C360.319 564.328 359.855 563.843 359.514 563.224C359.183 562.605 359.018 561.875 359.018 561.032C359.018 560.2 359.183 559.475 359.514 558.856C359.845 558.227 360.303 557.741 360.89 557.4C361.487 557.048 362.175 556.872 362.954 556.872C363.722 556.872 364.383 557.048 364.938 557.4C365.503 557.741 365.935 558.195 366.234 558.76C366.533 559.325 366.682 559.933 366.682 560.584C366.682 560.701 366.677 560.819 366.666 560.936C366.666 561.053 366.666 561.187 366.666 561.336H360.346C360.378 561.944 360.517 562.451 360.762 562.856C361.018 563.251 361.333 563.549 361.706 563.752C362.09 563.955 362.495 564.056 362.922 564.056C363.477 564.056 363.941 563.928 364.314 563.672C364.687 563.416 364.959 563.069 365.13 562.632H366.458C366.245 563.368 365.834 563.981 365.226 564.472C364.629 564.952 363.861 565.192 362.922 565.192ZM362.922 558.008C362.282 558.008 361.711 558.205 361.21 558.6C360.719 558.984 360.437 559.549 360.362 560.296H365.354C365.322 559.581 365.077 559.021 364.618 558.616C364.159 558.211 363.594 558.008 362.922 558.008Z" fill="#1F1F1F"/>
</g>
<defs>
<filter id="filter0_d_35_380" x="1033" y="478" width="383" height="188" filterUnits="userSpaceOnUse" color-interpolation-filters="sRGB">
<feFlood flood-opacity="0" result="BackgroundImageFix"/>
<feColorMatrix in="SourceAlpha" type="matrix" values="0 0 0 0 0 0 0 0 0 0 0 0 0 0 0 0 0 0 127 0" result="hardAlpha"/>
<feOffset dy="4"/>
<feGaussianBlur stdDeviation="2"/>
<feComposite in2="hardAlpha" operator="out"/>
<feColorMatrix type="matrix" values="0 0 0 0 0 0 0 0 0 0 0 0 0 0 0 0 0 0 0.2 0"/>
<feBlend mode="normal" in2="BackgroundImageFix" result="effect1_dropShadow_35_380"/>
<feBlend mode="normal" in="SourceGraphic" in2="effect1_dropShadow_35_380" result="shape"/>
</filter>
<filter id="filter1_d_35_380" x="564" y="453" width="383" height="188" filterUnits="userSpaceOnUse" color-interpolation-filters="sRGB">
<feFlood flood-opacity="0" result="BackgroundImageFix"/>
<feColorMatrix in="SourceAlpha" type="matrix" values="0 0 0 0 0 0 0 0 0 0 0 0 0 0 0 0 0 0 127 0" result="hardAlpha"/>
<feOffset dy="4"/>
<feGaussianBlur stdDeviation="2"/>
<feComposite in2="hardAlpha" operator="out"/>
<feColorMatrix type="matrix" values="0 0 0 0 0 0 0 0 0 0 0 0 0 0 0 0 0 0 0.2 0"/>
<feBlend mode="normal" in2="BackgroundImageFix" result="effect1_dropShadow_35_380"/>
<feBlend mode="normal" in="SourceGraphic" in2="effect1_dropShadow_35_380" result="shape"/>
</filter>
<filter id="filter2_d_35_380" x="96" y="478" width="383" height="188" filterUnits="userSpaceOnUse" color-interpolation-filters="sRGB">
<feFlood flood-opacity="0" result="BackgroundImageFix"/>
<feColorMatrix in="SourceAlpha" type="matrix" values="0 0 0 0 0 0 0 0 0 0 0 0 0 0 0 0 0 0 127 0" result="hardAlpha"/>
<feOffset dy="4"/>
<feGaussianBlur stdDeviation="2"/>
<feComposite in2="hardAlpha" operator="out"/>
<feColorMatrix type="matrix" values="0 0 0 0 0 0 0 0 0 0 0 0 0 0 0 0 0 0 0.2 0"/>
<feBlend mode="normal" in2="BackgroundImageFix" result="effect1_dropShadow_35_380"/>
<feBlend mode="normal" in="SourceGraphic" in2="effect1_dropShadow_35_380" result="shape"/>
</filter>
<clipPath id="clip0_35_380">
<rect width="324" height="925" fill="white" transform="translate(594)"/>
</clipPath>
</defs>
</svg>
