<svg width="196" height="48" viewBox="0 0 196 48" fill="none" xmlns="http://www.w3.org/2000/svg">
<path d="M7.71053 36V14.508H0.366531V10.8H19.6985V14.508H12.3185V36H7.71053ZM23.0041 36V10.08H27.6121V20.88C28.2121 19.896 29.0161 19.128 30.0241 18.576C31.0561 18 32.2321 17.712 33.5521 17.712C35.7601 17.712 37.4641 18.408 38.6641 19.8C39.8881 21.192 40.5001 23.232 40.5001 25.92V36H35.9281V26.352C35.9281 24.816 35.6161 23.64 34.9921 22.824C34.3921 22.008 33.4321 21.6 32.1121 21.6C30.8161 21.6 29.7361 22.056 28.8721 22.968C28.0321 23.88 27.6121 25.152 27.6121 26.784V36H23.0041ZM47.3904 15.372C46.5504 15.372 45.8544 15.12 45.3024 14.616C44.7744 14.112 44.5104 13.476 44.5104 12.708C44.5104 11.94 44.7744 11.316 45.3024 10.836C45.8544 10.332 46.5504 10.08 47.3904 10.08C48.2304 10.08 48.9144 10.332 49.4424 10.836C49.9944 11.316 50.2704 11.94 50.2704 12.708C50.2704 13.476 49.9944 14.112 49.4424 14.616C48.9144 15.12 48.2304 15.372 47.3904 15.372ZM45.0864 36V18.144H49.6944V36H45.0864ZM54.5041 36V18.144H58.6081L59.0401 21.492C59.6881 20.34 60.5641 19.428 61.6681 18.756C62.7961 18.06 64.1161 17.712 65.6281 17.712V22.572H64.3321C63.3241 22.572 62.4241 22.728 61.6321 23.04C60.8401 23.352 60.2161 23.892 59.7601 24.66C59.3281 25.428 59.1121 26.496 59.1121 27.864V36H54.5041ZM76.6691 36.432C74.9891 36.432 73.4891 36.024 72.1691 35.208C70.8491 34.392 69.8051 33.276 69.0371 31.86C68.2691 30.444 67.8851 28.836 67.8851 27.036C67.8851 25.236 68.2691 23.64 69.0371 22.248C69.8051 20.832 70.8491 19.728 72.1691 18.936C73.4891 18.12 74.9891 17.712 76.6691 17.712C78.0131 17.712 79.1891 17.964 80.1971 18.468C81.2051 18.972 82.0211 19.68 82.6451 20.592V10.08H87.2531V36H83.1491L82.6451 33.444C82.0691 34.236 81.3011 34.932 80.3411 35.532C79.4051 36.132 78.1811 36.432 76.6691 36.432ZM77.6411 32.4C79.1291 32.4 80.3411 31.908 81.2771 30.924C82.2371 29.916 82.7171 28.632 82.7171 27.072C82.7171 25.512 82.2371 24.24 81.2771 23.256C80.3411 22.248 79.1291 21.744 77.6411 21.744C76.1771 21.744 74.9651 22.236 74.0051 23.22C73.0451 24.204 72.5651 25.476 72.5651 27.036C72.5651 28.596 73.0451 29.88 74.0051 30.888C74.9651 31.896 76.1771 32.4 77.6411 32.4Z" fill="white"/>
<path d="M100.581 36.932C98.9973 36.932 97.6053 36.68 96.4053 36.176C95.2053 35.648 94.2453 34.928 93.5253 34.016C92.8053 33.104 92.3733 32.048 92.2293 30.848H96.8733C97.0173 31.544 97.4013 32.144 98.0253 32.648C98.6733 33.128 99.5013 33.368 100.509 33.368C101.517 33.368 102.249 33.164 102.705 32.756C103.185 32.348 103.425 31.88 103.425 31.352C103.425 30.584 103.089 30.068 102.417 29.804C101.745 29.516 100.809 29.24 99.6093 28.976C98.8413 28.808 98.0613 28.604 97.2693 28.364C96.4773 28.124 95.7453 27.824 95.0733 27.464C94.4253 27.08 93.8973 26.6 93.4893 26.024C93.0813 25.424 92.8773 24.692 92.8773 23.828C92.8773 22.244 93.5013 20.912 94.7493 19.832C96.0213 18.752 97.7973 18.212 100.077 18.212C102.189 18.212 103.869 18.704 105.117 19.688C106.389 20.672 107.145 22.028 107.385 23.756H103.029C102.765 22.436 101.769 21.776 100.041 21.776C99.1773 21.776 98.5053 21.944 98.0253 22.28C97.5693 22.616 97.3413 23.036 97.3413 23.54C97.3413 24.068 97.6893 24.488 98.3853 24.8C99.0813 25.112 100.005 25.4 101.157 25.664C102.405 25.952 103.545 26.276 104.577 26.636C105.633 26.972 106.473 27.488 107.097 28.184C107.721 28.856 108.033 29.828 108.033 31.1C108.057 32.204 107.769 33.2 107.169 34.088C106.569 34.976 105.705 35.672 104.577 36.176C103.449 36.68 102.117 36.932 100.581 36.932ZM112.115 44.42V18.644H116.219L116.723 21.2C117.299 20.408 118.055 19.712 118.991 19.112C119.951 18.512 121.187 18.212 122.699 18.212C124.379 18.212 125.879 18.62 127.199 19.436C128.519 20.252 129.563 21.368 130.331 22.784C131.099 24.2 131.483 25.808 131.483 27.608C131.483 29.408 131.099 31.016 130.331 32.432C129.563 33.824 128.519 34.928 127.199 35.744C125.879 36.536 124.379 36.932 122.699 36.932C121.355 36.932 120.179 36.68 119.171 36.176C118.163 35.672 117.347 34.964 116.723 34.052V44.42H112.115ZM121.727 32.9C123.191 32.9 124.403 32.408 125.363 31.424C126.323 30.44 126.803 29.168 126.803 27.608C126.803 26.048 126.323 24.764 125.363 23.756C124.403 22.748 123.191 22.244 121.727 22.244C120.239 22.244 119.015 22.748 118.055 23.756C117.119 24.74 116.651 26.012 116.651 27.572C116.651 29.132 117.119 30.416 118.055 31.424C119.015 32.408 120.239 32.9 121.727 32.9ZM141.756 36.932C140.22 36.932 138.96 36.692 137.976 36.212C136.992 35.708 136.26 35.048 135.78 34.232C135.3 33.416 135.06 32.516 135.06 31.532C135.06 29.876 135.708 28.532 137.004 27.5C138.3 26.468 140.244 25.952 142.836 25.952H147.372V25.52C147.372 24.296 147.024 23.396 146.328 22.82C145.632 22.244 144.768 21.956 143.736 21.956C142.8 21.956 141.984 22.184 141.288 22.64C140.592 23.072 140.16 23.72 139.992 24.584H135.492C135.612 23.288 136.044 22.16 136.788 21.2C137.556 20.24 138.54 19.508 139.74 19.004C140.94 18.476 142.284 18.212 143.772 18.212C146.316 18.212 148.32 18.848 149.784 20.12C151.248 21.392 151.98 23.192 151.98 25.52V36.5H148.056L147.624 33.62C147.096 34.58 146.352 35.372 145.392 35.996C144.456 36.62 143.244 36.932 141.756 36.932ZM142.8 33.332C144.12 33.332 145.14 32.9 145.86 32.036C146.604 31.172 147.072 30.104 147.264 28.832H143.34C142.116 28.832 141.24 29.06 140.712 29.516C140.184 29.948 139.92 30.488 139.92 31.136C139.92 31.832 140.184 32.372 140.712 32.756C141.24 33.14 141.936 33.332 142.8 33.332ZM165.125 36.932C163.301 36.932 161.693 36.536 160.301 35.744C158.909 34.952 157.805 33.848 156.989 32.432C156.197 31.016 155.801 29.396 155.801 27.572C155.801 25.748 156.197 24.128 156.989 22.712C157.805 21.296 158.909 20.192 160.301 19.4C161.693 18.608 163.301 18.212 165.125 18.212C167.405 18.212 169.325 18.812 170.885 20.012C172.445 21.188 173.441 22.82 173.873 24.908H169.013C168.773 24.044 168.293 23.372 167.573 22.892C166.877 22.388 166.049 22.136 165.089 22.136C163.817 22.136 162.737 22.616 161.849 23.576C160.961 24.536 160.517 25.868 160.517 27.572C160.517 29.276 160.961 30.608 161.849 31.568C162.737 32.528 163.817 33.008 165.089 33.008C166.049 33.008 166.877 32.768 167.573 32.288C168.293 31.808 168.773 31.124 169.013 30.236H173.873C173.441 32.252 172.445 33.872 170.885 35.096C169.325 36.32 167.405 36.932 165.125 36.932ZM186.639 36.932C184.839 36.932 183.243 36.548 181.851 35.78C180.459 35.012 179.367 33.932 178.575 32.54C177.783 31.148 177.387 29.54 177.387 27.716C177.387 25.868 177.771 24.224 178.539 22.784C179.331 21.344 180.411 20.228 181.779 19.436C183.171 18.62 184.803 18.212 186.675 18.212C188.427 18.212 189.975 18.596 191.319 19.364C192.663 20.132 193.707 21.188 194.451 22.532C195.219 23.852 195.603 25.328 195.603 26.96C195.603 27.224 195.591 27.5 195.567 27.788C195.567 28.076 195.555 28.376 195.531 28.688H181.959C182.055 30.08 182.535 31.172 183.399 31.964C184.287 32.756 185.355 33.152 186.603 33.152C187.539 33.152 188.319 32.948 188.943 32.54C189.591 32.108 190.071 31.556 190.383 30.884H195.063C194.727 32.012 194.163 33.044 193.371 33.98C192.603 34.892 191.643 35.612 190.491 36.14C189.363 36.668 188.079 36.932 186.639 36.932ZM186.675 21.956C185.547 21.956 184.551 22.28 183.687 22.928C182.823 23.552 182.271 24.512 182.031 25.808H190.923C190.851 24.632 190.419 23.696 189.627 23C188.835 22.304 187.851 21.956 186.675 21.956Z" fill="url(#paint0_linear_35_216)"/>
<defs>
<linearGradient id="paint0_linear_35_216" x1="44.4633" y1="47.5" x2="216.766" y2="44.5166" gradientUnits="userSpaceOnUse">
<stop stop-color="#02EC88"/>
<stop offset="1" stop-color="#5CB25D"/>
</linearGradient>
</defs>
</svg>
