<svg width="24" height="24" viewBox="0 0 24 24" fill="none" xmlns="http://www.w3.org/2000/svg">
<path d="M12.0001 21C13.2032 21.0001 14.3942 20.7589 15.5025 20.2907C16.6109 19.8226 17.6141 19.137 18.4529 18.2744C19.2917 17.4118 19.949 16.3899 20.386 15.2689C20.823 14.1479 21.0308 12.9507 20.9971 11.748C19.7384 12.6241 18.2269 13.0626 16.6948 12.9961C15.1627 12.9296 13.6948 12.3619 12.5167 11.3801C11.3387 10.3983 10.5156 9.05682 10.174 7.5618C9.83244 6.06678 9.99127 4.50096 10.6261 3.10498C8.38431 3.45045 6.35565 4.62964 4.94598 6.40665C3.53631 8.18365 2.84961 10.4274 3.02325 12.689C3.1969 14.9506 4.2181 17.0632 5.88252 18.6042C7.54695 20.1451 9.73185 21.0008 12.0001 21Z" stroke="#050505" stroke-width="1.5" stroke-linecap="round" stroke-linejoin="round"/>
</svg>
