<svg width="196" height="48" viewBox="0 0 196 48" fill="none" xmlns="http://www.w3.org/2000/svg">
<path d="M15.8274 36.932C13.9794 36.932 12.3474 36.62 10.9314 35.996C9.51539 35.348 8.39939 34.436 7.58339 33.26C6.76739 32.06 6.34739 30.608 6.32339 28.904H11.1834C11.2314 30.08 11.6514 31.076 12.4434 31.892C13.2594 32.684 14.3754 33.08 15.7914 33.08C17.0154 33.08 17.9874 32.792 18.7074 32.216C19.4274 31.616 19.7874 30.824 19.7874 29.84C19.7874 28.808 19.4634 28.004 18.8154 27.428C18.1914 26.852 17.3514 26.384 16.2954 26.024C15.2394 25.664 14.1114 25.28 12.9114 24.872C10.9674 24.2 9.47939 23.336 8.44739 22.28C7.43939 21.224 6.93539 19.82 6.93539 18.068C6.91139 16.58 7.25939 15.308 7.97939 14.252C8.72339 13.172 9.73139 12.344 11.0034 11.768C12.2754 11.168 13.7394 10.868 15.3954 10.868C17.0754 10.868 18.5514 11.168 19.8234 11.768C21.1194 12.368 22.1274 13.208 22.8474 14.288C23.5914 15.368 23.9874 16.652 24.0354 18.14H19.1034C19.0794 17.252 18.7314 16.472 18.0594 15.8C17.4114 15.104 16.4994 14.756 15.3234 14.756C14.3154 14.732 13.4634 14.984 12.7674 15.512C12.0954 16.016 11.7594 16.76 11.7594 17.744C11.7594 18.584 12.0234 19.256 12.5514 19.76C13.0794 20.24 13.7994 20.648 14.7114 20.984C15.6234 21.32 16.6674 21.68 17.8434 22.064C19.0914 22.496 20.2314 23 21.2634 23.576C22.2954 24.152 23.1234 24.92 23.7474 25.88C24.3714 26.816 24.6834 28.028 24.6834 29.516C24.6834 30.836 24.3474 32.06 23.6754 33.188C23.0034 34.316 22.0074 35.228 20.6874 35.924C19.3674 36.596 17.7474 36.932 15.8274 36.932ZM30.8279 44.42L34.9679 35.312H33.8879L26.9399 18.644H31.9439L36.9479 31.208L42.1679 18.644H47.0639L35.7239 44.42H30.8279ZM50.0763 36.5V18.644H54.1443L54.5043 21.668C55.0563 20.612 55.8483 19.772 56.8803 19.148C57.9363 18.524 59.1723 18.212 60.5883 18.212C62.7963 18.212 64.5123 18.908 65.7363 20.3C66.9603 21.692 67.5723 23.732 67.5723 26.42V36.5H62.9643V26.852C62.9643 25.316 62.6523 24.14 62.0283 23.324C61.4043 22.508 60.4323 22.1 59.1123 22.1C57.8163 22.1 56.7483 22.556 55.9083 23.468C55.0923 24.38 54.6843 25.652 54.6843 27.284V36.5H50.0763ZM80.7267 36.932C78.9027 36.932 77.2947 36.536 75.9027 35.744C74.5107 34.952 73.4067 33.848 72.5907 32.432C71.7987 31.016 71.4027 29.396 71.4027 27.572C71.4027 25.748 71.7987 24.128 72.5907 22.712C73.4067 21.296 74.5107 20.192 75.9027 19.4C77.2947 18.608 78.9027 18.212 80.7267 18.212C83.0067 18.212 84.9267 18.812 86.4867 20.012C88.0467 21.188 89.0427 22.82 89.4747 24.908H84.6147C84.3747 24.044 83.8947 23.372 83.1747 22.892C82.4787 22.388 81.6507 22.136 80.6907 22.136C79.4187 22.136 78.3387 22.616 77.4507 23.576C76.5627 24.536 76.1187 25.868 76.1187 27.572C76.1187 29.276 76.5627 30.608 77.4507 31.568C78.3387 32.528 79.4187 33.008 80.6907 33.008C81.6507 33.008 82.4787 32.768 83.1747 32.288C83.8947 31.808 84.3747 31.124 84.6147 30.236H89.4747C89.0427 32.252 88.0467 33.872 86.4867 35.096C84.9267 36.32 83.0067 36.932 80.7267 36.932Z" fill="#1F1F1F"/>
<path d="M102.12 36.5C100.248 36.5 98.7482 36.044 97.6202 35.132C96.4922 34.22 95.9282 32.6 95.9282 30.272V22.496H92.8682V18.644H95.9282L96.4682 13.856H100.536V18.644H105.36V22.496H100.536V30.308C100.536 31.172 100.716 31.772 101.076 32.108C101.46 32.42 102.108 32.576 103.02 32.576H105.252V36.5H102.12ZM117.536 36.932C115.736 36.932 114.14 36.548 112.748 35.78C111.356 35.012 110.264 33.932 109.472 32.54C108.68 31.148 108.284 29.54 108.284 27.716C108.284 25.868 108.668 24.224 109.436 22.784C110.228 21.344 111.308 20.228 112.676 19.436C114.068 18.62 115.7 18.212 117.572 18.212C119.324 18.212 120.872 18.596 122.216 19.364C123.56 20.132 124.604 21.188 125.348 22.532C126.116 23.852 126.5 25.328 126.5 26.96C126.5 27.224 126.488 27.5 126.464 27.788C126.464 28.076 126.452 28.376 126.428 28.688H112.856C112.952 30.08 113.432 31.172 114.296 31.964C115.184 32.756 116.252 33.152 117.5 33.152C118.436 33.152 119.216 32.948 119.84 32.54C120.488 32.108 120.968 31.556 121.28 30.884H125.96C125.624 32.012 125.06 33.044 124.268 33.98C123.5 34.892 122.54 35.612 121.388 36.14C120.26 36.668 118.976 36.932 117.536 36.932ZM117.572 21.956C116.444 21.956 115.448 22.28 114.584 22.928C113.72 23.552 113.168 24.512 112.928 25.808H121.82C121.748 24.632 121.316 23.696 120.524 23C119.732 22.304 118.748 21.956 117.572 21.956ZM136.531 36.932C134.995 36.932 133.735 36.692 132.751 36.212C131.767 35.708 131.035 35.048 130.555 34.232C130.075 33.416 129.835 32.516 129.835 31.532C129.835 29.876 130.483 28.532 131.779 27.5C133.075 26.468 135.019 25.952 137.611 25.952H142.147V25.52C142.147 24.296 141.799 23.396 141.103 22.82C140.407 22.244 139.543 21.956 138.511 21.956C137.575 21.956 136.759 22.184 136.063 22.64C135.367 23.072 134.935 23.72 134.767 24.584H130.267C130.387 23.288 130.819 22.16 131.563 21.2C132.331 20.24 133.315 19.508 134.515 19.004C135.715 18.476 137.059 18.212 138.547 18.212C141.091 18.212 143.095 18.848 144.559 20.12C146.023 21.392 146.755 23.192 146.755 25.52V36.5H142.831L142.399 33.62C141.871 34.58 141.127 35.372 140.167 35.996C139.231 36.62 138.019 36.932 136.531 36.932ZM137.575 33.332C138.895 33.332 139.915 32.9 140.635 32.036C141.379 31.172 141.847 30.104 142.039 28.832H138.115C136.891 28.832 136.015 29.06 135.487 29.516C134.959 29.948 134.695 30.488 134.695 31.136C134.695 31.832 134.959 32.372 135.487 32.756C136.015 33.14 136.711 33.332 137.575 33.332ZM151.153 36.5V18.644H155.221L155.617 21.056C156.193 20.192 156.949 19.508 157.885 19.004C158.845 18.476 159.949 18.212 161.197 18.212C163.957 18.212 165.913 19.28 167.065 21.416C167.713 20.432 168.577 19.652 169.657 19.076C170.761 18.5 171.961 18.212 173.257 18.212C175.585 18.212 177.373 18.908 178.621 20.3C179.869 21.692 180.493 23.732 180.493 26.42V36.5H175.885V26.852C175.885 25.316 175.585 24.14 174.985 23.324C174.409 22.508 173.509 22.1 172.285 22.1C171.037 22.1 170.029 22.556 169.261 23.468C168.517 24.38 168.145 25.652 168.145 27.284V36.5H163.537V26.852C163.537 25.316 163.237 24.14 162.637 23.324C162.037 22.508 161.113 22.1 159.865 22.1C158.641 22.1 157.645 22.556 156.877 23.468C156.133 24.38 155.761 25.652 155.761 27.284V36.5H151.153ZM186.847 36.752C186.007 36.752 185.311 36.488 184.759 35.96C184.231 35.432 183.967 34.796 183.967 34.052C183.967 33.284 184.231 32.636 184.759 32.108C185.311 31.58 186.007 31.316 186.847 31.316C187.687 31.316 188.371 31.58 188.899 32.108C189.451 32.636 189.727 33.284 189.727 34.052C189.727 34.796 189.451 35.432 188.899 35.96C188.371 36.488 187.687 36.752 186.847 36.752Z" fill="url(#paint0_linear_35_439)"/>
<defs>
<linearGradient id="paint0_linear_35_439" x1="48.475" y1="47.5" x2="209.512" y2="44.8941" gradientUnits="userSpaceOnUse">
<stop stop-color="#02EC88"/>
<stop offset="1" stop-color="#5CB25D"/>
</linearGradient>
</defs>
</svg>
