<svg width="196" height="48" viewBox="0 0 196 48" fill="none" xmlns="http://www.w3.org/2000/svg">
<path d="M20.3274 36.432C18.4794 36.432 16.8474 36.12 15.4314 35.496C14.0154 34.848 12.8994 33.936 12.0834 32.76C11.2674 31.56 10.8474 30.108 10.8234 28.404H15.6834C15.7314 29.58 16.1514 30.576 16.9434 31.392C17.7594 32.184 18.8754 32.58 20.2914 32.58C21.5154 32.58 22.4874 32.292 23.2074 31.716C23.9274 31.116 24.2874 30.324 24.2874 29.34C24.2874 28.308 23.9634 27.504 23.3154 26.928C22.6914 26.352 21.8514 25.884 20.7954 25.524C19.7394 25.164 18.6114 24.78 17.4114 24.372C15.4674 23.7 13.9794 22.836 12.9474 21.78C11.9394 20.724 11.4354 19.32 11.4354 17.568C11.4114 16.08 11.7594 14.808 12.4794 13.752C13.2234 12.672 14.2314 11.844 15.5034 11.268C16.7754 10.668 18.2394 10.368 19.8954 10.368C21.5754 10.368 23.0514 10.668 24.3234 11.268C25.6194 11.868 26.6274 12.708 27.3474 13.788C28.0914 14.868 28.4874 16.152 28.5354 17.64H23.6034C23.5794 16.752 23.2314 15.972 22.5594 15.3C21.9114 14.604 20.9994 14.256 19.8234 14.256C18.8154 14.232 17.9634 14.484 17.2674 15.012C16.5954 15.516 16.2594 16.26 16.2594 17.244C16.2594 18.084 16.5234 18.756 17.0514 19.26C17.5794 19.74 18.2994 20.148 19.2114 20.484C20.1234 20.82 21.1674 21.18 22.3434 21.564C23.5914 21.996 24.7314 22.5 25.7634 23.076C26.7954 23.652 27.6234 24.42 28.2474 25.38C28.8714 26.316 29.1834 27.528 29.1834 29.016C29.1834 30.336 28.8474 31.56 28.1754 32.688C27.5034 33.816 26.5074 34.728 25.1874 35.424C23.8674 36.096 22.2474 36.432 20.3274 36.432ZM35.3279 43.92L39.4679 34.812H38.3879L31.4399 18.144H36.4439L41.4479 30.708L46.6679 18.144H51.5639L40.2239 43.92H35.3279ZM54.5763 36V18.144H58.6443L59.0043 21.168C59.5563 20.112 60.3483 19.272 61.3803 18.648C62.4363 18.024 63.6723 17.712 65.0883 17.712C67.2963 17.712 69.0123 18.408 70.2363 19.8C71.4603 21.192 72.0723 23.232 72.0723 25.92V36H67.4643V26.352C67.4643 24.816 67.1523 23.64 66.5283 22.824C65.9043 22.008 64.9323 21.6 63.6123 21.6C62.3163 21.6 61.2483 22.056 60.4083 22.968C59.5923 23.88 59.1843 25.152 59.1843 26.784V36H54.5763ZM85.2267 36.432C83.4027 36.432 81.7947 36.036 80.4027 35.244C79.0107 34.452 77.9067 33.348 77.0907 31.932C76.2987 30.516 75.9027 28.896 75.9027 27.072C75.9027 25.248 76.2987 23.628 77.0907 22.212C77.9067 20.796 79.0107 19.692 80.4027 18.9C81.7947 18.108 83.4027 17.712 85.2267 17.712C87.5067 17.712 89.4267 18.312 90.9867 19.512C92.5467 20.688 93.5427 22.32 93.9747 24.408H89.1147C88.8747 23.544 88.3947 22.872 87.6747 22.392C86.9787 21.888 86.1507 21.636 85.1907 21.636C83.9187 21.636 82.8387 22.116 81.9507 23.076C81.0627 24.036 80.6187 25.368 80.6187 27.072C80.6187 28.776 81.0627 30.108 81.9507 31.068C82.8387 32.028 83.9187 32.508 85.1907 32.508C86.1507 32.508 86.9787 32.268 87.6747 31.788C88.3947 31.308 88.8747 30.624 89.1147 29.736H93.9747C93.5427 31.752 92.5467 33.372 90.9867 34.596C89.4267 35.82 87.5067 36.432 85.2267 36.432Z" fill="white"/>
<path d="M108.944 36.5C107.072 36.5 105.572 36.044 104.444 35.132C103.316 34.22 102.752 32.6 102.752 30.272V22.496H99.6924V18.644H102.752L103.292 13.856H107.36V18.644H112.184V22.496H107.36V30.308C107.36 31.172 107.54 31.772 107.9 32.108C108.284 32.42 108.932 32.576 109.844 32.576H112.076V36.5H108.944ZM124.36 36.932C122.56 36.932 120.964 36.548 119.572 35.78C118.18 35.012 117.088 33.932 116.296 32.54C115.504 31.148 115.108 29.54 115.108 27.716C115.108 25.868 115.492 24.224 116.26 22.784C117.052 21.344 118.132 20.228 119.5 19.436C120.892 18.62 122.524 18.212 124.396 18.212C126.148 18.212 127.696 18.596 129.04 19.364C130.384 20.132 131.428 21.188 132.172 22.532C132.94 23.852 133.324 25.328 133.324 26.96C133.324 27.224 133.312 27.5 133.288 27.788C133.288 28.076 133.276 28.376 133.252 28.688H119.68C119.776 30.08 120.256 31.172 121.12 31.964C122.008 32.756 123.076 33.152 124.324 33.152C125.26 33.152 126.04 32.948 126.664 32.54C127.312 32.108 127.792 31.556 128.104 30.884H132.784C132.448 32.012 131.884 33.044 131.092 33.98C130.324 34.892 129.364 35.612 128.212 36.14C127.084 36.668 125.8 36.932 124.36 36.932ZM124.396 21.956C123.268 21.956 122.272 22.28 121.408 22.928C120.544 23.552 119.992 24.512 119.752 25.808H128.644C128.572 24.632 128.14 23.696 127.348 23C126.556 22.304 125.572 21.956 124.396 21.956ZM143.355 36.932C141.819 36.932 140.559 36.692 139.575 36.212C138.591 35.708 137.859 35.048 137.379 34.232C136.899 33.416 136.659 32.516 136.659 31.532C136.659 29.876 137.307 28.532 138.603 27.5C139.899 26.468 141.843 25.952 144.435 25.952H148.971V25.52C148.971 24.296 148.623 23.396 147.927 22.82C147.231 22.244 146.367 21.956 145.335 21.956C144.399 21.956 143.583 22.184 142.887 22.64C142.191 23.072 141.759 23.72 141.591 24.584H137.091C137.211 23.288 137.643 22.16 138.387 21.2C139.155 20.24 140.139 19.508 141.339 19.004C142.539 18.476 143.883 18.212 145.371 18.212C147.915 18.212 149.919 18.848 151.383 20.12C152.847 21.392 153.579 23.192 153.579 25.52V36.5H149.655L149.223 33.62C148.695 34.58 147.951 35.372 146.991 35.996C146.055 36.62 144.843 36.932 143.355 36.932ZM144.399 33.332C145.719 33.332 146.739 32.9 147.459 32.036C148.203 31.172 148.671 30.104 148.863 28.832H144.939C143.715 28.832 142.839 29.06 142.311 29.516C141.783 29.948 141.519 30.488 141.519 31.136C141.519 31.832 141.783 32.372 142.311 32.756C142.839 33.14 143.535 33.332 144.399 33.332ZM157.977 36.5V18.644H162.045L162.441 21.056C163.017 20.192 163.773 19.508 164.709 19.004C165.669 18.476 166.773 18.212 168.021 18.212C170.781 18.212 172.737 19.28 173.889 21.416C174.537 20.432 175.401 19.652 176.481 19.076C177.585 18.5 178.785 18.212 180.081 18.212C182.409 18.212 184.197 18.908 185.445 20.3C186.693 21.692 187.317 23.732 187.317 26.42V36.5H182.709V26.852C182.709 25.316 182.409 24.14 181.809 23.324C181.233 22.508 180.333 22.1 179.109 22.1C177.861 22.1 176.853 22.556 176.085 23.468C175.341 24.38 174.969 25.652 174.969 27.284V36.5H170.361V26.852C170.361 25.316 170.061 24.14 169.461 23.324C168.861 22.508 167.937 22.1 166.689 22.1C165.465 22.1 164.469 22.556 163.701 23.468C162.957 24.38 162.585 25.652 162.585 27.284V36.5H157.977Z" fill="url(#paint0_linear_35_433)"/>
<defs>
<linearGradient id="paint0_linear_35_433" x1="59.3473" y1="47.5" x2="205.897" y2="45.3419" gradientUnits="userSpaceOnUse">
<stop stop-color="#02EC88"/>
<stop offset="1" stop-color="#5CB25D"/>
</linearGradient>
</defs>
</svg>
